<svg xmlns="http://www.w3.org/2000/svg" xmlns:xlink="http://www.w3.org/1999/xlink" version="1.1" class="marks" width="646" height="473" viewBox="0 0 646 473"><rect width="646" height="473" fill="white"/><g fill="none" stroke-miterlimit="10" transform="translate(41,36)"><g class="mark-group role-frame root" role="graphics-object" aria-roledescription="group mark container"><g transform="translate(0,0)"><path class="background" aria-hidden="true" d="M0.5,0.5h600v400h-600Z" stroke="#ddd"/><g><g class="mark-group role-axis" aria-hidden="true"><g transform="translate(0.5,0.5)"><path class="background" aria-hidden="true" d="M0,0h0v0h0Z" pointer-events="none"/><g><g class="mark-rule role-axis-grid" pointer-events="none"><line transform="translate(0,400)" x2="600" y2="0" stroke="#ddd" stroke-width="1" opacity="1"/><line transform="translate(0,365)" x2="600" y2="0" stroke="#ddd" stroke-width="1" opacity="1"/><line transform="translate(0,330)" x2="600" y2="0" stroke="#ddd" stroke-width="1" opacity="1"/><line transform="translate(0,295)" x2="600" y2="0" stroke="#ddd" stroke-width="1" opacity="1"/><line transform="translate(0,259)" x2="600" y2="0" stroke="#ddd" stroke-width="1" opacity="1"/><line transform="translate(0,224)" x2="600" y2="0" stroke="#ddd" stroke-width="1" opacity="1"/><line transform="translate(0,189)" x2="600" y2="0" stroke="#ddd" stroke-width="1" opacity="1"/><line transform="translate(0,154)" x2="600" y2="0" stroke="#ddd" stroke-width="1" opacity="1"/><line transform="translate(0,119)" x2="600" y2="0" stroke="#ddd" stroke-width="1" opacity="1"/><line transform="translate(0,84)" x2="600" y2="0" stroke="#ddd" stroke-width="1" opacity="1"/><line transform="translate(0,48)" x2="600" y2="0" stroke="#ddd" stroke-width="1" opacity="1"/><line transform="translate(0,13)" x2="600" y2="0" stroke="#ddd" stroke-width="1" opacity="1"/></g></g><path class="foreground" aria-hidden="true" d="" pointer-events="none" display="none"/></g></g><g class="mark-group role-axis" role="graphics-symbol" aria-roledescription="axis" aria-label="X-axis titled 'Libraries' for a discrete scale with 7 values: toml_rs, rtoml, pytomlpp, tomllib, qtoml, toml, tomlkit"><g transform="translate(0.5,400.5)"><path class="background" aria-hidden="true" d="M0,0h0v0h0Z" pointer-events="none"/><g><g class="mark-rule role-axis-tick" pointer-events="none"><line transform="translate(42,0)" x2="0" y2="5" stroke="#888" stroke-width="1" opacity="1"/><line transform="translate(128,0)" x2="0" y2="5" stroke="#888" stroke-width="1" opacity="1"/><line transform="translate(214,0)" x2="0" y2="5" stroke="#888" stroke-width="1" opacity="1"/><line transform="translate(299,0)" x2="0" y2="5" stroke="#888" stroke-width="1" opacity="1"/><line transform="translate(385,0)" x2="0" y2="5" stroke="#888" stroke-width="1" opacity="1"/><line transform="translate(471,0)" x2="0" y2="5" stroke="#888" stroke-width="1" opacity="1"/><line transform="translate(557,0)" x2="0" y2="5" stroke="#888" stroke-width="1" opacity="1"/></g><g class="mark-text role-axis-label" pointer-events="none"><text text-anchor="middle" transform="translate(42.35714285714285,15)" font-family="sans-serif" font-size="10px" fill="#000" opacity="1">toml_rs</text><text text-anchor="middle" transform="translate(128.07142857142856,15)" font-family="sans-serif" font-size="10px" fill="#000" opacity="1">rtoml</text><text text-anchor="middle" transform="translate(213.78571428571428,15)" font-family="sans-serif" font-size="10px" fill="#000" opacity="1">pytomlpp</text><text text-anchor="middle" transform="translate(299.49999999999994,15)" font-family="sans-serif" font-size="10px" fill="#000" opacity="1">tomllib</text><text text-anchor="middle" transform="translate(385.21428571428567,15)" font-family="sans-serif" font-size="10px" fill="#000" opacity="1">qtoml</text><text text-anchor="middle" transform="translate(470.9285714285714,15)" font-family="sans-serif" font-size="10px" fill="#000" opacity="1">toml</text><text text-anchor="middle" transform="translate(556.642857142857,15)" font-family="sans-serif" font-size="10px" fill="#000" opacity="1">tomlkit</text></g><g class="mark-rule role-axis-domain" pointer-events="none"><line transform="translate(0,0)" x2="600" y2="0" stroke="#888" stroke-width="1" opacity="1"/></g><g class="mark-text role-axis-title" pointer-events="none"><text text-anchor="middle" transform="translate(300,30)" font-family="sans-serif" font-size="11px" font-weight="bold" fill="#000" opacity="1">Libraries</text></g></g><path class="foreground" aria-hidden="true" d="" pointer-events="none" display="none"/></g></g><g class="mark-group role-axis" role="graphics-symbol" aria-roledescription="axis" aria-label="Y-axis titled 'Execution Time (seconds, lower=better)' for a linear scale with values from 0.0 to 1.1"><g transform="translate(0.5,0.5)"><path class="background" aria-hidden="true" d="M0,0h0v0h0Z" pointer-events="none"/><g><g class="mark-rule role-axis-tick" pointer-events="none"><line transform="translate(0,400)" x2="-5" y2="0" stroke="#888" stroke-width="1" opacity="1"/><line transform="translate(0,365)" x2="-5" y2="0" stroke="#888" stroke-width="1" opacity="1"/><line transform="translate(0,330)" x2="-5" y2="0" stroke="#888" stroke-width="1" opacity="1"/><line transform="translate(0,295)" x2="-5" y2="0" stroke="#888" stroke-width="1" opacity="1"/><line transform="translate(0,259)" x2="-5" y2="0" stroke="#888" stroke-width="1" opacity="1"/><line transform="translate(0,224)" x2="-5" y2="0" stroke="#888" stroke-width="1" opacity="1"/><line transform="translate(0,189)" x2="-5" y2="0" stroke="#888" stroke-width="1" opacity="1"/><line transform="translate(0,154)" x2="-5" y2="0" stroke="#888" stroke-width="1" opacity="1"/><line transform="translate(0,119)" x2="-5" y2="0" stroke="#888" stroke-width="1" opacity="1"/><line transform="translate(0,84)" x2="-5" y2="0" stroke="#888" stroke-width="1" opacity="1"/><line transform="translate(0,48)" x2="-5" y2="0" stroke="#888" stroke-width="1" opacity="1"/><line transform="translate(0,13)" x2="-5" y2="0" stroke="#888" stroke-width="1" opacity="1"/></g><g class="mark-text role-axis-label" pointer-events="none"><text text-anchor="end" transform="translate(-7,403)" font-family="sans-serif" font-size="10px" fill="#000" opacity="1">0.0</text><text text-anchor="end" transform="translate(-7,367.844302843971)" font-family="sans-serif" font-size="10px" fill="#000" opacity="1">0.1</text><text text-anchor="end" transform="translate(-7,332.68860568794196)" font-family="sans-serif" font-size="10px" fill="#000" opacity="1">0.2</text><text text-anchor="end" transform="translate(-7,297.53290853191294)" font-family="sans-serif" font-size="10px" fill="#000" opacity="1">0.3</text><text text-anchor="end" transform="translate(-7,262.3772113758839)" font-family="sans-serif" font-size="10px" fill="#000" opacity="1">0.4</text><text text-anchor="end" transform="translate(-7,227.22151421985487)" font-family="sans-serif" font-size="10px" fill="#000" opacity="1">0.5</text><text text-anchor="end" transform="translate(-7,192.06581706382588)" font-family="sans-serif" font-size="10px" fill="#000" opacity="1">0.6</text><text text-anchor="end" transform="translate(-7,156.91011990779688)" font-family="sans-serif" font-size="10px" fill="#000" opacity="1">0.7</text><text text-anchor="end" transform="translate(-7,121.75442275176783)" font-family="sans-serif" font-size="10px" fill="#000" opacity="1">0.8</text><text text-anchor="end" transform="translate(-7,86.59872559573884)" font-family="sans-serif" font-size="10px" fill="#000" opacity="1">0.9</text><text text-anchor="end" transform="translate(-7,51.4430284397098)" font-family="sans-serif" font-size="10px" fill="#000" opacity="1">1.0</text><text text-anchor="end" transform="translate(-7,16.287331283680757)" font-family="sans-serif" font-size="10px" fill="#000" opacity="1">1.1</text></g><g class="mark-rule role-axis-domain" pointer-events="none"><line transform="translate(0,400)" x2="0" y2="-400" stroke="#888" stroke-width="1" opacity="1"/></g><g class="mark-text role-axis-title" pointer-events="none"><text text-anchor="middle" transform="translate(-24.9013671875,200) rotate(-90) translate(0,-2)" font-family="sans-serif" font-size="11px" font-weight="bold" fill="#000" opacity="1">Execution Time (seconds, lower=better)</text></g></g><path class="foreground" aria-hidden="true" d="" pointer-events="none" display="none"/></g></g><g class="mark-group role-scope" role="graphics-object" aria-roledescription="group mark container"><g transform="translate(4.285714285714278,396.4552862113597)"><path class="background" aria-hidden="true" d="M1.7723568943201542,0L75.37050024853698,0C76.3486906472778,0,77.14285714285714,0.7941664955793366,77.14285714285714,1.7723568943201542L77.14285714285714,3.5447137886403084C77.14285714285714,3.5447137886403084,77.14285714285714,3.5447137886403084,77.14285714285714,3.5447137886403084L0,3.5447137886403084C0,3.5447137886403084,0,3.5447137886403084,0,3.5447137886403084L0,1.7723568943201542C0,0.7941664955793366,0.7941664955793366,0,1.7723568943201542,0Z"/><g clip-path="url(#clip1)"><g class="mark-group role-scope" role="graphics-object" aria-roledescription="group mark container"><g transform="translate(0,-396.4552862113597)"><path class="background" aria-hidden="true" d="M0,0h77.14285714285714v0h-77.14285714285714Z"/><g><g class="mark-rect role-mark layer_0_marks" role="graphics-object" aria-roledescription="rect mark container"><path aria-label="Libraries: toml_rs; Execution Time (seconds, lower=better): 0.0100829000003; parser: toml_rs; Execution Time (s): 0.0101" role="graphics-symbol" aria-roledescription="bar" d="M0,396.4552862113597h77.14285714285714v3.5447137886403084h-77.14285714285714Z" fill="rgb(40, 174, 128)"/></g></g><path class="foreground" aria-hidden="true" d="" display="none"/></g></g></g><path class="foreground" aria-hidden="true" d="" display="none"/></g><g transform="translate(89.99999999999999,393.8589325088523)"><path class="background" aria-hidden="true" d="M3.07053374557384,0L74.0723233972833,0C75.76699710468134,0,77.14285714285714,1.3758600381758006,77.14285714285714,3.07053374557384L77.14285714285714,6.14106749114768C77.14285714285714,6.14106749114768,77.14285714285714,6.14106749114768,77.14285714285714,6.14106749114768L0,6.14106749114768C0,6.14106749114768,0,6.14106749114768,0,6.14106749114768L0,3.07053374557384C0,1.3758600381758006,1.3758600381758006,0,3.07053374557384,0Z"/><g clip-path="url(#clip2)"><g class="mark-group role-scope" role="graphics-object" aria-roledescription="group mark container"><g transform="translate(0,-393.8589325088523)"><path class="background" aria-hidden="true" d="M0,0h77.14285714285714v0h-77.14285714285714Z"/><g><g class="mark-rect role-mark layer_0_marks" role="graphics-object" aria-roledescription="rect mark container"><path aria-label="Libraries: rtoml; Execution Time (seconds, lower=better): 0.0174682000015; parser: rtoml; Execution Time (s): 0.0175" role="graphics-symbol" aria-roledescription="bar" d="M0,393.8589325088523h77.14285714285714v6.14106749114768h-77.14285714285714Z" fill="rgb(44, 114, 142)"/></g></g><path class="foreground" aria-hidden="true" d="" display="none"/></g></g></g><path class="foreground" aria-hidden="true" d="" display="none"/></g><g transform="translate(175.7142857142857,390.637686290155)"><path class="background" aria-hidden="true" d="M4.681156854922506,0L72.46170028793463,0C75.04530108817944,0,77.14285714285714,2.0975560546776952,77.14285714285714,4.681156854922506L77.14285714285714,9.362313709845012C77.14285714285714,9.362313709845012,77.14285714285714,9.362313709845012,77.14285714285714,9.362313709845012L0,9.362313709845012C0,9.362313709845012,0,9.362313709845012,0,9.362313709845012L0,4.681156854922506C0,2.0975560546776952,2.0975560546776952,0,4.681156854922506,0Z"/><g clip-path="url(#clip3)"><g class="mark-group role-scope" role="graphics-object" aria-roledescription="group mark container"><g transform="translate(0,-390.637686290155)"><path class="background" aria-hidden="true" d="M0,0h77.14285714285714v0h-77.14285714285714Z"/><g><g class="mark-rect role-mark layer_0_marks" role="graphics-object" aria-roledescription="rect mark container"><path aria-label="Libraries: pytomlpp; Execution Time (seconds, lower=better): 0.0266310000006; parser: pytomlpp; Execution Time (s): 0.0266" role="graphics-symbol" aria-roledescription="bar" d="M0,390.637686290155h77.14285714285714v9.362313709845012h-77.14285714285714Z" fill="rgb(71, 45, 123)"/></g></g><path class="foreground" aria-hidden="true" d="" display="none"/></g></g></g><path class="foreground" aria-hidden="true" d="" display="none"/></g><g transform="translate(261.4285714285714,351.1054915510675)"><path class="background" aria-hidden="true" d="M6,0L71.14285714285714,0C74.45434728982114,0,77.14285714285714,2.688509853036,77.14285714285714,6L77.14285714285714,48.89450844893253C77.14285714285714,48.89450844893253,77.14285714285714,48.89450844893253,77.14285714285714,48.89450844893253L0,48.89450844893253C0,48.89450844893253,0,48.89450844893253,0,48.89450844893253L0,6C0,2.688509853036,2.688509853036,0,6,0Z"/><g clip-path="url(#clip4)"><g class="mark-group role-scope" role="graphics-object" aria-roledescription="group mark container"><g transform="translate(0,-351.1054915510675)"><path class="background" aria-hidden="true" d="M0,0h77.14285714285714v0h-77.14285714285714Z"/><g><g class="mark-rect role-mark layer_0_marks" role="graphics-object" aria-roledescription="rect mark container"><path aria-label="Libraries: tomllib; Execution Time (seconds, lower=better): 0.1390799; parser: tomllib; Execution Time (s): 0.1391" role="graphics-symbol" aria-roledescription="bar" d="M0,351.1054915510675h77.14285714285714v48.89450844893253h-77.14285714285714Z" fill="rgb(171, 220, 50)"/></g></g><path class="foreground" aria-hidden="true" d="" display="none"/></g></g></g><path class="foreground" aria-hidden="true" d="" display="none"/></g><g transform="translate(347.1428571428571,339.8328172581906)"><path class="background" aria-hidden="true" d="M6,0L71.14285714285714,0C74.45434728982114,0,77.14285714285714,2.688509853036,77.14285714285714,6L77.14285714285714,60.16718274180943C77.14285714285714,60.16718274180943,77.14285714285714,60.16718274180943,77.14285714285714,60.16718274180943L0,60.16718274180943C0,60.16718274180943,0,60.16718274180943,0,60.16718274180943L0,6C0,2.688509853036,2.688509853036,0,6,0Z"/><g clip-path="url(#clip5)"><g class="mark-group role-scope" role="graphics-object" aria-roledescription="group mark container"><g transform="translate(0,-339.8328172581906)"><path class="background" aria-hidden="true" d="M0,0h77.14285714285714v0h-77.14285714285714Z"/><g><g class="mark-rect role-mark layer_0_marks" role="graphics-object" aria-roledescription="rect mark container"><path aria-label="Libraries: qtoml; Execution Time (seconds, lower=better): 0.171144899999; parser: qtoml; Execution Time (s): 0.1711" role="graphics-symbol" aria-roledescription="bar" d="M0,339.8328172581906h77.14285714285714v60.16718274180943h-77.14285714285714Z" fill="rgb(59, 82, 139)"/></g></g><path class="foreground" aria-hidden="true" d="" display="none"/></g></g></g><path class="foreground" aria-hidden="true" d="" display="none"/></g><g transform="translate(432.85714285714283,287.41553217577956)"><path class="background" aria-hidden="true" d="M6,0L71.14285714285714,0C74.45434728982114,0,77.14285714285714,2.688509853036,77.14285714285714,6L77.14285714285714,112.58446782422044C77.14285714285714,112.58446782422044,77.14285714285714,112.58446782422044,77.14285714285714,112.58446782422044L0,112.58446782422044C0,112.58446782422044,0,112.58446782422044,0,112.58446782422044L0,6C0,2.688509853036,2.688509853036,0,6,0Z"/><g clip-path="url(#clip6)"><g class="mark-group role-scope" role="graphics-object" aria-roledescription="group mark container"><g transform="translate(0,-287.41553217577956)"><path class="background" aria-hidden="true" d="M0,0h77.14285714285714v0h-77.14285714285714Z"/><g><g class="mark-rect role-mark layer_0_marks" role="graphics-object" aria-roledescription="rect mark container"><path aria-label="Libraries: toml; Execution Time (seconds, lower=better): 0.320245299999; parser: toml; Execution Time (s): 0.3202" role="graphics-symbol" aria-roledescription="bar" d="M0,287.41553217577956h77.14285714285714v112.58446782422044h-77.14285714285714Z" fill="rgb(33, 145, 141)"/></g></g><path class="foreground" aria-hidden="true" d="" display="none"/></g></g></g><path class="foreground" aria-hidden="true" d="" display="none"/></g><g transform="translate(518.5714285714284,36.36363636363642)"><path class="background" aria-hidden="true" d="M6,0L71.14285714285714,0C74.45434728982114,0,77.14285714285714,2.688509853036,77.14285714285714,6L77.14285714285714,363.63636363636357C77.14285714285714,363.63636363636357,77.14285714285714,363.63636363636357,77.14285714285714,363.63636363636357L0,363.63636363636357C0,363.63636363636357,0,363.63636363636357,0,363.63636363636357L0,6C0,2.688509853036,2.688509853036,0,6,0Z"/><g clip-path="url(#clip7)"><g class="mark-group role-scope" role="graphics-object" aria-roledescription="group mark container"><g transform="translate(0,-36.36363636363642)"><path class="background" aria-hidden="true" d="M0,0h77.14285714285714v0h-77.14285714285714Z"/><g><g class="mark-rect role-mark layer_0_marks" role="graphics-object" aria-roledescription="rect mark container"><path aria-label="Libraries: tomlkit; Execution Time (seconds, lower=better): 1.0343597; parser: tomlkit; Execution Time (s): 1.0344" role="graphics-symbol" aria-roledescription="bar" d="M0,36.36363636363642h77.14285714285714v363.63636363636357h-77.14285714285714Z" fill="rgb(93, 201, 99)"/></g></g><path class="foreground" aria-hidden="true" d="" display="none"/></g></g></g><path class="foreground" aria-hidden="true" d="" display="none"/></g></g><g class="mark-text role-mark layer_1_marks" role="graphics-object" aria-roledescription="text mark container"><text aria-label="Libraries: toml_rs; Execution Time (seconds, lower=better): 0.0100829000003; parser: toml_rs; label: 0.0101 s; Execution Time (s): 0.0101" role="graphics-symbol" aria-roledescription="text mark" text-anchor="middle" transform="translate(42.85714285714285,388.4552862113597)" font-family="sans-serif" font-size="14px" fill="rgb(40, 174, 128)">0.0101 s</text><text aria-label="Libraries: rtoml; Execution Time (seconds, lower=better): 0.0174682000015; parser: rtoml; label: 0.0175 s; Execution Time (s): 0.0175" role="graphics-symbol" aria-roledescription="text mark" text-anchor="middle" transform="translate(128.57142857142856,385.8589325088523)" font-family="sans-serif" font-size="14px" fill="rgb(44, 114, 142)">0.0175 s</text><text aria-label="Libraries: pytomlpp; Execution Time (seconds, lower=better): 0.0266310000006; parser: pytomlpp; label: 0.0266 s; Execution Time (s): 0.0266" role="graphics-symbol" aria-roledescription="text mark" text-anchor="middle" transform="translate(214.28571428571428,382.637686290155)" font-family="sans-serif" font-size="14px" fill="rgb(71, 45, 123)">0.0266 s</text><text aria-label="Libraries: tomllib; Execution Time (seconds, lower=better): 0.1390799; parser: tomllib; label: 0.1391 s; Execution Time (s): 0.1391" role="graphics-symbol" aria-roledescription="text mark" text-anchor="middle" transform="translate(299.99999999999994,343.1054915510675)" font-family="sans-serif" font-size="14px" fill="rgb(171, 220, 50)">0.1391 s</text><text aria-label="Libraries: qtoml; Execution Time (seconds, lower=better): 0.171144899999; parser: qtoml; label: 0.1711 s; Execution Time (s): 0.1711" role="graphics-symbol" aria-roledescription="text mark" text-anchor="middle" transform="translate(385.71428571428567,331.8328172581906)" font-family="sans-serif" font-size="14px" fill="rgb(59, 82, 139)">0.1711 s</text><text aria-label="Libraries: toml; Execution Time (seconds, lower=better): 0.320245299999; parser: toml; label: 0.3202 s; Execution Time (s): 0.3202" role="graphics-symbol" aria-roledescription="text mark" text-anchor="middle" transform="translate(471.4285714285714,279.41553217577956)" font-family="sans-serif" font-size="14px" fill="rgb(33, 145, 141)">0.3202 s</text><text aria-label="Libraries: tomlkit; Execution Time (seconds, lower=better): 1.0343597; parser: tomlkit; label: 1.0344 s; Execution Time (s): 1.0344" role="graphics-symbol" aria-roledescription="text mark" text-anchor="middle" transform="translate(557.142857142857,28.363636363636417)" font-family="sans-serif" font-size="14px" fill="rgb(93, 201, 99)">1.0344 s</text></g><g class="mark-group role-title"><g transform="translate(300,-31)"><path class="background" aria-hidden="true" d="M0,0h0v0h0Z" pointer-events="none"/><g><g class="mark-text role-title-text" role="graphics-symbol" aria-roledescription="title" aria-label="Title text 'TOML parsers benchmark'" pointer-events="none"><text text-anchor="middle" transform="translate(0,10)" font-family="sans-serif" font-size="13px" font-weight="bold" fill="#000" opacity="1">TOML parsers benchmark</text></g><g class="mark-text role-title-subtitle" role="graphics-symbol" aria-roledescription="subtitle" aria-label="Subtitle text 'Python: 3.13.8 (Windows 10) | CPU: 11th Gen Intel(R) Core(TM) i5-11300H @ 3.10GHz'" pointer-events="none"><text text-anchor="middle" transform="translate(0,25)" font-family="sans-serif" font-size="12px" fill="#000" opacity="1">Python: 3.13.8 (Windows 10) | CPU: 11th Gen Intel(R) Core(TM) i5-11300H @ 3.10GHz</text></g></g><path class="foreground" aria-hidden="true" d="" pointer-events="none" display="none"/></g></g></g><path class="foreground" aria-hidden="true" d="" display="none"/></g></g></g><defs><clipPath id="clip1"><path d="M1.7723568943201542,0L75.37050024853698,0C76.3486906472778,0,77.14285714285714,0.7941664955793366,77.14285714285714,1.7723568943201542L77.14285714285714,3.5447137886403084C77.14285714285714,3.5447137886403084,77.14285714285714,3.5447137886403084,77.14285714285714,3.5447137886403084L0,3.5447137886403084C0,3.5447137886403084,0,3.5447137886403084,0,3.5447137886403084L0,1.7723568943201542C0,0.7941664955793366,0.7941664955793366,0,1.7723568943201542,0Z"/></clipPath><clipPath id="clip2"><path d="M3.07053374557384,0L74.0723233972833,0C75.76699710468134,0,77.14285714285714,1.3758600381758006,77.14285714285714,3.07053374557384L77.14285714285714,6.14106749114768C77.14285714285714,6.14106749114768,77.14285714285714,6.14106749114768,77.14285714285714,6.14106749114768L0,6.14106749114768C0,6.14106749114768,0,6.14106749114768,0,6.14106749114768L0,3.07053374557384C0,1.3758600381758006,1.3758600381758006,0,3.07053374557384,0Z"/></clipPath><clipPath id="clip3"><path d="M4.681156854922506,0L72.46170028793463,0C75.04530108817944,0,77.14285714285714,2.0975560546776952,77.14285714285714,4.681156854922506L77.14285714285714,9.362313709845012C77.14285714285714,9.362313709845012,77.14285714285714,9.362313709845012,77.14285714285714,9.362313709845012L0,9.362313709845012C0,9.362313709845012,0,9.362313709845012,0,9.362313709845012L0,4.681156854922506C0,2.0975560546776952,2.0975560546776952,0,4.681156854922506,0Z"/></clipPath><clipPath id="clip4"><path d="M6,0L71.14285714285714,0C74.45434728982114,0,77.14285714285714,2.688509853036,77.14285714285714,6L77.14285714285714,48.89450844893253C77.14285714285714,48.89450844893253,77.14285714285714,48.89450844893253,77.14285714285714,48.89450844893253L0,48.89450844893253C0,48.89450844893253,0,48.89450844893253,0,48.89450844893253L0,6C0,2.688509853036,2.688509853036,0,6,0Z"/></clipPath><clipPath id="clip5"><path d="M6,0L71.14285714285714,0C74.45434728982114,0,77.14285714285714,2.688509853036,77.14285714285714,6L77.14285714285714,60.16718274180943C77.14285714285714,60.16718274180943,77.14285714285714,60.16718274180943,77.14285714285714,60.16718274180943L0,60.16718274180943C0,60.16718274180943,0,60.16718274180943,0,60.16718274180943L0,6C0,2.688509853036,2.688509853036,0,6,0Z"/></clipPath><clipPath id="clip6"><path d="M6,0L71.14285714285714,0C74.45434728982114,0,77.14285714285714,2.688509853036,77.14285714285714,6L77.14285714285714,112.58446782422044C77.14285714285714,112.58446782422044,77.14285714285714,112.58446782422044,77.14285714285714,112.58446782422044L0,112.58446782422044C0,112.58446782422044,0,112.58446782422044,0,112.58446782422044L0,6C0,2.688509853036,2.688509853036,0,6,0Z"/></clipPath><clipPath id="clip7"><path d="M6,0L71.14285714285714,0C74.45434728982114,0,77.14285714285714,2.688509853036,77.14285714285714,6L77.14285714285714,363.63636363636357C77.14285714285714,363.63636363636357,77.14285714285714,363.63636363636357,77.14285714285714,363.63636363636357L0,363.63636363636357C0,363.63636363636357,0,363.63636363636357,0,363.63636363636357L0,6C0,2.688509853036,2.688509853036,0,6,0Z"/></clipPath></defs></svg>