<svg xmlns="http://www.w3.org/2000/svg" xmlns:xlink="http://www.w3.org/1999/xlink" version="1.1" class="marks" width="649" height="475" viewBox="0 0 649 475"><rect width="649" height="475" fill="white"/><g fill="none" stroke-miterlimit="10" transform="translate(44,38)"><g class="mark-group role-frame root" role="graphics-object" aria-roledescription="group mark container"><g transform="translate(0,0)"><path class="background" aria-hidden="true" d="M0.5,0.5h600v400h-600Z" stroke="#ddd"/><g><g class="mark-group role-axis" aria-hidden="true"><g transform="translate(0.5,0.5)"><path class="background" aria-hidden="true" d="M0,0h0v0h0Z" pointer-events="none"/><g><g class="mark-rule role-axis-grid" pointer-events="none"><line transform="translate(0,400)" x2="600" y2="0" stroke="#ddd" stroke-width="1" opacity="1"/><line transform="translate(0,364)" x2="600" y2="0" stroke="#ddd" stroke-width="1" opacity="1"/><line transform="translate(0,328)" x2="600" y2="0" stroke="#ddd" stroke-width="1" opacity="1"/><line transform="translate(0,292)" x2="600" y2="0" stroke="#ddd" stroke-width="1" opacity="1"/><line transform="translate(0,256)" x2="600" y2="0" stroke="#ddd" stroke-width="1" opacity="1"/><line transform="translate(0,220)" x2="600" y2="0" stroke="#ddd" stroke-width="1" opacity="1"/><line transform="translate(0,183)" x2="600" y2="0" stroke="#ddd" stroke-width="1" opacity="1"/><line transform="translate(0,147)" x2="600" y2="0" stroke="#ddd" stroke-width="1" opacity="1"/><line transform="translate(0,111)" x2="600" y2="0" stroke="#ddd" stroke-width="1" opacity="1"/><line transform="translate(0,75)" x2="600" y2="0" stroke="#ddd" stroke-width="1" opacity="1"/><line transform="translate(0,39)" x2="600" y2="0" stroke="#ddd" stroke-width="1" opacity="1"/><line transform="translate(0,3)" x2="600" y2="0" stroke="#ddd" stroke-width="1" opacity="1"/></g></g><path class="foreground" aria-hidden="true" d="" pointer-events="none" display="none"/></g></g><g class="mark-group role-axis" role="graphics-symbol" aria-roledescription="axis" aria-label="X-axis titled 'Libraries' for a discrete scale with 7 values: toml_rs (0.0.9), rtoml (0.13.0), pytomlpp (1.0.13), tomllib (built-in), toml (0.10.2), qtoml (0.3.1), tomlkit (0.13.3)"><g transform="translate(0.5,400.5)"><path class="background" aria-hidden="true" d="M0,0h0v0h0Z" pointer-events="none"/><g><g class="mark-rule role-axis-tick" pointer-events="none"><line transform="translate(42,0)" x2="0" y2="5" stroke="#888" stroke-width="1" opacity="1"/><line transform="translate(128,0)" x2="0" y2="5" stroke="#888" stroke-width="1" opacity="1"/><line transform="translate(214,0)" x2="0" y2="5" stroke="#888" stroke-width="1" opacity="1"/><line transform="translate(299,0)" x2="0" y2="5" stroke="#888" stroke-width="1" opacity="1"/><line transform="translate(385,0)" x2="0" y2="5" stroke="#888" stroke-width="1" opacity="1"/><line transform="translate(471,0)" x2="0" y2="5" stroke="#888" stroke-width="1" opacity="1"/><line transform="translate(557,0)" x2="0" y2="5" stroke="#888" stroke-width="1" opacity="1"/></g><g class="mark-text role-axis-label" pointer-events="none"><text text-anchor="middle" transform="translate(42.35714285714285,15)" font-family="sans-serif" font-size="10px" fill="#000" opacity="1">toml_rs (0.0.9)</text><text text-anchor="middle" transform="translate(128.07142857142856,15)" font-family="sans-serif" font-size="10px" fill="#000" opacity="1">rtoml (0.13.0)</text><text text-anchor="middle" transform="translate(213.78571428571428,15)" font-family="sans-serif" font-size="10px" fill="#000" opacity="1">pytomlpp (1.0.13)</text><text text-anchor="middle" transform="translate(299.49999999999994,15)" font-family="sans-serif" font-size="10px" fill="#000" opacity="1">tomllib (built-in)</text><text text-anchor="middle" transform="translate(385.21428571428567,15)" font-family="sans-serif" font-size="10px" fill="#000" opacity="1">toml (0.10.2)</text><text text-anchor="middle" transform="translate(470.9285714285714,15)" font-family="sans-serif" font-size="10px" fill="#000" opacity="1">qtoml (0.3.1)</text><text text-anchor="middle" transform="translate(556.642857142857,15)" font-family="sans-serif" font-size="10px" fill="#000" opacity="1">tomlkit (0.13.3)</text></g><g class="mark-rule role-axis-domain" pointer-events="none"><line transform="translate(0,0)" x2="600" y2="0" stroke="#888" stroke-width="1" opacity="1"/></g><g class="mark-text role-axis-title" pointer-events="none"><text text-anchor="middle" transform="translate(300,30)" font-family="sans-serif" font-size="11px" font-weight="bold" fill="#000" opacity="1">Libraries</text></g></g><path class="foreground" aria-hidden="true" d="" pointer-events="none" display="none"/></g></g><g class="mark-group role-axis" role="graphics-symbol" aria-roledescription="axis" aria-label="Y-axis titled 'Execution Time (seconds, lower=better)' for a linear scale with values from 0 to 111"><g transform="translate(0.5,0.5)"><path class="background" aria-hidden="true" d="M0,0h0v0h0Z" pointer-events="none"/><g><g class="mark-rule role-axis-tick" pointer-events="none"><line transform="translate(0,400)" x2="-5" y2="0" stroke="#888" stroke-width="1" opacity="1"/><line transform="translate(0,364)" x2="-5" y2="0" stroke="#888" stroke-width="1" opacity="1"/><line transform="translate(0,328)" x2="-5" y2="0" stroke="#888" stroke-width="1" opacity="1"/><line transform="translate(0,292)" x2="-5" y2="0" stroke="#888" stroke-width="1" opacity="1"/><line transform="translate(0,256)" x2="-5" y2="0" stroke="#888" stroke-width="1" opacity="1"/><line transform="translate(0,220)" x2="-5" y2="0" stroke="#888" stroke-width="1" opacity="1"/><line transform="translate(0,183)" x2="-5" y2="0" stroke="#888" stroke-width="1" opacity="1"/><line transform="translate(0,147)" x2="-5" y2="0" stroke="#888" stroke-width="1" opacity="1"/><line transform="translate(0,111)" x2="-5" y2="0" stroke="#888" stroke-width="1" opacity="1"/><line transform="translate(0,75)" x2="-5" y2="0" stroke="#888" stroke-width="1" opacity="1"/><line transform="translate(0,39)" x2="-5" y2="0" stroke="#888" stroke-width="1" opacity="1"/><line transform="translate(0,3)" x2="-5" y2="0" stroke="#888" stroke-width="1" opacity="1"/></g><g class="mark-text role-axis-label" pointer-events="none"><text text-anchor="end" transform="translate(-7,403)" font-family="sans-serif" font-size="10px" fill="#000" opacity="1">0</text><text text-anchor="end" transform="translate(-7,366.91121388263923)" font-family="sans-serif" font-size="10px" fill="#000" opacity="1">10</text><text text-anchor="end" transform="translate(-7,330.8224277652784)" font-family="sans-serif" font-size="10px" fill="#000" opacity="1">20</text><text text-anchor="end" transform="translate(-7,294.73364164791764)" font-family="sans-serif" font-size="10px" fill="#000" opacity="1">30</text><text text-anchor="end" transform="translate(-7,258.6448555305568)" font-family="sans-serif" font-size="10px" fill="#000" opacity="1">40</text><text text-anchor="end" transform="translate(-7,222.55606941319604)" font-family="sans-serif" font-size="10px" fill="#000" opacity="1">50</text><text text-anchor="end" transform="translate(-7,186.4672832958352)" font-family="sans-serif" font-size="10px" fill="#000" opacity="1">60</text><text text-anchor="end" transform="translate(-7,150.3784971784744)" font-family="sans-serif" font-size="10px" fill="#000" opacity="1">70</text><text text-anchor="end" transform="translate(-7,114.28971106111361)" font-family="sans-serif" font-size="10px" fill="#000" opacity="1">80</text><text text-anchor="end" transform="translate(-7,78.20092494375281)" font-family="sans-serif" font-size="10px" fill="#000" opacity="1">90</text><text text-anchor="end" transform="translate(-7,42.11213882639202)" font-family="sans-serif" font-size="10px" fill="#000" opacity="1">100</text><text text-anchor="end" transform="translate(-7,6.02335270903118)" font-family="sans-serif" font-size="10px" fill="#000" opacity="1">110</text></g><g class="mark-rule role-axis-domain" pointer-events="none"><line transform="translate(0,400)" x2="0" y2="-400" stroke="#888" stroke-width="1" opacity="1"/></g><g class="mark-text role-axis-title" pointer-events="none"><text text-anchor="middle" transform="translate(-27.6845703125,200) rotate(-90) translate(0,-2)" font-family="sans-serif" font-size="11px" font-weight="bold" fill="#000" opacity="1">Execution Time (seconds, lower=better)</text></g></g><path class="foreground" aria-hidden="true" d="" pointer-events="none" display="none"/></g></g><g class="mark-group role-scope" role="graphics-object" aria-roledescription="group mark container"><g transform="translate(4.285714285714278,397.4757543368429)"><path class="background" aria-hidden="true" d="M1.2621228315785515,0L75.88073431127859,0C76.5773188647837,0,77.14285714285714,0.5655382780734387,77.14285714285714,1.2621228315785515L77.14285714285714,2.524245663157103C77.14285714285714,2.524245663157103,77.14285714285714,2.524245663157103,77.14285714285714,2.524245663157103L0,2.524245663157103C0,2.524245663157103,0,2.524245663157103,0,2.524245663157103L0,1.2621228315785515C0,0.5655382780734387,0.5655382780734387,0,1.2621228315785515,0Z"/><g clip-path="url(#clip1)"><g class="mark-group role-scope" role="graphics-object" aria-roledescription="group mark container"><g transform="translate(0,-397.4757543368429)"><path class="background" aria-hidden="true" d="M0,0h77.14285714285714v0h-77.14285714285714Z"/><g><g class="mark-rect role-mark layer_0_marks" role="graphics-object" aria-roledescription="rect mark container"><path aria-label="Libraries: toml_rs (0.0.9); Execution Time (seconds, lower=better): 0.6994543; parser: toml_rs (0.0.9); Execution Time (s): 0.6995; Slowdown: 1.00" role="graphics-symbol" aria-roledescription="bar" d="M0,397.4757543368429h77.14285714285714v2.524245663157103h-77.14285714285714Z" fill="#66a61e"/></g></g><path class="foreground" aria-hidden="true" d="" display="none"/></g></g></g><path class="foreground" aria-hidden="true" d="" display="none"/></g><g transform="translate(89.99999999999999,395.3871367718095)"><path class="background" aria-hidden="true" d="M2.30643161409526,0L74.83642552876188,0C76.109379789549,0,77.14285714285714,1.0334773533081385,77.14285714285714,2.30643161409526L77.14285714285714,4.61286322819052C77.14285714285714,4.61286322819052,77.14285714285714,4.61286322819052,77.14285714285714,4.61286322819052L0,4.61286322819052C0,4.61286322819052,0,4.61286322819052,0,4.61286322819052L0,2.30643161409526C0,1.0334773533081385,1.0334773533081385,0,2.30643161409526,0Z"/><g clip-path="url(#clip2)"><g class="mark-group role-scope" role="graphics-object" aria-roledescription="group mark container"><g transform="translate(0,-395.3871367718095)"><path class="background" aria-hidden="true" d="M0,0h77.14285714285714v0h-77.14285714285714Z"/><g><g class="mark-rect role-mark layer_0_marks" role="graphics-object" aria-roledescription="rect mark container"><path aria-label="Libraries: rtoml (0.13.0); Execution Time (seconds, lower=better): 1.2781985; parser: rtoml (0.13.0); Execution Time (s): 1.2782; Slowdown: 1.83" role="graphics-symbol" aria-roledescription="bar" d="M0,395.3871367718095h77.14285714285714v4.61286322819052h-77.14285714285714Z" fill="#7570b3"/></g></g><path class="foreground" aria-hidden="true" d="" display="none"/></g></g></g><path class="foreground" aria-hidden="true" d="" display="none"/></g><g transform="translate(175.7142857142857,394.1541958740076)"><path class="background" aria-hidden="true" d="M2.922902062996201,0L74.21995507986094,0C75.83314864355305,0,77.14285714285714,1.3097084993040895,77.14285714285714,2.922902062996201L77.14285714285714,5.845804125992402C77.14285714285714,5.845804125992402,77.14285714285714,5.845804125992402,77.14285714285714,5.845804125992402L0,5.845804125992402C0,5.845804125992402,0,5.845804125992402,0,5.845804125992402L0,2.922902062996201C0,1.3097084993040895,1.3097084993040895,0,2.922902062996201,0Z"/><g clip-path="url(#clip3)"><g class="mark-group role-scope" role="graphics-object" aria-roledescription="group mark container"><g transform="translate(0,-394.1541958740076)"><path class="background" aria-hidden="true" d="M0,0h77.14285714285714v0h-77.14285714285714Z"/><g><g class="mark-rect role-mark layer_0_marks" role="graphics-object" aria-roledescription="rect mark container"><path aria-label="Libraries: pytomlpp (1.0.13); Execution Time (seconds, lower=better): 1.6198395; parser: pytomlpp (1.0.13); Execution Time (s): 1.6198; Slowdown: 2.32" role="graphics-symbol" aria-roledescription="bar" d="M0,394.1541958740076h77.14285714285714v5.845804125992402h-77.14285714285714Z" fill="#1b9e77"/></g></g><path class="foreground" aria-hidden="true" d="" display="none"/></g></g></g><path class="foreground" aria-hidden="true" d="" display="none"/></g><g transform="translate(261.4285714285714,378.6777509158125)"><path class="background" aria-hidden="true" d="M6,0L71.14285714285714,0C74.45434728982114,0,77.14285714285714,2.688509853036,77.14285714285714,6L77.14285714285714,21.32224908418749C77.14285714285714,21.32224908418749,77.14285714285714,21.32224908418749,77.14285714285714,21.32224908418749L0,21.32224908418749C0,21.32224908418749,0,21.32224908418749,0,21.32224908418749L0,6C0,2.688509853036,2.688509853036,0,6,0Z"/><g clip-path="url(#clip4)"><g class="mark-group role-scope" role="graphics-object" aria-roledescription="group mark container"><g transform="translate(0,-378.6777509158125)"><path class="background" aria-hidden="true" d="M0,0h77.14285714285714v0h-77.14285714285714Z"/><g><g class="mark-rect role-mark layer_0_marks" role="graphics-object" aria-roledescription="rect mark container"><path aria-label="Libraries: tomllib (built-in); Execution Time (seconds, lower=better): 5.9082755; parser: tomllib (built-in); Execution Time (s): 5.9083; Slowdown: 8.45" role="graphics-symbol" aria-roledescription="bar" d="M0,378.6777509158125h77.14285714285714v21.32224908418749h-77.14285714285714Z" fill="#a6761d"/></g></g><path class="foreground" aria-hidden="true" d="" display="none"/></g></g></g><path class="foreground" aria-hidden="true" d="" display="none"/></g><g transform="translate(347.1428571428571,348.75885885484996)"><path class="background" aria-hidden="true" d="M6,0L71.14285714285714,0C74.45434728982114,0,77.14285714285714,2.688509853036,77.14285714285714,6L77.14285714285714,51.24114114515004C77.14285714285714,51.24114114515004,77.14285714285714,51.24114114515004,77.14285714285714,51.24114114515004L0,51.24114114515004C0,51.24114114515004,0,51.24114114515004,0,51.24114114515004L0,6C0,2.688509853036,2.688509853036,0,6,0Z"/><g clip-path="url(#clip5)"><g class="mark-group role-scope" role="graphics-object" aria-roledescription="group mark container"><g transform="translate(0,-348.75885885484996)"><path class="background" aria-hidden="true" d="M0,0h77.14285714285714v0h-77.14285714285714Z"/><g><g class="mark-rect role-mark layer_0_marks" role="graphics-object" aria-roledescription="rect mark container"><path aria-label="Libraries: toml (0.10.2); Execution Time (seconds, lower=better): 14.1986325; parser: toml (0.10.2); Execution Time (s): 14.1986; Slowdown: 20.30" role="graphics-symbol" aria-roledescription="bar" d="M0,348.75885885484996h77.14285714285714v51.24114114515004h-77.14285714285714Z" fill="#e7298a"/></g></g><path class="foreground" aria-hidden="true" d="" display="none"/></g></g></g><path class="foreground" aria-hidden="true" d="" display="none"/></g><g transform="translate(432.85714285714283,345.8329045827586)"><path class="background" aria-hidden="true" d="M6,0L71.14285714285714,0C74.45434728982114,0,77.14285714285714,2.688509853036,77.14285714285714,6L77.14285714285714,54.1670954172414C77.14285714285714,54.1670954172414,77.14285714285714,54.1670954172414,77.14285714285714,54.1670954172414L0,54.1670954172414C0,54.1670954172414,0,54.1670954172414,0,54.1670954172414L0,6C0,2.688509853036,2.688509853036,0,6,0Z"/><g clip-path="url(#clip6)"><g class="mark-group role-scope" role="graphics-object" aria-roledescription="group mark container"><g transform="translate(0,-345.8329045827586)"><path class="background" aria-hidden="true" d="M0,0h77.14285714285714v0h-77.14285714285714Z"/><g><g class="mark-rect role-mark layer_0_marks" role="graphics-object" aria-roledescription="rect mark container"><path aria-label="Libraries: qtoml (0.3.1); Execution Time (seconds, lower=better): 15.009398; parser: qtoml (0.3.1); Execution Time (s): 15.0094; Slowdown: 21.46" role="graphics-symbol" aria-roledescription="bar" d="M0,345.8329045827586h77.14285714285714v54.1670954172414h-77.14285714285714Z" fill="#d95f02"/></g></g><path class="foreground" aria-hidden="true" d="" display="none"/></g></g></g><path class="foreground" aria-hidden="true" d="" display="none"/></g><g transform="translate(518.5714285714284,36.363636363636374)"><path class="background" aria-hidden="true" d="M6,0L71.14285714285714,0C74.45434728982114,0,77.14285714285714,2.688509853036,77.14285714285714,6L77.14285714285714,363.6363636363636C77.14285714285714,363.6363636363636,77.14285714285714,363.6363636363636,77.14285714285714,363.6363636363636L0,363.6363636363636C0,363.6363636363636,0,363.6363636363636,0,363.6363636363636L0,6C0,2.688509853036,2.688509853036,0,6,0Z"/><g clip-path="url(#clip7)"><g class="mark-group role-scope" role="graphics-object" aria-roledescription="group mark container"><g transform="translate(0,-36.363636363636374)"><path class="background" aria-hidden="true" d="M0,0h77.14285714285714v0h-77.14285714285714Z"/><g><g class="mark-rect role-mark layer_0_marks" role="graphics-object" aria-roledescription="rect mark container"><path aria-label="Libraries: tomlkit (0.13.3); Execution Time (seconds, lower=better): 100.7615946; parser: tomlkit (0.13.3); Execution Time (s): 100.7616; Slowdown: 144.06" role="graphics-symbol" aria-roledescription="bar" d="M0,36.363636363636374h77.14285714285714v363.6363636363636h-77.14285714285714Z" fill="#e6ab02"/></g></g><path class="foreground" aria-hidden="true" d="" display="none"/></g></g></g><path class="foreground" aria-hidden="true" d="" display="none"/></g></g><g class="mark-text role-mark layer_1_marks" role="graphics-object" aria-roledescription="text mark container"><text aria-label="Libraries: toml_rs (0.0.9); Execution Time (seconds, lower=better): 0.6994543; parser: toml_rs (0.0.9); label: 0.6995s (x1.00); Execution Time (s): 0.6995; Slowdown: 1.00" role="graphics-symbol" aria-roledescription="text mark" text-anchor="middle" transform="translate(42.85714285714285,393.4757543368429)" font-family="sans-serif" font-size="9px" font-weight="bold" fill="#66a61e">0.6995s (x1.00)</text><text aria-label="Libraries: rtoml (0.13.0); Execution Time (seconds, lower=better): 1.2781985; parser: rtoml (0.13.0); label: 1.2782s (x1.83); Execution Time (s): 1.2782; Slowdown: 1.83" role="graphics-symbol" aria-roledescription="text mark" text-anchor="middle" transform="translate(128.57142857142856,391.3871367718095)" font-family="sans-serif" font-size="9px" font-weight="bold" fill="#7570b3">1.2782s (x1.83)</text><text aria-label="Libraries: pytomlpp (1.0.13); Execution Time (seconds, lower=better): 1.6198395; parser: pytomlpp (1.0.13); label: 1.6198s (x2.32); Execution Time (s): 1.6198; Slowdown: 2.32" role="graphics-symbol" aria-roledescription="text mark" text-anchor="middle" transform="translate(214.28571428571428,390.1541958740076)" font-family="sans-serif" font-size="9px" font-weight="bold" fill="#1b9e77">1.6198s (x2.32)</text><text aria-label="Libraries: tomllib (built-in); Execution Time (seconds, lower=better): 5.9082755; parser: tomllib (built-in); label: 5.9083s (x8.45); Execution Time (s): 5.9083; Slowdown: 8.45" role="graphics-symbol" aria-roledescription="text mark" text-anchor="middle" transform="translate(299.99999999999994,374.6777509158125)" font-family="sans-serif" font-size="9px" font-weight="bold" fill="#a6761d">5.9083s (x8.45)</text><text aria-label="Libraries: toml (0.10.2); Execution Time (seconds, lower=better): 14.1986325; parser: toml (0.10.2); label: 14.1986s (x20.30); Execution Time (s): 14.1986; Slowdown: 20.30" role="graphics-symbol" aria-roledescription="text mark" text-anchor="middle" transform="translate(385.71428571428567,344.75885885484996)" font-family="sans-serif" font-size="9px" font-weight="bold" fill="#e7298a">14.1986s (x20.30)</text><text aria-label="Libraries: qtoml (0.3.1); Execution Time (seconds, lower=better): 15.009398; parser: qtoml (0.3.1); label: 15.0094s (x21.46); Execution Time (s): 15.0094; Slowdown: 21.46" role="graphics-symbol" aria-roledescription="text mark" text-anchor="middle" transform="translate(471.4285714285714,341.8329045827586)" font-family="sans-serif" font-size="9px" font-weight="bold" fill="#d95f02">15.0094s (x21.46)</text><text aria-label="Libraries: tomlkit (0.13.3); Execution Time (seconds, lower=better): 100.7615946; parser: tomlkit (0.13.3); label: 100.7616s (x144.06); Execution Time (s): 100.7616; Slowdown: 144.06" role="graphics-symbol" aria-roledescription="text mark" text-anchor="middle" transform="translate(557.142857142857,32.363636363636374)" font-family="sans-serif" font-size="9px" font-weight="bold" fill="#e6ab02">100.7616s (x144.06)</text></g><g class="mark-group role-title"><g transform="translate(300,-32.97664729096882)"><path class="background" aria-hidden="true" d="M0,0h0v0h0Z" pointer-events="none"/><g><g class="mark-text role-title-text" role="graphics-symbol" aria-roledescription="title" aria-label="Title text 'TOML parsers benchmark'" pointer-events="none"><text text-anchor="middle" transform="translate(0,10)" font-family="sans-serif" font-size="13px" font-weight="bold" fill="#000" opacity="1">TOML parsers benchmark</text></g><g class="mark-text role-title-subtitle" role="graphics-symbol" aria-roledescription="subtitle" aria-label="Subtitle text 'Python: 3.13.8 (Windows 10) | CPU: 11th Gen Intel(R) Core(TM) i5-11300H @ 3.10GHz'" pointer-events="none"><text text-anchor="middle" transform="translate(0,25)" font-family="sans-serif" font-size="12px" fill="#000" opacity="1">Python: 3.13.8 (Windows 10) | CPU: 11th Gen Intel(R) Core(TM) i5-11300H @ 3.10GHz</text></g></g><path class="foreground" aria-hidden="true" d="" pointer-events="none" display="none"/></g></g></g><path class="foreground" aria-hidden="true" d="" display="none"/></g></g></g><defs><clipPath id="clip1"><path d="M1.2621228315785515,0L75.88073431127859,0C76.5773188647837,0,77.14285714285714,0.5655382780734387,77.14285714285714,1.2621228315785515L77.14285714285714,2.524245663157103C77.14285714285714,2.524245663157103,77.14285714285714,2.524245663157103,77.14285714285714,2.524245663157103L0,2.524245663157103C0,2.524245663157103,0,2.524245663157103,0,2.524245663157103L0,1.2621228315785515C0,0.5655382780734387,0.5655382780734387,0,1.2621228315785515,0Z"/></clipPath><clipPath id="clip2"><path d="M2.30643161409526,0L74.83642552876188,0C76.109379789549,0,77.14285714285714,1.0334773533081385,77.14285714285714,2.30643161409526L77.14285714285714,4.61286322819052C77.14285714285714,4.61286322819052,77.14285714285714,4.61286322819052,77.14285714285714,4.61286322819052L0,4.61286322819052C0,4.61286322819052,0,4.61286322819052,0,4.61286322819052L0,2.30643161409526C0,1.0334773533081385,1.0334773533081385,0,2.30643161409526,0Z"/></clipPath><clipPath id="clip3"><path d="M2.922902062996201,0L74.21995507986094,0C75.83314864355305,0,77.14285714285714,1.3097084993040895,77.14285714285714,2.922902062996201L77.14285714285714,5.845804125992402C77.14285714285714,5.845804125992402,77.14285714285714,5.845804125992402,77.14285714285714,5.845804125992402L0,5.845804125992402C0,5.845804125992402,0,5.845804125992402,0,5.845804125992402L0,2.922902062996201C0,1.3097084993040895,1.3097084993040895,0,2.922902062996201,0Z"/></clipPath><clipPath id="clip4"><path d="M6,0L71.14285714285714,0C74.45434728982114,0,77.14285714285714,2.688509853036,77.14285714285714,6L77.14285714285714,21.32224908418749C77.14285714285714,21.32224908418749,77.14285714285714,21.32224908418749,77.14285714285714,21.32224908418749L0,21.32224908418749C0,21.32224908418749,0,21.32224908418749,0,21.32224908418749L0,6C0,2.688509853036,2.688509853036,0,6,0Z"/></clipPath><clipPath id="clip5"><path d="M6,0L71.14285714285714,0C74.45434728982114,0,77.14285714285714,2.688509853036,77.14285714285714,6L77.14285714285714,51.24114114515004C77.14285714285714,51.24114114515004,77.14285714285714,51.24114114515004,77.14285714285714,51.24114114515004L0,51.24114114515004C0,51.24114114515004,0,51.24114114515004,0,51.24114114515004L0,6C0,2.688509853036,2.688509853036,0,6,0Z"/></clipPath><clipPath id="clip6"><path d="M6,0L71.14285714285714,0C74.45434728982114,0,77.14285714285714,2.688509853036,77.14285714285714,6L77.14285714285714,54.1670954172414C77.14285714285714,54.1670954172414,77.14285714285714,54.1670954172414,77.14285714285714,54.1670954172414L0,54.1670954172414C0,54.1670954172414,0,54.1670954172414,0,54.1670954172414L0,6C0,2.688509853036,2.688509853036,0,6,0Z"/></clipPath><clipPath id="clip7"><path d="M6,0L71.14285714285714,0C74.45434728982114,0,77.14285714285714,2.688509853036,77.14285714285714,6L77.14285714285714,363.6363636363636C77.14285714285714,363.6363636363636,77.14285714285714,363.6363636363636,77.14285714285714,363.6363636363636L0,363.6363636363636C0,363.6363636363636,0,363.6363636363636,0,363.6363636363636L0,6C0,2.688509853036,2.688509853036,0,6,0Z"/></clipPath></defs></svg>