<svg xmlns="http://www.w3.org/2000/svg" xmlns:xlink="http://www.w3.org/1999/xlink" version="1.1" class="marks" width="852" height="687" viewBox="0 0 852 687"><rect width="852" height="687" fill="white"/><g fill="none" stroke-miterlimit="10" transform="translate(47,36)"><g class="mark-group role-frame root" role="graphics-object" aria-roledescription="group mark container"><g transform="translate(0,0)"><path class="background" aria-hidden="true" d="M0.5,0.5h800v600h-800Z" stroke="#ddd"/><g><g class="mark-group role-axis" role="graphics-symbol" aria-roledescription="axis" aria-label="X-axis titled 'Parser' for a discrete scale with 7 values: toml_rs&#xA;0.3.2, rtoml&#xA;0.13.0, pytomlpp&#xA;1.1.0, tomli-w&#xA;1.2.0, toml&#xA;0.10.2, qtoml&#xA;0.3.1, tomlkit&#xA;0.14.0"><g transform="translate(0.5,600.5)"><path class="background" aria-hidden="true" d="M0,0h0v0h0Z" pointer-events="none"/><g><g class="mark-rule role-axis-tick" pointer-events="none"><line transform="translate(57,0)" x2="0" y2="5" stroke="#888" stroke-width="1" opacity="1"/><line transform="translate(171,0)" x2="0" y2="5" stroke="#888" stroke-width="1" opacity="1"/><line transform="translate(285,0)" x2="0" y2="5" stroke="#888" stroke-width="1" opacity="1"/><line transform="translate(400,0)" x2="0" y2="5" stroke="#888" stroke-width="1" opacity="1"/><line transform="translate(514,0)" x2="0" y2="5" stroke="#888" stroke-width="1" opacity="1"/><line transform="translate(628,0)" x2="0" y2="5" stroke="#888" stroke-width="1" opacity="1"/><line transform="translate(742,0)" x2="0" y2="5" stroke="#888" stroke-width="1" opacity="1"/></g><g class="mark-text role-axis-label" pointer-events="none"><text text-anchor="middle" transform="translate(56.642857142857096,15)" font-family="sans-serif" font-size="10px" fill="#000" opacity="1"><tspan>toml_rs</tspan><tspan x="0" dy="14">0.3.2</tspan></text><text text-anchor="middle" transform="translate(170.9285714285714,15)" font-family="sans-serif" font-size="10px" fill="#000" opacity="1"><tspan>rtoml</tspan><tspan x="0" dy="14">0.13.0</tspan></text><text text-anchor="middle" transform="translate(285.21428571428567,15)" font-family="sans-serif" font-size="10px" fill="#000" opacity="1"><tspan>pytomlpp</tspan><tspan x="0" dy="14">1.1.0</tspan></text><text text-anchor="middle" transform="translate(399.5,15)" font-family="sans-serif" font-size="10px" fill="#000" opacity="1"><tspan>tomli-w</tspan><tspan x="0" dy="14">1.2.0</tspan></text><text text-anchor="middle" transform="translate(513.7857142857142,15)" font-family="sans-serif" font-size="10px" fill="#000" opacity="1"><tspan>toml</tspan><tspan x="0" dy="14">0.10.2</tspan></text><text text-anchor="middle" transform="translate(628.0714285714286,15)" font-family="sans-serif" font-size="10px" fill="#000" opacity="1"><tspan>qtoml</tspan><tspan x="0" dy="14">0.3.1</tspan></text><text text-anchor="middle" transform="translate(742.3571428571429,15)" font-family="sans-serif" font-size="10px" fill="#000" opacity="1"><tspan>tomlkit</tspan><tspan x="0" dy="14">0.14.0</tspan></text></g><g class="mark-rule role-axis-domain" pointer-events="none"><line transform="translate(0,0)" x2="800" y2="0" stroke="#888" stroke-width="1" opacity="1"/></g><g class="mark-text role-axis-title" pointer-events="none"><text text-anchor="middle" transform="translate(400,44)" font-family="sans-serif" font-size="11px" font-weight="bold" fill="#000" opacity="1">Parser</text></g></g><path class="foreground" aria-hidden="true" d="" pointer-events="none" display="none"/></g></g><g class="mark-group role-axis" role="graphics-symbol" aria-roledescription="axis" aria-label="Y-axis titled 'Execution Time (seconds, lower=better)' for a linear scale with values from 0.00 to 0.26"><g transform="translate(0.5,0.5)"><path class="background" aria-hidden="true" d="M0,0h0v0h0Z" pointer-events="none"/><g><g class="mark-rule role-axis-tick" pointer-events="none"><line transform="translate(0,600)" x2="-5" y2="0" stroke="#888" stroke-width="1" opacity="1"/><line transform="translate(0,553)" x2="-5" y2="0" stroke="#888" stroke-width="1" opacity="1"/><line transform="translate(0,507)" x2="-5" y2="0" stroke="#888" stroke-width="1" opacity="1"/><line transform="translate(0,460)" x2="-5" y2="0" stroke="#888" stroke-width="1" opacity="1"/><line transform="translate(0,413)" x2="-5" y2="0" stroke="#888" stroke-width="1" opacity="1"/><line transform="translate(0,367)" x2="-5" y2="0" stroke="#888" stroke-width="1" opacity="1"/><line transform="translate(0,320)" x2="-5" y2="0" stroke="#888" stroke-width="1" opacity="1"/><line transform="translate(0,273)" x2="-5" y2="0" stroke="#888" stroke-width="1" opacity="1"/><line transform="translate(0,227)" x2="-5" y2="0" stroke="#888" stroke-width="1" opacity="1"/><line transform="translate(0,180)" x2="-5" y2="0" stroke="#888" stroke-width="1" opacity="1"/><line transform="translate(0,133)" x2="-5" y2="0" stroke="#888" stroke-width="1" opacity="1"/><line transform="translate(0,87)" x2="-5" y2="0" stroke="#888" stroke-width="1" opacity="1"/><line transform="translate(0,40)" x2="-5" y2="0" stroke="#888" stroke-width="1" opacity="1"/></g><g class="mark-text role-axis-label" pointer-events="none"><text text-anchor="end" transform="translate(-7,603)" font-family="sans-serif" font-size="10px" fill="#000" opacity="1">0.00</text><text text-anchor="end" transform="translate(-7,556.342967077287)" font-family="sans-serif" font-size="10px" fill="#000" opacity="1">0.02</text><text text-anchor="end" transform="translate(-7,509.6859341545739)" font-family="sans-serif" font-size="10px" fill="#000" opacity="1">0.04</text><text text-anchor="end" transform="translate(-7,463.02890123186074)" font-family="sans-serif" font-size="10px" fill="#000" opacity="1">0.06</text><text text-anchor="end" transform="translate(-7,416.3718683091477)" font-family="sans-serif" font-size="10px" fill="#000" opacity="1">0.08</text><text text-anchor="end" transform="translate(-7,369.71483538643463)" font-family="sans-serif" font-size="10px" fill="#000" opacity="1">0.10</text><text text-anchor="end" transform="translate(-7,323.0578024637215)" font-family="sans-serif" font-size="10px" fill="#000" opacity="1">0.12</text><text text-anchor="end" transform="translate(-7,276.40076954100846)" font-family="sans-serif" font-size="10px" fill="#000" opacity="1">0.14</text><text text-anchor="end" transform="translate(-7,229.7437366182954)" font-family="sans-serif" font-size="10px" fill="#000" opacity="1">0.16</text><text text-anchor="end" transform="translate(-7,183.08670369558232)" font-family="sans-serif" font-size="10px" fill="#000" opacity="1">0.18</text><text text-anchor="end" transform="translate(-7,136.4296707728692)" font-family="sans-serif" font-size="10px" fill="#000" opacity="1">0.20</text><text text-anchor="end" transform="translate(-7,89.77263785015614)" font-family="sans-serif" font-size="10px" fill="#000" opacity="1">0.22</text><text text-anchor="end" transform="translate(-7,43.11560492744308)" font-family="sans-serif" font-size="10px" fill="#000" opacity="1">0.24</text></g><g class="mark-rule role-axis-domain" pointer-events="none"><line transform="translate(0,600)" x2="0" y2="-600" stroke="#888" stroke-width="1" opacity="1"/></g><g class="mark-text role-axis-title" pointer-events="none"><text text-anchor="middle" transform="translate(-30.462890625,300) rotate(-90) translate(0,-2)" font-family="sans-serif" font-size="11px" font-weight="bold" fill="#000" opacity="1">Execution Time (seconds, lower=better)</text></g></g><path class="foreground" aria-hidden="true" d="" pointer-events="none" display="none"/></g></g><g class="mark-group role-scope" role="graphics-object" aria-roledescription="group mark container"><g transform="translate(5.714285714285666,590.9940262180336)"><path class="background" aria-hidden="true" d="M4.502986890983209,0L98.35415596615965,0C100.83942208639282,0,102.85714285714286,2.01772077075005,102.85714285714286,4.502986890983209L102.85714285714286,9.005973781966418C102.85714285714286,9.005973781966418,102.85714285714286,9.005973781966418,102.85714285714286,9.005973781966418L0,9.005973781966418C0,9.005973781966418,0,9.005973781966418,0,9.005973781966418L0,4.502986890983209C0,2.01772077075005,2.01772077075005,0,4.502986890983209,0Z"/><g clip-path="url(#clip8)"><g class="mark-group role-scope" role="graphics-object" aria-roledescription="group mark container"><g transform="translate(0,-590.9940262180336)"><path class="background" aria-hidden="true" d="M0,0h102.85714285714286v0h-102.85714285714286Z"/><g><g class="mark-rect role-mark layer_0_marks" role="graphics-object" aria-roledescription="rect mark container"><path aria-label="Parser: toml_rs&#xA;0.3.2; Execution Time (seconds, lower=better): 0.00386050000088; parser: toml_rs; Execution Time (s): 0.0039; Slowdown: 1.00" role="graphics-symbol" aria-roledescription="bar" d="M0,590.9940262180336h102.85714285714286v9.005973781966418h-102.85714285714286Z" fill="#66a61e"/></g></g><path class="foreground" aria-hidden="true" d="" display="none"/></g></g></g><path class="foreground" aria-hidden="true" d="" display="none"/></g><g transform="translate(119.99999999999996,590.2652433648783)"><path class="background" aria-hidden="true" d="M4.867378317560849,0L97.98976453958201,0C100.67614376294017,0,102.85714285714286,2.1809990942026887,102.85714285714286,4.867378317560849L102.85714285714286,9.734756635121698C102.85714285714286,9.734756635121698,102.85714285714286,9.734756635121698,102.85714285714286,9.734756635121698L0,9.734756635121698C0,9.734756635121698,0,9.734756635121698,0,9.734756635121698L0,4.867378317560849C0,2.1809990942026887,2.1809990942026887,0,4.867378317560849,0Z"/><g clip-path="url(#clip9)"><g class="mark-group role-scope" role="graphics-object" aria-roledescription="group mark container"><g transform="translate(0,-590.2652433648783)"><path class="background" aria-hidden="true" d="M0,0h102.85714285714286v0h-102.85714285714286Z"/><g><g class="mark-rect role-mark layer_0_marks" role="graphics-object" aria-roledescription="rect mark container"><path aria-label="Parser: rtoml&#xA;0.13.0; Execution Time (seconds, lower=better): 0.00417290000041; parser: rtoml; Execution Time (s): 0.0042; Slowdown: 1.08" role="graphics-symbol" aria-roledescription="bar" d="M0,590.2652433648783h102.85714285714286v9.734756635121698h-102.85714285714286Z" fill="#7570b3"/></g></g><path class="foreground" aria-hidden="true" d="" display="none"/></g></g></g><path class="foreground" aria-hidden="true" d="" display="none"/></g><g transform="translate(234.28571428571425,585.2346820796837)"><path class="background" aria-hidden="true" d="M6,0L96.85714285714286,0C100.16863300410687,0,102.85714285714286,2.688509853036,102.85714285714286,6L102.85714285714286,14.765317920316306C102.85714285714286,14.765317920316306,102.85714285714286,14.765317920316306,102.85714285714286,14.765317920316306L0,14.765317920316306C0,14.765317920316306,0,14.765317920316306,0,14.765317920316306L0,6C0,2.688509853036,2.688509853036,0,6,0Z"/><g clip-path="url(#clip10)"><g class="mark-group role-scope" role="graphics-object" aria-roledescription="group mark container"><g transform="translate(0,-585.2346820796837)"><path class="background" aria-hidden="true" d="M0,0h102.85714285714286v0h-102.85714285714286Z"/><g><g class="mark-rect role-mark layer_0_marks" role="graphics-object" aria-roledescription="rect mark container"><path aria-label="Parser: pytomlpp&#xA;1.1.0; Execution Time (seconds, lower=better): 0.00632929999847; parser: pytomlpp; Execution Time (s): 0.0063; Slowdown: 1.64" role="graphics-symbol" aria-roledescription="bar" d="M0,585.2346820796837h102.85714285714286v14.765317920316306h-102.85714285714286Z" fill="#1b9e77"/></g></g><path class="foreground" aria-hidden="true" d="" display="none"/></g></g></g><path class="foreground" aria-hidden="true" d="" display="none"/></g><g transform="translate(348.57142857142856,569.5660839983234)"><path class="background" aria-hidden="true" d="M6,0L96.85714285714286,0C100.16863300410687,0,102.85714285714286,2.688509853036,102.85714285714286,6L102.85714285714286,30.433916001676607C102.85714285714286,30.433916001676607,102.85714285714286,30.433916001676607,102.85714285714286,30.433916001676607L0,30.433916001676607C0,30.433916001676607,0,30.433916001676607,0,30.433916001676607L0,6C0,2.688509853036,2.688509853036,0,6,0Z"/><g clip-path="url(#clip11)"><g class="mark-group role-scope" role="graphics-object" aria-roledescription="group mark container"><g transform="translate(0,-569.5660839983234)"><path class="background" aria-hidden="true" d="M0,0h102.85714285714286v0h-102.85714285714286Z"/><g><g class="mark-rect role-mark layer_0_marks" role="graphics-object" aria-roledescription="rect mark container"><path aria-label="Parser: tomli-w&#xA;1.2.0; Execution Time (seconds, lower=better): 0.0130457999985; parser: tomli-w; Execution Time (s): 0.0130; Slowdown: 3.38" role="graphics-symbol" aria-roledescription="bar" d="M0,569.5660839983234h102.85714285714286v30.433916001676607h-102.85714285714286Z" fill="#e6ab02"/></g></g><path class="foreground" aria-hidden="true" d="" display="none"/></g></g></g><path class="foreground" aria-hidden="true" d="" display="none"/></g><g transform="translate(462.85714285714283,562.3981640293557)"><path class="background" aria-hidden="true" d="M6,0L96.85714285714286,0C100.16863300410687,0,102.85714285714286,2.688509853036,102.85714285714286,6L102.85714285714286,37.60183597064429C102.85714285714286,37.60183597064429,102.85714285714286,37.60183597064429,102.85714285714286,37.60183597064429L0,37.60183597064429C0,37.60183597064429,0,37.60183597064429,0,37.60183597064429L0,6C0,2.688509853036,2.688509853036,0,6,0Z"/><g clip-path="url(#clip12)"><g class="mark-group role-scope" role="graphics-object" aria-roledescription="group mark container"><g transform="translate(0,-562.3981640293557)"><path class="background" aria-hidden="true" d="M0,0h102.85714285714286v0h-102.85714285714286Z"/><g><g class="mark-rect role-mark layer_0_marks" role="graphics-object" aria-roledescription="rect mark container"><path aria-label="Parser: toml&#xA;0.10.2; Execution Time (seconds, lower=better): 0.016118399999; parser: toml; Execution Time (s): 0.0161; Slowdown: 4.18" role="graphics-symbol" aria-roledescription="bar" d="M0,562.3981640293557h102.85714285714286v37.60183597064429h-102.85714285714286Z" fill="#e7298a"/></g></g><path class="foreground" aria-hidden="true" d="" display="none"/></g></g></g><path class="foreground" aria-hidden="true" d="" display="none"/></g><g transform="translate(577.1428571428571,526.7785520979322)"><path class="background" aria-hidden="true" d="M6,0L96.85714285714286,0C100.16863300410687,0,102.85714285714286,2.688509853036,102.85714285714286,6L102.85714285714286,73.22144790206778C102.85714285714286,73.22144790206778,102.85714285714286,73.22144790206778,102.85714285714286,73.22144790206778L0,73.22144790206778C0,73.22144790206778,0,73.22144790206778,0,73.22144790206778L0,6C0,2.688509853036,2.688509853036,0,6,0Z"/><g clip-path="url(#clip13)"><g class="mark-group role-scope" role="graphics-object" aria-roledescription="group mark container"><g transform="translate(0,-526.7785520979322)"><path class="background" aria-hidden="true" d="M0,0h102.85714285714286v0h-102.85714285714286Z"/><g><g class="mark-rect role-mark layer_0_marks" role="graphics-object" aria-roledescription="rect mark container"><path aria-label="Parser: qtoml&#xA;0.3.1; Execution Time (seconds, lower=better): 0.0313870999998; parser: qtoml; Execution Time (s): 0.0314; Slowdown: 8.13" role="graphics-symbol" aria-roledescription="bar" d="M0,526.7785520979322h102.85714285714286v73.22144790206778h-102.85714285714286Z" fill="#d95f02"/></g></g><path class="foreground" aria-hidden="true" d="" display="none"/></g></g></g><path class="foreground" aria-hidden="true" d="" display="none"/></g><g transform="translate(691.4285714285714,23.076923076923062)"><path class="background" aria-hidden="true" d="M6,0L96.85714285714286,0C100.16863300410687,0,102.85714285714286,2.688509853036,102.85714285714286,6L102.85714285714286,576.9230769230769C102.85714285714286,576.9230769230769,102.85714285714286,576.9230769230769,102.85714285714286,576.9230769230769L0,576.9230769230769C0,576.9230769230769,0,576.9230769230769,0,576.9230769230769L0,6C0,2.688509853036,2.688509853036,0,6,0Z"/><g clip-path="url(#clip14)"><g class="mark-group role-scope" role="graphics-object" aria-roledescription="group mark container"><g transform="translate(0,-23.076923076923062)"><path class="background" aria-hidden="true" d="M0,0h102.85714285714286v0h-102.85714285714286Z"/><g><g class="mark-rect role-mark layer_0_marks" role="graphics-object" aria-roledescription="rect mark container"><path aria-label="Parser: tomlkit&#xA;0.14.0; Execution Time (seconds, lower=better): 0.247303799999; parser: tomlkit; Execution Time (s): 0.2473; Slowdown: 64.06" role="graphics-symbol" aria-roledescription="bar" d="M0,23.076923076923062h102.85714285714286v576.9230769230769h-102.85714285714286Z" fill="#a6761d"/></g></g><path class="foreground" aria-hidden="true" d="" display="none"/></g></g></g><path class="foreground" aria-hidden="true" d="" display="none"/></g></g><g class="mark-text role-mark layer_1_marks" role="graphics-object" aria-roledescription="text mark container"><text aria-label="Parser: toml_rs&#xA;0.3.2; Execution Time (seconds, lower=better): 0.00386050000088; parser: toml_rs; label: 0.0039s (x1.00); Execution Time (s): 0.0039; Slowdown: 1.00" role="graphics-symbol" aria-roledescription="text mark" text-anchor="middle" transform="translate(57.142857142857096,586.9940262180336)" font-family="sans-serif" font-size="9px" font-weight="bold" fill="#66a61e">0.0039s (x1.00)</text><text aria-label="Parser: rtoml&#xA;0.13.0; Execution Time (seconds, lower=better): 0.00417290000041; parser: rtoml; label: 0.0042s (x1.08); Execution Time (s): 0.0042; Slowdown: 1.08" role="graphics-symbol" aria-roledescription="text mark" text-anchor="middle" transform="translate(171.4285714285714,586.2652433648783)" font-family="sans-serif" font-size="9px" font-weight="bold" fill="#7570b3">0.0042s (x1.08)</text><text aria-label="Parser: pytomlpp&#xA;1.1.0; Execution Time (seconds, lower=better): 0.00632929999847; parser: pytomlpp; label: 0.0063s (x1.64); Execution Time (s): 0.0063; Slowdown: 1.64" role="graphics-symbol" aria-roledescription="text mark" text-anchor="middle" transform="translate(285.71428571428567,581.2346820796837)" font-family="sans-serif" font-size="9px" font-weight="bold" fill="#1b9e77">0.0063s (x1.64)</text><text aria-label="Parser: tomli-w&#xA;1.2.0; Execution Time (seconds, lower=better): 0.0130457999985; parser: tomli-w; label: 0.0130s (x3.38); Execution Time (s): 0.0130; Slowdown: 3.38" role="graphics-symbol" aria-roledescription="text mark" text-anchor="middle" transform="translate(400,565.5660839983234)" font-family="sans-serif" font-size="9px" font-weight="bold" fill="#e6ab02">0.0130s (x3.38)</text><text aria-label="Parser: toml&#xA;0.10.2; Execution Time (seconds, lower=better): 0.016118399999; parser: toml; label: 0.0161s (x4.18); Execution Time (s): 0.0161; Slowdown: 4.18" role="graphics-symbol" aria-roledescription="text mark" text-anchor="middle" transform="translate(514.2857142857142,558.3981640293557)" font-family="sans-serif" font-size="9px" font-weight="bold" fill="#e7298a">0.0161s (x4.18)</text><text aria-label="Parser: qtoml&#xA;0.3.1; Execution Time (seconds, lower=better): 0.0313870999998; parser: qtoml; label: 0.0314s (x8.13); Execution Time (s): 0.0314; Slowdown: 8.13" role="graphics-symbol" aria-roledescription="text mark" text-anchor="middle" transform="translate(628.5714285714286,522.7785520979322)" font-family="sans-serif" font-size="9px" font-weight="bold" fill="#d95f02">0.0314s (x8.13)</text><text aria-label="Parser: tomlkit&#xA;0.14.0; Execution Time (seconds, lower=better): 0.247303799999; parser: tomlkit; label: 0.2473s (x64.06); Execution Time (s): 0.2473; Slowdown: 64.06" role="graphics-symbol" aria-roledescription="text mark" text-anchor="middle" transform="translate(742.8571428571429,19.076923076923062)" font-family="sans-serif" font-size="9px" font-weight="bold" fill="#a6761d">0.2473s (x64.06)</text></g><g class="mark-group role-title"><g transform="translate(400,-31)"><path class="background" aria-hidden="true" d="M0,0h0v0h0Z" pointer-events="none"/><g><g class="mark-text role-title-text" role="graphics-symbol" aria-roledescription="title" aria-label="Title text 'TOML parsers benchmark (dumps)'" pointer-events="none"><text text-anchor="middle" transform="translate(0,10)" font-family="sans-serif" font-size="13px" font-weight="bold" fill="#000" opacity="1">TOML parsers benchmark (dumps)</text></g><g class="mark-text role-title-subtitle" role="graphics-symbol" aria-roledescription="subtitle" aria-label="Subtitle text 'Python: 3.13.8 (Windows 10) | CPU: 11th Gen Intel(R) Core(TM) i5-11300H @ 3.10GHz'" pointer-events="none"><text text-anchor="middle" transform="translate(0,25)" font-family="sans-serif" font-size="12px" fill="#000" opacity="1">Python: 3.13.8 (Windows 10) | CPU: 11th Gen Intel(R) Core(TM) i5-11300H @ 3.10GHz</text></g></g><path class="foreground" aria-hidden="true" d="" pointer-events="none" display="none"/></g></g></g><path class="foreground" aria-hidden="true" d="" display="none"/></g></g></g><defs><clipPath id="clip8"><path d="M4.502986890983209,0L98.35415596615965,0C100.83942208639282,0,102.85714285714286,2.01772077075005,102.85714285714286,4.502986890983209L102.85714285714286,9.005973781966418C102.85714285714286,9.005973781966418,102.85714285714286,9.005973781966418,102.85714285714286,9.005973781966418L0,9.005973781966418C0,9.005973781966418,0,9.005973781966418,0,9.005973781966418L0,4.502986890983209C0,2.01772077075005,2.01772077075005,0,4.502986890983209,0Z"/></clipPath><clipPath id="clip9"><path d="M4.867378317560849,0L97.98976453958201,0C100.67614376294017,0,102.85714285714286,2.1809990942026887,102.85714285714286,4.867378317560849L102.85714285714286,9.734756635121698C102.85714285714286,9.734756635121698,102.85714285714286,9.734756635121698,102.85714285714286,9.734756635121698L0,9.734756635121698C0,9.734756635121698,0,9.734756635121698,0,9.734756635121698L0,4.867378317560849C0,2.1809990942026887,2.1809990942026887,0,4.867378317560849,0Z"/></clipPath><clipPath id="clip10"><path d="M6,0L96.85714285714286,0C100.16863300410687,0,102.85714285714286,2.688509853036,102.85714285714286,6L102.85714285714286,14.765317920316306C102.85714285714286,14.765317920316306,102.85714285714286,14.765317920316306,102.85714285714286,14.765317920316306L0,14.765317920316306C0,14.765317920316306,0,14.765317920316306,0,14.765317920316306L0,6C0,2.688509853036,2.688509853036,0,6,0Z"/></clipPath><clipPath id="clip11"><path d="M6,0L96.85714285714286,0C100.16863300410687,0,102.85714285714286,2.688509853036,102.85714285714286,6L102.85714285714286,30.433916001676607C102.85714285714286,30.433916001676607,102.85714285714286,30.433916001676607,102.85714285714286,30.433916001676607L0,30.433916001676607C0,30.433916001676607,0,30.433916001676607,0,30.433916001676607L0,6C0,2.688509853036,2.688509853036,0,6,0Z"/></clipPath><clipPath id="clip12"><path d="M6,0L96.85714285714286,0C100.16863300410687,0,102.85714285714286,2.688509853036,102.85714285714286,6L102.85714285714286,37.60183597064429C102.85714285714286,37.60183597064429,102.85714285714286,37.60183597064429,102.85714285714286,37.60183597064429L0,37.60183597064429C0,37.60183597064429,0,37.60183597064429,0,37.60183597064429L0,6C0,2.688509853036,2.688509853036,0,6,0Z"/></clipPath><clipPath id="clip13"><path d="M6,0L96.85714285714286,0C100.16863300410687,0,102.85714285714286,2.688509853036,102.85714285714286,6L102.85714285714286,73.22144790206778C102.85714285714286,73.22144790206778,102.85714285714286,73.22144790206778,102.85714285714286,73.22144790206778L0,73.22144790206778C0,73.22144790206778,0,73.22144790206778,0,73.22144790206778L0,6C0,2.688509853036,2.688509853036,0,6,0Z"/></clipPath><clipPath id="clip14"><path d="M6,0L96.85714285714286,0C100.16863300410687,0,102.85714285714286,2.688509853036,102.85714285714286,6L102.85714285714286,576.9230769230769C102.85714285714286,576.9230769230769,102.85714285714286,576.9230769230769,102.85714285714286,576.9230769230769L0,576.9230769230769C0,576.9230769230769,0,576.9230769230769,0,576.9230769230769L0,6C0,2.688509853036,2.688509853036,0,6,0Z"/></clipPath></defs></svg>