<svg xmlns="http://www.w3.org/2000/svg" xmlns:xlink="http://www.w3.org/1999/xlink" version="1.1" class="marks" width="852" height="687" viewBox="0 0 852 687"><rect width="852" height="687" fill="white"/><g fill="none" stroke-miterlimit="10" transform="translate(47,36)"><g class="mark-group role-frame root" role="graphics-object" aria-roledescription="group mark container"><g transform="translate(0,0)"><path class="background" aria-hidden="true" d="M0.5,0.5h800v600h-800Z" stroke="#ddd"/><g><g class="mark-group role-axis" role="graphics-symbol" aria-roledescription="axis" aria-label="X-axis titled 'Parser' for a discrete scale with 7 values: rtoml&#xA;0.13.0, pytomlpp&#xA;1.1.0, toml_rs&#xA;0.3.2, toml&#xA;0.10.2, tomli-w&#xA;1.2.0, qtoml&#xA;0.3.1, tomlkit&#xA;0.14.0"><g transform="translate(0.5,600.5)"><path class="background" aria-hidden="true" d="M0,0h0v0h0Z" pointer-events="none"/><g><g class="mark-rule role-axis-tick" pointer-events="none"><line transform="translate(57,0)" x2="0" y2="5" stroke="#888" stroke-width="1" opacity="1"/><line transform="translate(171,0)" x2="0" y2="5" stroke="#888" stroke-width="1" opacity="1"/><line transform="translate(285,0)" x2="0" y2="5" stroke="#888" stroke-width="1" opacity="1"/><line transform="translate(400,0)" x2="0" y2="5" stroke="#888" stroke-width="1" opacity="1"/><line transform="translate(514,0)" x2="0" y2="5" stroke="#888" stroke-width="1" opacity="1"/><line transform="translate(628,0)" x2="0" y2="5" stroke="#888" stroke-width="1" opacity="1"/><line transform="translate(742,0)" x2="0" y2="5" stroke="#888" stroke-width="1" opacity="1"/></g><g class="mark-text role-axis-label" pointer-events="none"><text text-anchor="middle" transform="translate(56.642857142857096,15)" font-family="sans-serif" font-size="10px" fill="#000" opacity="1"><tspan>rtoml</tspan><tspan x="0" dy="14">0.13.0</tspan></text><text text-anchor="middle" transform="translate(170.9285714285714,15)" font-family="sans-serif" font-size="10px" fill="#000" opacity="1"><tspan>pytomlpp</tspan><tspan x="0" dy="14">1.1.0</tspan></text><text text-anchor="middle" transform="translate(285.21428571428567,15)" font-family="sans-serif" font-size="10px" fill="#000" opacity="1"><tspan>toml_rs</tspan><tspan x="0" dy="14">0.3.2</tspan></text><text text-anchor="middle" transform="translate(399.5,15)" font-family="sans-serif" font-size="10px" fill="#000" opacity="1"><tspan>toml</tspan><tspan x="0" dy="14">0.10.2</tspan></text><text text-anchor="middle" transform="translate(513.7857142857142,15)" font-family="sans-serif" font-size="10px" fill="#000" opacity="1"><tspan>tomli-w</tspan><tspan x="0" dy="14">1.2.0</tspan></text><text text-anchor="middle" transform="translate(628.0714285714286,15)" font-family="sans-serif" font-size="10px" fill="#000" opacity="1"><tspan>qtoml</tspan><tspan x="0" dy="14">0.3.1</tspan></text><text text-anchor="middle" transform="translate(742.3571428571429,15)" font-family="sans-serif" font-size="10px" fill="#000" opacity="1"><tspan>tomlkit</tspan><tspan x="0" dy="14">0.14.0</tspan></text></g><g class="mark-rule role-axis-domain" pointer-events="none"><line transform="translate(0,0)" x2="800" y2="0" stroke="#888" stroke-width="1" opacity="1"/></g><g class="mark-text role-axis-title" pointer-events="none"><text text-anchor="middle" transform="translate(400,44)" font-family="sans-serif" font-size="11px" font-weight="bold" fill="#000" opacity="1">Parser</text></g></g><path class="foreground" aria-hidden="true" d="" pointer-events="none" display="none"/></g></g><g class="mark-group role-axis" role="graphics-symbol" aria-roledescription="axis" aria-label="Y-axis titled 'Execution Time (seconds, lower=better)' for a linear scale with values from 0 to 11"><g transform="translate(0.5,0.5)"><path class="background" aria-hidden="true" d="M0,0h0v0h0Z" pointer-events="none"/><g><g class="mark-rule role-axis-tick" pointer-events="none"><line transform="translate(0,600)" x2="-5" y2="0" stroke="#888" stroke-width="1" opacity="1"/><line transform="translate(0,572)" x2="-5" y2="0" stroke="#888" stroke-width="1" opacity="1"/><line transform="translate(0,543)" x2="-5" y2="0" stroke="#888" stroke-width="1" opacity="1"/><line transform="translate(0,515)" x2="-5" y2="0" stroke="#888" stroke-width="1" opacity="1"/><line transform="translate(0,487)" x2="-5" y2="0" stroke="#888" stroke-width="1" opacity="1"/><line transform="translate(0,458)" x2="-5" y2="0" stroke="#888" stroke-width="1" opacity="1"/><line transform="translate(0,430)" x2="-5" y2="0" stroke="#888" stroke-width="1" opacity="1"/><line transform="translate(0,402)" x2="-5" y2="0" stroke="#888" stroke-width="1" opacity="1"/><line transform="translate(0,374)" x2="-5" y2="0" stroke="#888" stroke-width="1" opacity="1"/><line transform="translate(0,345)" x2="-5" y2="0" stroke="#888" stroke-width="1" opacity="1"/><line transform="translate(0,317)" x2="-5" y2="0" stroke="#888" stroke-width="1" opacity="1"/><line transform="translate(0,289)" x2="-5" y2="0" stroke="#888" stroke-width="1" opacity="1"/><line transform="translate(0,260)" x2="-5" y2="0" stroke="#888" stroke-width="1" opacity="1"/><line transform="translate(0,232)" x2="-5" y2="0" stroke="#888" stroke-width="1" opacity="1"/><line transform="translate(0,204)" x2="-5" y2="0" stroke="#888" stroke-width="1" opacity="1"/><line transform="translate(0,175)" x2="-5" y2="0" stroke="#888" stroke-width="1" opacity="1"/><line transform="translate(0,147)" x2="-5" y2="0" stroke="#888" stroke-width="1" opacity="1"/><line transform="translate(0,119)" x2="-5" y2="0" stroke="#888" stroke-width="1" opacity="1"/><line transform="translate(0,91)" x2="-5" y2="0" stroke="#888" stroke-width="1" opacity="1"/><line transform="translate(0,62)" x2="-5" y2="0" stroke="#888" stroke-width="1" opacity="1"/><line transform="translate(0,34)" x2="-5" y2="0" stroke="#888" stroke-width="1" opacity="1"/><line transform="translate(0,6)" x2="-5" y2="0" stroke="#888" stroke-width="1" opacity="1"/></g><g class="mark-text role-axis-label" pointer-events="none"><text text-anchor="end" transform="translate(-7,603)" font-family="sans-serif" font-size="10px" fill="#000" opacity="1">0.0</text><text text-anchor="end" transform="translate(-7,574.6956580568875)" font-family="sans-serif" font-size="10px" fill="#000" opacity="1">0.5</text><text text-anchor="end" transform="translate(-7,546.391316113775)" font-family="sans-serif" font-size="10px" fill="#000" opacity="1">1.0</text><text text-anchor="end" transform="translate(-7,518.0869741706626)" font-family="sans-serif" font-size="10px" fill="#000" opacity="1">1.5</text><text text-anchor="end" transform="translate(-7,489.7826322275502)" font-family="sans-serif" font-size="10px" fill="#000" opacity="1">2.0</text><text text-anchor="end" transform="translate(-7,461.4782902844377)" font-family="sans-serif" font-size="10px" fill="#000" opacity="1">2.5</text><text text-anchor="end" transform="translate(-7,433.17394834132534)" font-family="sans-serif" font-size="10px" fill="#000" opacity="1">3.0</text><text text-anchor="end" transform="translate(-7,404.86960639821285)" font-family="sans-serif" font-size="10px" fill="#000" opacity="1">3.5</text><text text-anchor="end" transform="translate(-7,376.5652644551004)" font-family="sans-serif" font-size="10px" fill="#000" opacity="1">4.0</text><text text-anchor="end" transform="translate(-7,348.2609225119879)" font-family="sans-serif" font-size="10px" fill="#000" opacity="1">4.5</text><text text-anchor="end" transform="translate(-7,319.9565805688755)" font-family="sans-serif" font-size="10px" fill="#000" opacity="1">5.0</text><text text-anchor="end" transform="translate(-7,291.65223862576306)" font-family="sans-serif" font-size="10px" fill="#000" opacity="1">5.5</text><text text-anchor="end" transform="translate(-7,263.3478966826506)" font-family="sans-serif" font-size="10px" fill="#000" opacity="1">6.0</text><text text-anchor="end" transform="translate(-7,235.04355473953814)" font-family="sans-serif" font-size="10px" fill="#000" opacity="1">6.5</text><text text-anchor="end" transform="translate(-7,206.73921279642568)" font-family="sans-serif" font-size="10px" fill="#000" opacity="1">7.0</text><text text-anchor="end" transform="translate(-7,178.4348708533132)" font-family="sans-serif" font-size="10px" fill="#000" opacity="1">7.5</text><text text-anchor="end" transform="translate(-7,150.1305289102008)" font-family="sans-serif" font-size="10px" fill="#000" opacity="1">8.0</text><text text-anchor="end" transform="translate(-7,121.82618696708835)" font-family="sans-serif" font-size="10px" fill="#000" opacity="1">8.5</text><text text-anchor="end" transform="translate(-7,93.52184502397589)" font-family="sans-serif" font-size="10px" fill="#000" opacity="1">9.0</text><text text-anchor="end" transform="translate(-7,65.21750308086342)" font-family="sans-serif" font-size="10px" fill="#000" opacity="1">9.5</text><text text-anchor="end" transform="translate(-7,36.913161137751025)" font-family="sans-serif" font-size="10px" fill="#000" opacity="1">10.0</text><text text-anchor="end" transform="translate(-7,8.60881919463856)" font-family="sans-serif" font-size="10px" fill="#000" opacity="1">10.5</text></g><g class="mark-rule role-axis-domain" pointer-events="none"><line transform="translate(0,600)" x2="0" y2="-600" stroke="#888" stroke-width="1" opacity="1"/></g><g class="mark-text role-axis-title" pointer-events="none"><text text-anchor="middle" transform="translate(-30.462890625,300) rotate(-90) translate(0,-2)" font-family="sans-serif" font-size="11px" font-weight="bold" fill="#000" opacity="1">Execution Time (seconds, lower=better)</text></g></g><path class="foreground" aria-hidden="true" d="" pointer-events="none" display="none"/></g></g><g class="mark-group role-scope" role="graphics-object" aria-roledescription="group mark container"><g transform="translate(5.714285714285666,589.5778091748589)"><path class="background" aria-hidden="true" d="M5.2110954125705575,0L97.6460474445723,0C100.52212929684175,0,102.85714285714286,2.3350135603011073,102.85714285714286,5.2110954125705575L102.85714285714286,10.422190825141115C102.85714285714286,10.422190825141115,102.85714285714286,10.422190825141115,102.85714285714286,10.422190825141115L0,10.422190825141115C0,10.422190825141115,0,10.422190825141115,0,10.422190825141115L0,5.2110954125705575C0,2.3350135603011073,2.3350135603011073,0,5.2110954125705575,0Z"/><g clip-path="url(#clip8)"><g class="mark-group role-scope" role="graphics-object" aria-roledescription="group mark container"><g transform="translate(0,-589.5778091748589)"><path class="background" aria-hidden="true" d="M0,0h102.85714285714286v0h-102.85714285714286Z"/><g><g class="mark-rect role-mark layer_0_marks" role="graphics-object" aria-roledescription="rect mark container"><path aria-label="Parser: rtoml&#xA;0.13.0; Execution Time (seconds, lower=better): 0.184109400001; parser: rtoml; Execution Time (s): 0.1841; Slowdown: 1.00" role="graphics-symbol" aria-roledescription="bar" d="M0,589.5778091748589h102.85714285714286v10.422190825141115h-102.85714285714286Z" fill="#7570b3"/></g></g><path class="foreground" aria-hidden="true" d="" display="none"/></g></g></g><path class="foreground" aria-hidden="true" d="" display="none"/></g><g transform="translate(119.99999999999996,586.183212837103)"><path class="background" aria-hidden="true" d="M6,0L96.85714285714286,0C100.16863300410687,0,102.85714285714286,2.688509853036,102.85714285714286,6L102.85714285714286,13.816787162896958C102.85714285714286,13.816787162896958,102.85714285714286,13.816787162896958,102.85714285714286,13.816787162896958L0,13.816787162896958C0,13.816787162896958,0,13.816787162896958,0,13.816787162896958L0,6C0,2.688509853036,2.688509853036,0,6,0Z"/><g clip-path="url(#clip9)"><g class="mark-group role-scope" role="graphics-object" aria-roledescription="group mark container"><g transform="translate(0,-586.183212837103)"><path class="background" aria-hidden="true" d="M0,0h102.85714285714286v0h-102.85714285714286Z"/><g><g class="mark-rect role-mark layer_0_marks" role="graphics-object" aria-roledescription="rect mark container"><path aria-label="Parser: pytomlpp&#xA;1.1.0; Execution Time (seconds, lower=better): 0.244075399998; parser: pytomlpp; Execution Time (s): 0.2441; Slowdown: 1.33" role="graphics-symbol" aria-roledescription="bar" d="M0,586.183212837103h102.85714285714286v13.816787162896958h-102.85714285714286Z" fill="#1b9e77"/></g></g><path class="foreground" aria-hidden="true" d="" display="none"/></g></g></g><path class="foreground" aria-hidden="true" d="" display="none"/></g><g transform="translate(234.28571428571425,584.0747261709097)"><path class="background" aria-hidden="true" d="M6,0L96.85714285714286,0C100.16863300410687,0,102.85714285714286,2.688509853036,102.85714285714286,6L102.85714285714286,15.925273829090315C102.85714285714286,15.925273829090315,102.85714285714286,15.925273829090315,102.85714285714286,15.925273829090315L0,15.925273829090315C0,15.925273829090315,0,15.925273829090315,0,15.925273829090315L0,6C0,2.688509853036,2.688509853036,0,6,0Z"/><g clip-path="url(#clip10)"><g class="mark-group role-scope" role="graphics-object" aria-roledescription="group mark container"><g transform="translate(0,-584.0747261709097)"><path class="background" aria-hidden="true" d="M0,0h102.85714285714286v0h-102.85714285714286Z"/><g><g class="mark-rect role-mark layer_0_marks" role="graphics-object" aria-roledescription="rect mark container"><path aria-label="Parser: toml_rs&#xA;0.3.2; Execution Time (seconds, lower=better): 0.2813221; parser: toml_rs; Execution Time (s): 0.2813; Slowdown: 1.53" role="graphics-symbol" aria-roledescription="bar" d="M0,584.0747261709097h102.85714285714286v15.925273829090315h-102.85714285714286Z" fill="#66a61e"/></g></g><path class="foreground" aria-hidden="true" d="" display="none"/></g></g></g><path class="foreground" aria-hidden="true" d="" display="none"/></g><g transform="translate(348.57142857142856,570.8632103777321)"><path class="background" aria-hidden="true" d="M6,0L96.85714285714286,0C100.16863300410687,0,102.85714285714286,2.688509853036,102.85714285714286,6L102.85714285714286,29.136789622267884C102.85714285714286,29.136789622267884,102.85714285714286,29.136789622267884,102.85714285714286,29.136789622267884L0,29.136789622267884C0,29.136789622267884,0,29.136789622267884,0,29.136789622267884L0,6C0,2.688509853036,2.688509853036,0,6,0Z"/><g clip-path="url(#clip11)"><g class="mark-group role-scope" role="graphics-object" aria-roledescription="group mark container"><g transform="translate(0,-570.8632103777321)"><path class="background" aria-hidden="true" d="M0,0h102.85714285714286v0h-102.85714285714286Z"/><g><g class="mark-rect role-mark layer_0_marks" role="graphics-object" aria-roledescription="rect mark container"><path aria-label="Parser: toml&#xA;0.10.2; Execution Time (seconds, lower=better): 0.5147053; parser: toml; Execution Time (s): 0.5147; Slowdown: 2.80" role="graphics-symbol" aria-roledescription="bar" d="M0,570.8632103777321h102.85714285714286v29.136789622267884h-102.85714285714286Z" fill="#e7298a"/></g></g><path class="foreground" aria-hidden="true" d="" display="none"/></g></g></g><path class="foreground" aria-hidden="true" d="" display="none"/></g><g transform="translate(462.85714285714283,568.5922794322107)"><path class="background" aria-hidden="true" d="M6,0L96.85714285714286,0C100.16863300410687,0,102.85714285714286,2.688509853036,102.85714285714286,6L102.85714285714286,31.407720567789283C102.85714285714286,31.407720567789283,102.85714285714286,31.407720567789283,102.85714285714286,31.407720567789283L0,31.407720567789283C0,31.407720567789283,0,31.407720567789283,0,31.407720567789283L0,6C0,2.688509853036,2.688509853036,0,6,0Z"/><g clip-path="url(#clip12)"><g class="mark-group role-scope" role="graphics-object" aria-roledescription="group mark container"><g transform="translate(0,-568.5922794322107)"><path class="background" aria-hidden="true" d="M0,0h102.85714285714286v0h-102.85714285714286Z"/><g><g class="mark-rect role-mark layer_0_marks" role="graphics-object" aria-roledescription="rect mark container"><path aria-label="Parser: tomli-w&#xA;1.2.0; Execution Time (seconds, lower=better): 0.554821600002; parser: tomli-w; Execution Time (s): 0.5548; Slowdown: 3.01" role="graphics-symbol" aria-roledescription="bar" d="M0,568.5922794322107h102.85714285714286v31.407720567789283h-102.85714285714286Z" fill="#e6ab02"/></g></g><path class="foreground" aria-hidden="true" d="" display="none"/></g></g></g><path class="foreground" aria-hidden="true" d="" display="none"/></g><g transform="translate(577.1428571428571,524.4033369995575)"><path class="background" aria-hidden="true" d="M6,0L96.85714285714286,0C100.16863300410687,0,102.85714285714286,2.688509853036,102.85714285714286,6L102.85714285714286,75.5966630004425C102.85714285714286,75.5966630004425,102.85714285714286,75.5966630004425,102.85714285714286,75.5966630004425L0,75.5966630004425C0,75.5966630004425,0,75.5966630004425,0,75.5966630004425L0,6C0,2.688509853036,2.688509853036,0,6,0Z"/><g clip-path="url(#clip13)"><g class="mark-group role-scope" role="graphics-object" aria-roledescription="group mark container"><g transform="translate(0,-524.4033369995575)"><path class="background" aria-hidden="true" d="M0,0h102.85714285714286v0h-102.85714285714286Z"/><g><g class="mark-rect role-mark layer_0_marks" role="graphics-object" aria-roledescription="rect mark container"><path aria-label="Parser: qtoml&#xA;0.3.1; Execution Time (seconds, lower=better): 1.3354252; parser: qtoml; Execution Time (s): 1.3354; Slowdown: 7.25" role="graphics-symbol" aria-roledescription="bar" d="M0,524.4033369995575h102.85714285714286v75.5966630004425h-102.85714285714286Z" fill="#d95f02"/></g></g><path class="foreground" aria-hidden="true" d="" display="none"/></g></g></g><path class="foreground" aria-hidden="true" d="" display="none"/></g><g transform="translate(691.4285714285714,23.076923076923062)"><path class="background" aria-hidden="true" d="M6,0L96.85714285714286,0C100.16863300410687,0,102.85714285714286,2.688509853036,102.85714285714286,6L102.85714285714286,576.9230769230769C102.85714285714286,576.9230769230769,102.85714285714286,576.9230769230769,102.85714285714286,576.9230769230769L0,576.9230769230769C0,576.9230769230769,0,576.9230769230769,0,576.9230769230769L0,6C0,2.688509853036,2.688509853036,0,6,0Z"/><g clip-path="url(#clip14)"><g class="mark-group role-scope" role="graphics-object" aria-roledescription="group mark container"><g transform="translate(0,-23.076923076923062)"><path class="background" aria-hidden="true" d="M0,0h102.85714285714286v0h-102.85714285714286Z"/><g><g class="mark-rect role-mark layer_0_marks" role="graphics-object" aria-roledescription="rect mark container"><path aria-label="Parser: tomlkit&#xA;0.14.0; Execution Time (seconds, lower=better): 10.1914236; parser: tomlkit; Execution Time (s): 10.1914; Slowdown: 55.36" role="graphics-symbol" aria-roledescription="bar" d="M0,23.076923076923062h102.85714285714286v576.9230769230769h-102.85714285714286Z" fill="#a6761d"/></g></g><path class="foreground" aria-hidden="true" d="" display="none"/></g></g></g><path class="foreground" aria-hidden="true" d="" display="none"/></g></g><g class="mark-text role-mark layer_1_marks" role="graphics-object" aria-roledescription="text mark container"><text aria-label="Parser: rtoml&#xA;0.13.0; Execution Time (seconds, lower=better): 0.184109400001; parser: rtoml; label: 0.1841s (x1.00); Execution Time (s): 0.1841; Slowdown: 1.00" role="graphics-symbol" aria-roledescription="text mark" text-anchor="middle" transform="translate(57.142857142857096,585.5778091748589)" font-family="sans-serif" font-size="9px" font-weight="bold" fill="#7570b3">0.1841s (x1.00)</text><text aria-label="Parser: pytomlpp&#xA;1.1.0; Execution Time (seconds, lower=better): 0.244075399998; parser: pytomlpp; label: 0.2441s (x1.33); Execution Time (s): 0.2441; Slowdown: 1.33" role="graphics-symbol" aria-roledescription="text mark" text-anchor="middle" transform="translate(171.4285714285714,582.183212837103)" font-family="sans-serif" font-size="9px" font-weight="bold" fill="#1b9e77">0.2441s (x1.33)</text><text aria-label="Parser: toml_rs&#xA;0.3.2; Execution Time (seconds, lower=better): 0.2813221; parser: toml_rs; label: 0.2813s (x1.53); Execution Time (s): 0.2813; Slowdown: 1.53" role="graphics-symbol" aria-roledescription="text mark" text-anchor="middle" transform="translate(285.71428571428567,580.0747261709097)" font-family="sans-serif" font-size="9px" font-weight="bold" fill="#66a61e">0.2813s (x1.53)</text><text aria-label="Parser: toml&#xA;0.10.2; Execution Time (seconds, lower=better): 0.5147053; parser: toml; label: 0.5147s (x2.80); Execution Time (s): 0.5147; Slowdown: 2.80" role="graphics-symbol" aria-roledescription="text mark" text-anchor="middle" transform="translate(400,566.8632103777321)" font-family="sans-serif" font-size="9px" font-weight="bold" fill="#e7298a">0.5147s (x2.80)</text><text aria-label="Parser: tomli-w&#xA;1.2.0; Execution Time (seconds, lower=better): 0.554821600002; parser: tomli-w; label: 0.5548s (x3.01); Execution Time (s): 0.5548; Slowdown: 3.01" role="graphics-symbol" aria-roledescription="text mark" text-anchor="middle" transform="translate(514.2857142857142,564.5922794322107)" font-family="sans-serif" font-size="9px" font-weight="bold" fill="#e6ab02">0.5548s (x3.01)</text><text aria-label="Parser: qtoml&#xA;0.3.1; Execution Time (seconds, lower=better): 1.3354252; parser: qtoml; label: 1.3354s (x7.25); Execution Time (s): 1.3354; Slowdown: 7.25" role="graphics-symbol" aria-roledescription="text mark" text-anchor="middle" transform="translate(628.5714285714286,520.4033369995575)" font-family="sans-serif" font-size="9px" font-weight="bold" fill="#d95f02">1.3354s (x7.25)</text><text aria-label="Parser: tomlkit&#xA;0.14.0; Execution Time (seconds, lower=better): 10.1914236; parser: tomlkit; label: 10.1914s (x55.36); Execution Time (s): 10.1914; Slowdown: 55.36" role="graphics-symbol" aria-roledescription="text mark" text-anchor="middle" transform="translate(742.8571428571429,19.076923076923062)" font-family="sans-serif" font-size="9px" font-weight="bold" fill="#a6761d">10.1914s (x55.36)</text></g><g class="mark-group role-title"><g transform="translate(400,-31)"><path class="background" aria-hidden="true" d="M0,0h0v0h0Z" pointer-events="none"/><g><g class="mark-text role-title-text" role="graphics-symbol" aria-roledescription="title" aria-label="Title text 'TOML parsers benchmark (dumps)'" pointer-events="none"><text text-anchor="middle" transform="translate(0,10)" font-family="sans-serif" font-size="13px" font-weight="bold" fill="#000" opacity="1">TOML parsers benchmark (dumps)</text></g><g class="mark-text role-title-subtitle" role="graphics-symbol" aria-roledescription="subtitle" aria-label="Subtitle text 'Python: 3.13.8 (Windows 10) | CPU: 11th Gen Intel(R) Core(TM) i5-11300H @ 3.10GHz'" pointer-events="none"><text text-anchor="middle" transform="translate(0,25)" font-family="sans-serif" font-size="12px" fill="#000" opacity="1">Python: 3.13.8 (Windows 10) | CPU: 11th Gen Intel(R) Core(TM) i5-11300H @ 3.10GHz</text></g></g><path class="foreground" aria-hidden="true" d="" pointer-events="none" display="none"/></g></g></g><path class="foreground" aria-hidden="true" d="" display="none"/></g></g></g><defs><clipPath id="clip8"><path d="M5.2110954125705575,0L97.6460474445723,0C100.52212929684175,0,102.85714285714286,2.3350135603011073,102.85714285714286,5.2110954125705575L102.85714285714286,10.422190825141115C102.85714285714286,10.422190825141115,102.85714285714286,10.422190825141115,102.85714285714286,10.422190825141115L0,10.422190825141115C0,10.422190825141115,0,10.422190825141115,0,10.422190825141115L0,5.2110954125705575C0,2.3350135603011073,2.3350135603011073,0,5.2110954125705575,0Z"/></clipPath><clipPath id="clip9"><path d="M6,0L96.85714285714286,0C100.16863300410687,0,102.85714285714286,2.688509853036,102.85714285714286,6L102.85714285714286,13.816787162896958C102.85714285714286,13.816787162896958,102.85714285714286,13.816787162896958,102.85714285714286,13.816787162896958L0,13.816787162896958C0,13.816787162896958,0,13.816787162896958,0,13.816787162896958L0,6C0,2.688509853036,2.688509853036,0,6,0Z"/></clipPath><clipPath id="clip10"><path d="M6,0L96.85714285714286,0C100.16863300410687,0,102.85714285714286,2.688509853036,102.85714285714286,6L102.85714285714286,15.925273829090315C102.85714285714286,15.925273829090315,102.85714285714286,15.925273829090315,102.85714285714286,15.925273829090315L0,15.925273829090315C0,15.925273829090315,0,15.925273829090315,0,15.925273829090315L0,6C0,2.688509853036,2.688509853036,0,6,0Z"/></clipPath><clipPath id="clip11"><path d="M6,0L96.85714285714286,0C100.16863300410687,0,102.85714285714286,2.688509853036,102.85714285714286,6L102.85714285714286,29.136789622267884C102.85714285714286,29.136789622267884,102.85714285714286,29.136789622267884,102.85714285714286,29.136789622267884L0,29.136789622267884C0,29.136789622267884,0,29.136789622267884,0,29.136789622267884L0,6C0,2.688509853036,2.688509853036,0,6,0Z"/></clipPath><clipPath id="clip12"><path d="M6,0L96.85714285714286,0C100.16863300410687,0,102.85714285714286,2.688509853036,102.85714285714286,6L102.85714285714286,31.407720567789283C102.85714285714286,31.407720567789283,102.85714285714286,31.407720567789283,102.85714285714286,31.407720567789283L0,31.407720567789283C0,31.407720567789283,0,31.407720567789283,0,31.407720567789283L0,6C0,2.688509853036,2.688509853036,0,6,0Z"/></clipPath><clipPath id="clip13"><path d="M6,0L96.85714285714286,0C100.16863300410687,0,102.85714285714286,2.688509853036,102.85714285714286,6L102.85714285714286,75.5966630004425C102.85714285714286,75.5966630004425,102.85714285714286,75.5966630004425,102.85714285714286,75.5966630004425L0,75.5966630004425C0,75.5966630004425,0,75.5966630004425,0,75.5966630004425L0,6C0,2.688509853036,2.688509853036,0,6,0Z"/></clipPath><clipPath id="clip14"><path d="M6,0L96.85714285714286,0C100.16863300410687,0,102.85714285714286,2.688509853036,102.85714285714286,6L102.85714285714286,576.9230769230769C102.85714285714286,576.9230769230769,102.85714285714286,576.9230769230769,102.85714285714286,576.9230769230769L0,576.9230769230769C0,576.9230769230769,0,576.9230769230769,0,576.9230769230769L0,6C0,2.688509853036,2.688509853036,0,6,0Z"/></clipPath></defs></svg>