<svg xmlns="http://www.w3.org/2000/svg" xmlns:xlink="http://www.w3.org/1999/xlink" version="1.1" class="marks" width="644" height="473" viewBox="0 0 644 473"><rect width="644" height="473" fill="white"/><g fill="none" stroke-miterlimit="10" transform="translate(39,36)"><g class="mark-group role-frame root" role="graphics-object" aria-roledescription="group mark container"><g transform="translate(0,0)"><path class="background" aria-hidden="true" d="M0.5,0.5h600v400h-600Z" stroke="#ddd"/><g><g class="mark-group role-axis" aria-hidden="true"><g transform="translate(0.5,0.5)"><path class="background" aria-hidden="true" d="M0,0h0v0h0Z" pointer-events="none"/><g><g class="mark-rule role-axis-grid" pointer-events="none"><line transform="translate(0,400)" x2="600" y2="0" stroke="#ddd" stroke-width="1" opacity="1"/><line transform="translate(0,365)" x2="600" y2="0" stroke="#ddd" stroke-width="1" opacity="1"/><line transform="translate(0,331)" x2="600" y2="0" stroke="#ddd" stroke-width="1" opacity="1"/><line transform="translate(0,296)" x2="600" y2="0" stroke="#ddd" stroke-width="1" opacity="1"/><line transform="translate(0,262)" x2="600" y2="0" stroke="#ddd" stroke-width="1" opacity="1"/><line transform="translate(0,227)" x2="600" y2="0" stroke="#ddd" stroke-width="1" opacity="1"/><line transform="translate(0,192)" x2="600" y2="0" stroke="#ddd" stroke-width="1" opacity="1"/><line transform="translate(0,158)" x2="600" y2="0" stroke="#ddd" stroke-width="1" opacity="1"/><line transform="translate(0,123)" x2="600" y2="0" stroke="#ddd" stroke-width="1" opacity="1"/><line transform="translate(0,89)" x2="600" y2="0" stroke="#ddd" stroke-width="1" opacity="1"/><line transform="translate(0,54)" x2="600" y2="0" stroke="#ddd" stroke-width="1" opacity="1"/><line transform="translate(0,19)" x2="600" y2="0" stroke="#ddd" stroke-width="1" opacity="1"/></g></g><path class="foreground" aria-hidden="true" d="" pointer-events="none" display="none"/></g></g><g class="mark-group role-axis" role="graphics-symbol" aria-roledescription="axis" aria-label="X-axis titled 'Libraries' for a discrete scale with 7 values: toml_rs (0.3.0), rtoml (0.13.0), pytomlpp (1.1.0), toml (0.10.2), tomli-w (1.2.0), qtoml (0.3.1), tomlkit (0.14.0)"><g transform="translate(0.5,400.5)"><path class="background" aria-hidden="true" d="M0,0h0v0h0Z" pointer-events="none"/><g><g class="mark-rule role-axis-tick" pointer-events="none"><line transform="translate(42,0)" x2="0" y2="5" stroke="#888" stroke-width="1" opacity="1"/><line transform="translate(128,0)" x2="0" y2="5" stroke="#888" stroke-width="1" opacity="1"/><line transform="translate(214,0)" x2="0" y2="5" stroke="#888" stroke-width="1" opacity="1"/><line transform="translate(299,0)" x2="0" y2="5" stroke="#888" stroke-width="1" opacity="1"/><line transform="translate(385,0)" x2="0" y2="5" stroke="#888" stroke-width="1" opacity="1"/><line transform="translate(471,0)" x2="0" y2="5" stroke="#888" stroke-width="1" opacity="1"/><line transform="translate(557,0)" x2="0" y2="5" stroke="#888" stroke-width="1" opacity="1"/></g><g class="mark-text role-axis-label" pointer-events="none"><text text-anchor="middle" transform="translate(42.35714285714285,15)" font-family="sans-serif" font-size="10px" fill="#000" opacity="1">toml_rs (0.3.0)</text><text text-anchor="middle" transform="translate(128.07142857142856,15)" font-family="sans-serif" font-size="10px" fill="#000" opacity="1">rtoml (0.13.0)</text><text text-anchor="middle" transform="translate(213.78571428571428,15)" font-family="sans-serif" font-size="10px" fill="#000" opacity="1">pytomlpp (1.1.0)</text><text text-anchor="middle" transform="translate(299.49999999999994,15)" font-family="sans-serif" font-size="10px" fill="#000" opacity="1">toml (0.10.2)</text><text text-anchor="middle" transform="translate(385.21428571428567,15)" font-family="sans-serif" font-size="10px" fill="#000" opacity="1">tomli-w (1.2.0)</text><text text-anchor="middle" transform="translate(470.9285714285714,15)" font-family="sans-serif" font-size="10px" fill="#000" opacity="1">qtoml (0.3.1)</text><text text-anchor="middle" transform="translate(556.642857142857,15)" font-family="sans-serif" font-size="10px" fill="#000" opacity="1">tomlkit (0.14.0)</text></g><g class="mark-rule role-axis-domain" pointer-events="none"><line transform="translate(0,0)" x2="600" y2="0" stroke="#888" stroke-width="1" opacity="1"/></g><g class="mark-text role-axis-title" pointer-events="none"><text text-anchor="middle" transform="translate(300,30)" font-family="sans-serif" font-size="11px" font-weight="bold" fill="#000" opacity="1">Libraries</text></g></g><path class="foreground" aria-hidden="true" d="" pointer-events="none" display="none"/></g></g><g class="mark-group role-axis" role="graphics-symbol" aria-roledescription="axis" aria-label="Y-axis titled 'Execution Time (seconds, lower=better)' for a linear scale with values from 0 to 12"><g transform="translate(0.5,0.5)"><path class="background" aria-hidden="true" d="M0,0h0v0h0Z" pointer-events="none"/><g><g class="mark-rule role-axis-tick" pointer-events="none"><line transform="translate(0,400)" x2="-5" y2="0" stroke="#888" stroke-width="1" opacity="1"/><line transform="translate(0,365)" x2="-5" y2="0" stroke="#888" stroke-width="1" opacity="1"/><line transform="translate(0,331)" x2="-5" y2="0" stroke="#888" stroke-width="1" opacity="1"/><line transform="translate(0,296)" x2="-5" y2="0" stroke="#888" stroke-width="1" opacity="1"/><line transform="translate(0,262)" x2="-5" y2="0" stroke="#888" stroke-width="1" opacity="1"/><line transform="translate(0,227)" x2="-5" y2="0" stroke="#888" stroke-width="1" opacity="1"/><line transform="translate(0,192)" x2="-5" y2="0" stroke="#888" stroke-width="1" opacity="1"/><line transform="translate(0,158)" x2="-5" y2="0" stroke="#888" stroke-width="1" opacity="1"/><line transform="translate(0,123)" x2="-5" y2="0" stroke="#888" stroke-width="1" opacity="1"/><line transform="translate(0,89)" x2="-5" y2="0" stroke="#888" stroke-width="1" opacity="1"/><line transform="translate(0,54)" x2="-5" y2="0" stroke="#888" stroke-width="1" opacity="1"/><line transform="translate(0,19)" x2="-5" y2="0" stroke="#888" stroke-width="1" opacity="1"/></g><g class="mark-text role-axis-label" pointer-events="none"><text text-anchor="end" transform="translate(-7,403)" font-family="sans-serif" font-size="10px" fill="#000" opacity="1">0</text><text text-anchor="end" transform="translate(-7,368.40598320401995)" font-family="sans-serif" font-size="10px" fill="#000" opacity="1">1</text><text text-anchor="end" transform="translate(-7,333.81196640803995)" font-family="sans-serif" font-size="10px" fill="#000" opacity="1">2</text><text text-anchor="end" transform="translate(-7,299.21794961205995)" font-family="sans-serif" font-size="10px" fill="#000" opacity="1">3</text><text text-anchor="end" transform="translate(-7,264.6239328160799)" font-family="sans-serif" font-size="10px" fill="#000" opacity="1">4</text><text text-anchor="end" transform="translate(-7,230.02991602009988)" font-family="sans-serif" font-size="10px" fill="#000" opacity="1">5</text><text text-anchor="end" transform="translate(-7,195.43589922411988)" font-family="sans-serif" font-size="10px" fill="#000" opacity="1">6</text><text text-anchor="end" transform="translate(-7,160.84188242813983)" font-family="sans-serif" font-size="10px" fill="#000" opacity="1">7</text><text text-anchor="end" transform="translate(-7,126.24786563215983)" font-family="sans-serif" font-size="10px" fill="#000" opacity="1">8</text><text text-anchor="end" transform="translate(-7,91.65384883617979)" font-family="sans-serif" font-size="10px" fill="#000" opacity="1">9</text><text text-anchor="end" transform="translate(-7,57.059832040199794)" font-family="sans-serif" font-size="10px" fill="#000" opacity="1">10</text><text text-anchor="end" transform="translate(-7,22.465815244219755)" font-family="sans-serif" font-size="10px" fill="#000" opacity="1">11</text></g><g class="mark-rule role-axis-domain" pointer-events="none"><line transform="translate(0,400)" x2="0" y2="-400" stroke="#888" stroke-width="1" opacity="1"/></g><g class="mark-text role-axis-title" pointer-events="none"><text text-anchor="middle" transform="translate(-22.123046875,200) rotate(-90) translate(0,-2)" font-family="sans-serif" font-size="11px" font-weight="bold" fill="#000" opacity="1">Execution Time (seconds, lower=better)</text></g></g><path class="foreground" aria-hidden="true" d="" pointer-events="none" display="none"/></g></g><g class="mark-group role-scope" role="graphics-object" aria-roledescription="group mark container"><g transform="translate(4.285714285714278,395.48086942570933)"><path class="background" aria-hidden="true" d="M2.2595652871453353,0L74.8832918557118,0C76.13037988651242,0,77.14285714285714,1.0124772563447255,77.14285714285714,2.2595652871453353L77.14285714285714,4.519130574290671C77.14285714285714,4.519130574290671,77.14285714285714,4.519130574290671,77.14285714285714,4.519130574290671L0,4.519130574290671C0,4.519130574290671,0,4.519130574290671,0,4.519130574290671L0,2.2595652871453353C0,1.0124772563447255,1.0124772563447255,0,2.2595652871453353,0Z"/><g clip-path="url(#clip8)"><g class="mark-group role-scope" role="graphics-object" aria-roledescription="group mark container"><g transform="translate(0,-395.48086942570933)"><path class="background" aria-hidden="true" d="M0,0h77.14285714285714v0h-77.14285714285714Z"/><g><g class="mark-rect role-mark layer_0_marks" role="graphics-object" aria-roledescription="rect mark container"><path aria-label="Libraries: toml_rs (0.3.0); Execution Time (seconds, lower=better): 0.130633299999; parser: toml_rs (0.3.0); Execution Time (s): 0.1306; Slowdown: 1.00" role="graphics-symbol" aria-roledescription="bar" d="M0,395.48086942570933h77.14285714285714v4.519130574290671h-77.14285714285714Z" fill="#66a61e"/></g></g><path class="foreground" aria-hidden="true" d="" display="none"/></g></g></g><path class="foreground" aria-hidden="true" d="" display="none"/></g><g transform="translate(89.99999999999999,393.53719421382476)"><path class="background" aria-hidden="true" d="M3.231402893087619,0L73.91145424976952,0C75.69491405665795,0,77.14285714285714,1.4479430861991833,77.14285714285714,3.231402893087619L77.14285714285714,6.462805786175238C77.14285714285714,6.462805786175238,77.14285714285714,6.462805786175238,77.14285714285714,6.462805786175238L0,6.462805786175238C0,6.462805786175238,0,6.462805786175238,0,6.462805786175238L0,3.231402893087619C0,1.4479430861991833,1.4479430861991833,0,3.231402893087619,0Z"/><g clip-path="url(#clip9)"><g class="mark-group role-scope" role="graphics-object" aria-roledescription="group mark container"><g transform="translate(0,-393.53719421382476)"><path class="background" aria-hidden="true" d="M0,0h77.14285714285714v0h-77.14285714285714Z"/><g><g class="mark-rect role-mark layer_0_marks" role="graphics-object" aria-roledescription="rect mark container"><path aria-label="Libraries: rtoml (0.13.0); Execution Time (seconds, lower=better): 0.186818599999; parser: rtoml (0.13.0); Execution Time (s): 0.1868; Slowdown: 1.43" role="graphics-symbol" aria-roledescription="bar" d="M0,393.53719421382476h77.14285714285714v6.462805786175238h-77.14285714285714Z" fill="#7570b3"/></g></g><path class="foreground" aria-hidden="true" d="" display="none"/></g></g></g><path class="foreground" aria-hidden="true" d="" display="none"/></g><g transform="translate(175.7142857142857,391.1835971998952)"><path class="background" aria-hidden="true" d="M4.4082014000524055,0L72.73465574280473,0C75.16760832648914,0,77.14285714285714,1.975248816367997,77.14285714285714,4.4082014000524055L77.14285714285714,8.816402800104811C77.14285714285714,8.816402800104811,77.14285714285714,8.816402800104811,77.14285714285714,8.816402800104811L0,8.816402800104811C0,8.816402800104811,0,8.816402800104811,0,8.816402800104811L0,4.4082014000524055C0,1.975248816367997,1.975248816367997,0,4.4082014000524055,0Z"/><g clip-path="url(#clip10)"><g class="mark-group role-scope" role="graphics-object" aria-roledescription="group mark container"><g transform="translate(0,-391.1835971998952)"><path class="background" aria-hidden="true" d="M0,0h77.14285714285714v0h-77.14285714285714Z"/><g><g class="mark-rect role-mark layer_0_marks" role="graphics-object" aria-roledescription="rect mark container"><path aria-label="Libraries: pytomlpp (1.1.0); Execution Time (seconds, lower=better): 0.2548534; parser: pytomlpp (1.1.0); Execution Time (s): 0.2549; Slowdown: 1.95" role="graphics-symbol" aria-roledescription="bar" d="M0,391.1835971998952h77.14285714285714v8.816402800104811h-77.14285714285714Z" fill="#1b9e77"/></g></g><path class="foreground" aria-hidden="true" d="" display="none"/></g></g></g><path class="foreground" aria-hidden="true" d="" display="none"/></g><g transform="translate(261.4285714285714,382.1166437737228)"><path class="background" aria-hidden="true" d="M6,0L71.14285714285714,0C74.45434728982114,0,77.14285714285714,2.688509853036,77.14285714285714,6L77.14285714285714,17.883356226277215C77.14285714285714,17.883356226277215,77.14285714285714,17.883356226277215,77.14285714285714,17.883356226277215L0,17.883356226277215C0,17.883356226277215,0,17.883356226277215,0,17.883356226277215L0,6C0,2.688509853036,2.688509853036,0,6,0Z"/><g clip-path="url(#clip11)"><g class="mark-group role-scope" role="graphics-object" aria-roledescription="group mark container"><g transform="translate(0,-382.1166437737228)"><path class="background" aria-hidden="true" d="M0,0h77.14285714285714v0h-77.14285714285714Z"/><g><g class="mark-rect role-mark layer_0_marks" role="graphics-object" aria-roledescription="rect mark container"><path aria-label="Libraries: toml (0.10.2); Execution Time (seconds, lower=better): 0.5169494; parser: toml (0.10.2); Execution Time (s): 0.5169; Slowdown: 3.96" role="graphics-symbol" aria-roledescription="bar" d="M0,382.1166437737228h77.14285714285714v17.883356226277215h-77.14285714285714Z" fill="#e7298a"/></g></g><path class="foreground" aria-hidden="true" d="" display="none"/></g></g></g><path class="foreground" aria-hidden="true" d="" display="none"/></g><g transform="translate(347.1428571428571,380.2262606447568)"><path class="background" aria-hidden="true" d="M6,0L71.14285714285714,0C74.45434728982114,0,77.14285714285714,2.688509853036,77.14285714285714,6L77.14285714285714,19.773739355243208C77.14285714285714,19.773739355243208,77.14285714285714,19.773739355243208,77.14285714285714,19.773739355243208L0,19.773739355243208C0,19.773739355243208,0,19.773739355243208,0,19.773739355243208L0,6C0,2.688509853036,2.688509853036,0,6,0Z"/><g clip-path="url(#clip12)"><g class="mark-group role-scope" role="graphics-object" aria-roledescription="group mark container"><g transform="translate(0,-380.2262606447568)"><path class="background" aria-hidden="true" d="M0,0h77.14285714285714v0h-77.14285714285714Z"/><g><g class="mark-rect role-mark layer_0_marks" role="graphics-object" aria-roledescription="rect mark container"><path aria-label="Libraries: tomli-w (1.2.0); Execution Time (seconds, lower=better): 0.571594199999; parser: tomli-w (1.2.0); Execution Time (s): 0.5716; Slowdown: 4.38" role="graphics-symbol" aria-roledescription="bar" d="M0,380.2262606447568h77.14285714285714v19.773739355243208h-77.14285714285714Z" fill="#e6ab02"/></g></g><path class="foreground" aria-hidden="true" d="" display="none"/></g></g></g><path class="foreground" aria-hidden="true" d="" display="none"/></g><g transform="translate(432.85714285714283,353.3240470538555)"><path class="background" aria-hidden="true" d="M6,0L71.14285714285714,0C74.45434728982114,0,77.14285714285714,2.688509853036,77.14285714285714,6L77.14285714285714,46.67595294614449C77.14285714285714,46.67595294614449,77.14285714285714,46.67595294614449,77.14285714285714,46.67595294614449L0,46.67595294614449C0,46.67595294614449,0,46.67595294614449,0,46.67595294614449L0,6C0,2.688509853036,2.688509853036,0,6,0Z"/><g clip-path="url(#clip13)"><g class="mark-group role-scope" role="graphics-object" aria-roledescription="group mark container"><g transform="translate(0,-353.3240470538555)"><path class="background" aria-hidden="true" d="M0,0h77.14285714285714v0h-77.14285714285714Z"/><g><g class="mark-rect role-mark layer_0_marks" role="graphics-object" aria-roledescription="rect mark container"><path aria-label="Libraries: qtoml (0.3.1); Execution Time (seconds, lower=better): 1.3492493; parser: qtoml (0.3.1); Execution Time (s): 1.3492; Slowdown: 10.33" role="graphics-symbol" aria-roledescription="bar" d="M0,353.3240470538555h77.14285714285714v46.67595294614449h-77.14285714285714Z" fill="#d95f02"/></g></g><path class="foreground" aria-hidden="true" d="" display="none"/></g></g></g><path class="foreground" aria-hidden="true" d="" display="none"/></g><g transform="translate(518.5714285714284,36.363636363636374)"><path class="background" aria-hidden="true" d="M6,0L71.14285714285714,0C74.45434728982114,0,77.14285714285714,2.688509853036,77.14285714285714,6L77.14285714285714,363.6363636363636C77.14285714285714,363.6363636363636,77.14285714285714,363.6363636363636,77.14285714285714,363.6363636363636L0,363.6363636363636C0,363.6363636363636,0,363.6363636363636,0,363.6363636363636L0,6C0,2.688509853036,2.688509853036,0,6,0Z"/><g clip-path="url(#clip14)"><g class="mark-group role-scope" role="graphics-object" aria-roledescription="group mark container"><g transform="translate(0,-36.363636363636374)"><path class="background" aria-hidden="true" d="M0,0h77.14285714285714v0h-77.14285714285714Z"/><g><g class="mark-rect role-mark layer_0_marks" role="graphics-object" aria-roledescription="rect mark container"><path aria-label="Libraries: tomlkit (0.14.0); Execution Time (seconds, lower=better): 10.5115392; parser: tomlkit (0.14.0); Execution Time (s): 10.5115; Slowdown: 80.47" role="graphics-symbol" aria-roledescription="bar" d="M0,36.363636363636374h77.14285714285714v363.6363636363636h-77.14285714285714Z" fill="#a6761d"/></g></g><path class="foreground" aria-hidden="true" d="" display="none"/></g></g></g><path class="foreground" aria-hidden="true" d="" display="none"/></g></g><g class="mark-text role-mark layer_1_marks" role="graphics-object" aria-roledescription="text mark container"><text aria-label="Libraries: toml_rs (0.3.0); Execution Time (seconds, lower=better): 0.130633299999; parser: toml_rs (0.3.0); label: 0.1306s (x1.00); Execution Time (s): 0.1306; Slowdown: 1.00" role="graphics-symbol" aria-roledescription="text mark" text-anchor="middle" transform="translate(42.85714285714285,391.48086942570933)" font-family="sans-serif" font-size="9px" font-weight="bold" fill="#66a61e">0.1306s (x1.00)</text><text aria-label="Libraries: rtoml (0.13.0); Execution Time (seconds, lower=better): 0.186818599999; parser: rtoml (0.13.0); label: 0.1868s (x1.43); Execution Time (s): 0.1868; Slowdown: 1.43" role="graphics-symbol" aria-roledescription="text mark" text-anchor="middle" transform="translate(128.57142857142856,389.53719421382476)" font-family="sans-serif" font-size="9px" font-weight="bold" fill="#7570b3">0.1868s (x1.43)</text><text aria-label="Libraries: pytomlpp (1.1.0); Execution Time (seconds, lower=better): 0.2548534; parser: pytomlpp (1.1.0); label: 0.2549s (x1.95); Execution Time (s): 0.2549; Slowdown: 1.95" role="graphics-symbol" aria-roledescription="text mark" text-anchor="middle" transform="translate(214.28571428571428,387.1835971998952)" font-family="sans-serif" font-size="9px" font-weight="bold" fill="#1b9e77">0.2549s (x1.95)</text><text aria-label="Libraries: toml (0.10.2); Execution Time (seconds, lower=better): 0.5169494; parser: toml (0.10.2); label: 0.5169s (x3.96); Execution Time (s): 0.5169; Slowdown: 3.96" role="graphics-symbol" aria-roledescription="text mark" text-anchor="middle" transform="translate(299.99999999999994,378.1166437737228)" font-family="sans-serif" font-size="9px" font-weight="bold" fill="#e7298a">0.5169s (x3.96)</text><text aria-label="Libraries: tomli-w (1.2.0); Execution Time (seconds, lower=better): 0.571594199999; parser: tomli-w (1.2.0); label: 0.5716s (x4.38); Execution Time (s): 0.5716; Slowdown: 4.38" role="graphics-symbol" aria-roledescription="text mark" text-anchor="middle" transform="translate(385.71428571428567,376.2262606447568)" font-family="sans-serif" font-size="9px" font-weight="bold" fill="#e6ab02">0.5716s (x4.38)</text><text aria-label="Libraries: qtoml (0.3.1); Execution Time (seconds, lower=better): 1.3492493; parser: qtoml (0.3.1); label: 1.3492s (x10.33); Execution Time (s): 1.3492; Slowdown: 10.33" role="graphics-symbol" aria-roledescription="text mark" text-anchor="middle" transform="translate(471.4285714285714,349.3240470538555)" font-family="sans-serif" font-size="9px" font-weight="bold" fill="#d95f02">1.3492s (x10.33)</text><text aria-label="Libraries: tomlkit (0.14.0); Execution Time (seconds, lower=better): 10.5115392; parser: tomlkit (0.14.0); label: 10.5115s (x80.47); Execution Time (s): 10.5115; Slowdown: 80.47" role="graphics-symbol" aria-roledescription="text mark" text-anchor="middle" transform="translate(557.142857142857,32.363636363636374)" font-family="sans-serif" font-size="9px" font-weight="bold" fill="#a6761d">10.5115s (x80.47)</text></g><g class="mark-group role-title"><g transform="translate(300,-31)"><path class="background" aria-hidden="true" d="M0,0h0v0h0Z" pointer-events="none"/><g><g class="mark-text role-title-text" role="graphics-symbol" aria-roledescription="title" aria-label="Title text 'TOML parsers benchmark (dumps)'" pointer-events="none"><text text-anchor="middle" transform="translate(0,10)" font-family="sans-serif" font-size="13px" font-weight="bold" fill="#000" opacity="1">TOML parsers benchmark (dumps)</text></g><g class="mark-text role-title-subtitle" role="graphics-symbol" aria-roledescription="subtitle" aria-label="Subtitle text 'Python: 3.13.8 (Windows 10) | CPU: 11th Gen Intel(R) Core(TM) i5-11300H @ 3.10GHz'" pointer-events="none"><text text-anchor="middle" transform="translate(0,25)" font-family="sans-serif" font-size="12px" fill="#000" opacity="1">Python: 3.13.8 (Windows 10) | CPU: 11th Gen Intel(R) Core(TM) i5-11300H @ 3.10GHz</text></g></g><path class="foreground" aria-hidden="true" d="" pointer-events="none" display="none"/></g></g></g><path class="foreground" aria-hidden="true" d="" display="none"/></g></g></g><defs><clipPath id="clip8"><path d="M2.2595652871453353,0L74.8832918557118,0C76.13037988651242,0,77.14285714285714,1.0124772563447255,77.14285714285714,2.2595652871453353L77.14285714285714,4.519130574290671C77.14285714285714,4.519130574290671,77.14285714285714,4.519130574290671,77.14285714285714,4.519130574290671L0,4.519130574290671C0,4.519130574290671,0,4.519130574290671,0,4.519130574290671L0,2.2595652871453353C0,1.0124772563447255,1.0124772563447255,0,2.2595652871453353,0Z"/></clipPath><clipPath id="clip9"><path d="M3.231402893087619,0L73.91145424976952,0C75.69491405665795,0,77.14285714285714,1.4479430861991833,77.14285714285714,3.231402893087619L77.14285714285714,6.462805786175238C77.14285714285714,6.462805786175238,77.14285714285714,6.462805786175238,77.14285714285714,6.462805786175238L0,6.462805786175238C0,6.462805786175238,0,6.462805786175238,0,6.462805786175238L0,3.231402893087619C0,1.4479430861991833,1.4479430861991833,0,3.231402893087619,0Z"/></clipPath><clipPath id="clip10"><path d="M4.4082014000524055,0L72.73465574280473,0C75.16760832648914,0,77.14285714285714,1.975248816367997,77.14285714285714,4.4082014000524055L77.14285714285714,8.816402800104811C77.14285714285714,8.816402800104811,77.14285714285714,8.816402800104811,77.14285714285714,8.816402800104811L0,8.816402800104811C0,8.816402800104811,0,8.816402800104811,0,8.816402800104811L0,4.4082014000524055C0,1.975248816367997,1.975248816367997,0,4.4082014000524055,0Z"/></clipPath><clipPath id="clip11"><path d="M6,0L71.14285714285714,0C74.45434728982114,0,77.14285714285714,2.688509853036,77.14285714285714,6L77.14285714285714,17.883356226277215C77.14285714285714,17.883356226277215,77.14285714285714,17.883356226277215,77.14285714285714,17.883356226277215L0,17.883356226277215C0,17.883356226277215,0,17.883356226277215,0,17.883356226277215L0,6C0,2.688509853036,2.688509853036,0,6,0Z"/></clipPath><clipPath id="clip12"><path d="M6,0L71.14285714285714,0C74.45434728982114,0,77.14285714285714,2.688509853036,77.14285714285714,6L77.14285714285714,19.773739355243208C77.14285714285714,19.773739355243208,77.14285714285714,19.773739355243208,77.14285714285714,19.773739355243208L0,19.773739355243208C0,19.773739355243208,0,19.773739355243208,0,19.773739355243208L0,6C0,2.688509853036,2.688509853036,0,6,0Z"/></clipPath><clipPath id="clip13"><path d="M6,0L71.14285714285714,0C74.45434728982114,0,77.14285714285714,2.688509853036,77.14285714285714,6L77.14285714285714,46.67595294614449C77.14285714285714,46.67595294614449,77.14285714285714,46.67595294614449,77.14285714285714,46.67595294614449L0,46.67595294614449C0,46.67595294614449,0,46.67595294614449,0,46.67595294614449L0,6C0,2.688509853036,2.688509853036,0,6,0Z"/></clipPath><clipPath id="clip14"><path d="M6,0L71.14285714285714,0C74.45434728982114,0,77.14285714285714,2.688509853036,77.14285714285714,6L77.14285714285714,363.6363636363636C77.14285714285714,363.6363636363636,77.14285714285714,363.6363636363636,77.14285714285714,363.6363636363636L0,363.6363636363636C0,363.6363636363636,0,363.6363636363636,0,363.6363636363636L0,6C0,2.688509853036,2.688509853036,0,6,0Z"/></clipPath></defs></svg>