<svg xmlns="http://www.w3.org/2000/svg" xmlns:xlink="http://www.w3.org/1999/xlink" version="1.1" class="marks" width="644" height="473" viewBox="0 0 644 473"><rect width="644" height="473" fill="white"/><g fill="none" stroke-miterlimit="10" transform="translate(39,36)"><g class="mark-group role-frame root" role="graphics-object" aria-roledescription="group mark container"><g transform="translate(0,0)"><path class="background" aria-hidden="true" d="M0.5,0.5h600v400h-600Z" stroke="#ddd"/><g><g class="mark-group role-axis" aria-hidden="true"><g transform="translate(0.5,0.5)"><path class="background" aria-hidden="true" d="M0,0h0v0h0Z" pointer-events="none"/><g><g class="mark-rule role-axis-grid" pointer-events="none"><line transform="translate(0,400)" x2="600" y2="0" stroke="#ddd" stroke-width="1" opacity="1"/><line transform="translate(0,371)" x2="600" y2="0" stroke="#ddd" stroke-width="1" opacity="1"/><line transform="translate(0,342)" x2="600" y2="0" stroke="#ddd" stroke-width="1" opacity="1"/><line transform="translate(0,313)" x2="600" y2="0" stroke="#ddd" stroke-width="1" opacity="1"/><line transform="translate(0,284)" x2="600" y2="0" stroke="#ddd" stroke-width="1" opacity="1"/><line transform="translate(0,255)" x2="600" y2="0" stroke="#ddd" stroke-width="1" opacity="1"/><line transform="translate(0,227)" x2="600" y2="0" stroke="#ddd" stroke-width="1" opacity="1"/><line transform="translate(0,198)" x2="600" y2="0" stroke="#ddd" stroke-width="1" opacity="1"/><line transform="translate(0,169)" x2="600" y2="0" stroke="#ddd" stroke-width="1" opacity="1"/><line transform="translate(0,140)" x2="600" y2="0" stroke="#ddd" stroke-width="1" opacity="1"/><line transform="translate(0,111)" x2="600" y2="0" stroke="#ddd" stroke-width="1" opacity="1"/><line transform="translate(0,82)" x2="600" y2="0" stroke="#ddd" stroke-width="1" opacity="1"/><line transform="translate(0,53)" x2="600" y2="0" stroke="#ddd" stroke-width="1" opacity="1"/><line transform="translate(0,24)" x2="600" y2="0" stroke="#ddd" stroke-width="1" opacity="1"/></g></g><path class="foreground" aria-hidden="true" d="" pointer-events="none" display="none"/></g></g><g class="mark-group role-axis" role="graphics-symbol" aria-roledescription="axis" aria-label="X-axis titled 'Libraries' for a discrete scale with 7 values: toml_rs (0.3.0), rtoml (0.13.0), pytomlpp (1.1.0), tomllib (built-in), toml (0.10.2), qtoml (0.3.1), tomlkit (0.14.0)"><g transform="translate(0.5,400.5)"><path class="background" aria-hidden="true" d="M0,0h0v0h0Z" pointer-events="none"/><g><g class="mark-rule role-axis-tick" pointer-events="none"><line transform="translate(42,0)" x2="0" y2="5" stroke="#888" stroke-width="1" opacity="1"/><line transform="translate(128,0)" x2="0" y2="5" stroke="#888" stroke-width="1" opacity="1"/><line transform="translate(214,0)" x2="0" y2="5" stroke="#888" stroke-width="1" opacity="1"/><line transform="translate(299,0)" x2="0" y2="5" stroke="#888" stroke-width="1" opacity="1"/><line transform="translate(385,0)" x2="0" y2="5" stroke="#888" stroke-width="1" opacity="1"/><line transform="translate(471,0)" x2="0" y2="5" stroke="#888" stroke-width="1" opacity="1"/><line transform="translate(557,0)" x2="0" y2="5" stroke="#888" stroke-width="1" opacity="1"/></g><g class="mark-text role-axis-label" pointer-events="none"><text text-anchor="middle" transform="translate(42.35714285714285,15)" font-family="sans-serif" font-size="10px" fill="#000" opacity="1">toml_rs (0.3.0)</text><text text-anchor="middle" transform="translate(128.07142857142856,15)" font-family="sans-serif" font-size="10px" fill="#000" opacity="1">rtoml (0.13.0)</text><text text-anchor="middle" transform="translate(213.78571428571428,15)" font-family="sans-serif" font-size="10px" fill="#000" opacity="1">pytomlpp (1.1.0)</text><text text-anchor="middle" transform="translate(299.49999999999994,15)" font-family="sans-serif" font-size="10px" fill="#000" opacity="1">tomllib (built-in)</text><text text-anchor="middle" transform="translate(385.21428571428567,15)" font-family="sans-serif" font-size="10px" fill="#000" opacity="1">toml (0.10.2)</text><text text-anchor="middle" transform="translate(470.9285714285714,15)" font-family="sans-serif" font-size="10px" fill="#000" opacity="1">qtoml (0.3.1)</text><text text-anchor="middle" transform="translate(556.642857142857,15)" font-family="sans-serif" font-size="10px" fill="#000" opacity="1">tomlkit (0.14.0)</text></g><g class="mark-rule role-axis-domain" pointer-events="none"><line transform="translate(0,0)" x2="600" y2="0" stroke="#888" stroke-width="1" opacity="1"/></g><g class="mark-text role-axis-title" pointer-events="none"><text text-anchor="middle" transform="translate(300,30)" font-family="sans-serif" font-size="11px" font-weight="bold" fill="#000" opacity="1">Libraries</text></g></g><path class="foreground" aria-hidden="true" d="" pointer-events="none" display="none"/></g></g><g class="mark-group role-axis" role="graphics-symbol" aria-roledescription="axis" aria-label="Y-axis titled 'Execution Time (seconds, lower=better)' for a linear scale with values from 0 to 28"><g transform="translate(0.5,0.5)"><path class="background" aria-hidden="true" d="M0,0h0v0h0Z" pointer-events="none"/><g><g class="mark-rule role-axis-tick" pointer-events="none"><line transform="translate(0,400)" x2="-5" y2="0" stroke="#888" stroke-width="1" opacity="1"/><line transform="translate(0,371)" x2="-5" y2="0" stroke="#888" stroke-width="1" opacity="1"/><line transform="translate(0,342)" x2="-5" y2="0" stroke="#888" stroke-width="1" opacity="1"/><line transform="translate(0,313)" x2="-5" y2="0" stroke="#888" stroke-width="1" opacity="1"/><line transform="translate(0,284)" x2="-5" y2="0" stroke="#888" stroke-width="1" opacity="1"/><line transform="translate(0,255)" x2="-5" y2="0" stroke="#888" stroke-width="1" opacity="1"/><line transform="translate(0,227)" x2="-5" y2="0" stroke="#888" stroke-width="1" opacity="1"/><line transform="translate(0,198)" x2="-5" y2="0" stroke="#888" stroke-width="1" opacity="1"/><line transform="translate(0,169)" x2="-5" y2="0" stroke="#888" stroke-width="1" opacity="1"/><line transform="translate(0,140)" x2="-5" y2="0" stroke="#888" stroke-width="1" opacity="1"/><line transform="translate(0,111)" x2="-5" y2="0" stroke="#888" stroke-width="1" opacity="1"/><line transform="translate(0,82)" x2="-5" y2="0" stroke="#888" stroke-width="1" opacity="1"/><line transform="translate(0,53)" x2="-5" y2="0" stroke="#888" stroke-width="1" opacity="1"/><line transform="translate(0,24)" x2="-5" y2="0" stroke="#888" stroke-width="1" opacity="1"/></g><g class="mark-text role-axis-label" pointer-events="none"><text text-anchor="end" transform="translate(-7,403)" font-family="sans-serif" font-size="10px" fill="#000" opacity="1">0</text><text text-anchor="end" transform="translate(-7,374.0843107330271)" font-family="sans-serif" font-size="10px" fill="#000" opacity="1">2</text><text text-anchor="end" transform="translate(-7,345.1686214660542)" font-family="sans-serif" font-size="10px" fill="#000" opacity="1">4</text><text text-anchor="end" transform="translate(-7,316.25293219908133)" font-family="sans-serif" font-size="10px" fill="#000" opacity="1">6</text><text text-anchor="end" transform="translate(-7,287.3372429321084)" font-family="sans-serif" font-size="10px" fill="#000" opacity="1">8</text><text text-anchor="end" transform="translate(-7,258.42155366513555)" font-family="sans-serif" font-size="10px" fill="#000" opacity="1">10</text><text text-anchor="end" transform="translate(-7,229.5058643981626)" font-family="sans-serif" font-size="10px" fill="#000" opacity="1">12</text><text text-anchor="end" transform="translate(-7,200.59017513118974)" font-family="sans-serif" font-size="10px" fill="#000" opacity="1">14</text><text text-anchor="end" transform="translate(-7,171.67448586421685)" font-family="sans-serif" font-size="10px" fill="#000" opacity="1">16</text><text text-anchor="end" transform="translate(-7,142.75879659724396)" font-family="sans-serif" font-size="10px" fill="#000" opacity="1">18</text><text text-anchor="end" transform="translate(-7,113.84310733027105)" font-family="sans-serif" font-size="10px" fill="#000" opacity="1">20</text><text text-anchor="end" transform="translate(-7,84.92741806329815)" font-family="sans-serif" font-size="10px" fill="#000" opacity="1">22</text><text text-anchor="end" transform="translate(-7,56.01172879632525)" font-family="sans-serif" font-size="10px" fill="#000" opacity="1">24</text><text text-anchor="end" transform="translate(-7,27.096039529352353)" font-family="sans-serif" font-size="10px" fill="#000" opacity="1">26</text></g><g class="mark-rule role-axis-domain" pointer-events="none"><line transform="translate(0,400)" x2="0" y2="-400" stroke="#888" stroke-width="1" opacity="1"/></g><g class="mark-text role-axis-title" pointer-events="none"><text text-anchor="middle" transform="translate(-22.123046875,200) rotate(-90) translate(0,-2)" font-family="sans-serif" font-size="11px" font-weight="bold" fill="#000" opacity="1">Execution Time (seconds, lower=better)</text></g></g><path class="foreground" aria-hidden="true" d="" pointer-events="none" display="none"/></g></g><g class="mark-group role-scope" role="graphics-object" aria-roledescription="group mark container"><g transform="translate(4.285714285714278,398.2429338043536)"><path class="background" aria-hidden="true" d="M0.8785330978232082,0L76.26432404503393,0C76.74919966123781,0,77.14285714285714,0.39365748161932257,77.14285714285714,0.8785330978232082L77.14285714285714,1.7570661956464164C77.14285714285714,1.7570661956464164,77.14285714285714,1.7570661956464164,77.14285714285714,1.7570661956464164L0,1.7570661956464164C0,1.7570661956464164,0,1.7570661956464164,0,1.7570661956464164L0,0.8785330978232082C0,0.39365748161932257,0.39365748161932257,0,0.8785330978232082,0Z"/><g clip-path="url(#clip1)"><g class="mark-group role-scope" role="graphics-object" aria-roledescription="group mark container"><g transform="translate(0,-398.2429338043536)"><path class="background" aria-hidden="true" d="M0,0h77.14285714285714v0h-77.14285714285714Z"/><g><g class="mark-rect role-mark layer_0_marks" role="graphics-object" aria-roledescription="rect mark container"><path aria-label="Libraries: toml_rs (0.3.0); Execution Time (seconds, lower=better): 0.121530299999; parser: toml_rs (0.3.0); Execution Time (s): 0.1215; Slowdown: 1.00" role="graphics-symbol" aria-roledescription="bar" d="M0,398.2429338043536h77.14285714285714v1.7570661956464164h-77.14285714285714Z" fill="#66a61e"/></g></g><path class="foreground" aria-hidden="true" d="" display="none"/></g></g></g><path class="foreground" aria-hidden="true" d="" display="none"/></g><g transform="translate(89.99999999999999,395.76720429655745)"><path class="background" aria-hidden="true" d="M2.116397851721274,0L75.02645929113586,0C76.19453106330766,0,77.14285714285714,0.9483260795494781,77.14285714285714,2.116397851721274L77.14285714285714,4.232795703442548C77.14285714285714,4.232795703442548,77.14285714285714,4.232795703442548,77.14285714285714,4.232795703442548L0,4.232795703442548C0,4.232795703442548,0,4.232795703442548,0,4.232795703442548L0,2.116397851721274C0,0.9483260795494781,0.9483260795494781,0,2.116397851721274,0Z"/><g clip-path="url(#clip2)"><g class="mark-group role-scope" role="graphics-object" aria-roledescription="group mark container"><g transform="translate(0,-395.76720429655745)"><path class="background" aria-hidden="true" d="M0,0h77.14285714285714v0h-77.14285714285714Z"/><g><g class="mark-rect role-mark layer_0_marks" role="graphics-object" aria-roledescription="rect mark container"><path aria-label="Libraries: rtoml (0.13.0); Execution Time (seconds, lower=better): 0.2927681; parser: rtoml (0.13.0); Execution Time (s): 0.2928; Slowdown: 2.41" role="graphics-symbol" aria-roledescription="bar" d="M0,395.76720429655745h77.14285714285714v4.232795703442548h-77.14285714285714Z" fill="#7570b3"/></g></g><path class="foreground" aria-hidden="true" d="" display="none"/></g></g></g><path class="foreground" aria-hidden="true" d="" display="none"/></g><g transform="translate(175.7142857142857,394.12193483031155)"><path class="background" aria-hidden="true" d="M2.9390325848442274,0L74.20382455801291,0C75.82592079906588,0,77.14285714285714,1.3169363437912616,77.14285714285714,2.9390325848442274L77.14285714285714,5.878065169688455C77.14285714285714,5.878065169688455,77.14285714285714,5.878065169688455,77.14285714285714,5.878065169688455L0,5.878065169688455C0,5.878065169688455,0,5.878065169688455,0,5.878065169688455L0,2.9390325848442274C0,1.3169363437912616,1.3169363437912616,0,2.9390325848442274,0Z"/><g clip-path="url(#clip3)"><g class="mark-group role-scope" role="graphics-object" aria-roledescription="group mark container"><g transform="translate(0,-394.12193483031155)"><path class="background" aria-hidden="true" d="M0,0h77.14285714285714v0h-77.14285714285714Z"/><g><g class="mark-rect role-mark layer_0_marks" role="graphics-object" aria-roledescription="rect mark container"><path aria-label="Libraries: pytomlpp (1.1.0); Execution Time (seconds, lower=better): 0.4065658; parser: pytomlpp (1.1.0); Execution Time (s): 0.4066; Slowdown: 3.35" role="graphics-symbol" aria-roledescription="bar" d="M0,394.12193483031155h77.14285714285714v5.878065169688455h-77.14285714285714Z" fill="#1b9e77"/></g></g><path class="foreground" aria-hidden="true" d="" display="none"/></g></g></g><path class="foreground" aria-hidden="true" d="" display="none"/></g><g transform="translate(261.4285714285714,378.27073132390353)"><path class="background" aria-hidden="true" d="M6,0L71.14285714285714,0C74.45434728982114,0,77.14285714285714,2.688509853036,77.14285714285714,6L77.14285714285714,21.729268676096467C77.14285714285714,21.729268676096467,77.14285714285714,21.729268676096467,77.14285714285714,21.729268676096467L0,21.729268676096467C0,21.729268676096467,0,21.729268676096467,0,21.729268676096467L0,6C0,2.688509853036,2.688509853036,0,6,0Z"/><g clip-path="url(#clip4)"><g class="mark-group role-scope" role="graphics-object" aria-roledescription="group mark container"><g transform="translate(0,-378.27073132390353)"><path class="background" aria-hidden="true" d="M0,0h77.14285714285714v0h-77.14285714285714Z"/><g><g class="mark-rect role-mark layer_0_marks" role="graphics-object" aria-roledescription="rect mark container"><path aria-label="Libraries: tomllib (built-in); Execution Time (seconds, lower=better): 1.5029397; parser: tomllib (built-in); Execution Time (s): 1.5029; Slowdown: 12.37" role="graphics-symbol" aria-roledescription="bar" d="M0,378.27073132390353h77.14285714285714v21.729268676096467h-77.14285714285714Z" fill="#a6761d"/></g></g><path class="foreground" aria-hidden="true" d="" display="none"/></g></g></g><path class="foreground" aria-hidden="true" d="" display="none"/></g><g transform="translate(347.1428571428571,349.2618901639539)"><path class="background" aria-hidden="true" d="M6,0L71.14285714285714,0C74.45434728982114,0,77.14285714285714,2.688509853036,77.14285714285714,6L77.14285714285714,50.73810983604608C77.14285714285714,50.73810983604608,77.14285714285714,50.73810983604608,77.14285714285714,50.73810983604608L0,50.73810983604608C0,50.73810983604608,0,50.73810983604608,0,50.73810983604608L0,6C0,2.688509853036,2.688509853036,0,6,0Z"/><g clip-path="url(#clip5)"><g class="mark-group role-scope" role="graphics-object" aria-roledescription="group mark container"><g transform="translate(0,-349.2618901639539)"><path class="background" aria-hidden="true" d="M0,0h77.14285714285714v0h-77.14285714285714Z"/><g><g class="mark-rect role-mark layer_0_marks" role="graphics-object" aria-roledescription="rect mark container"><path aria-label="Libraries: toml (0.10.2); Execution Time (seconds, lower=better): 3.5093827; parser: toml (0.10.2); Execution Time (s): 3.5094; Slowdown: 28.88" role="graphics-symbol" aria-roledescription="bar" d="M0,349.2618901639539h77.14285714285714v50.73810983604608h-77.14285714285714Z" fill="#e7298a"/></g></g><path class="foreground" aria-hidden="true" d="" display="none"/></g></g></g><path class="foreground" aria-hidden="true" d="" display="none"/></g><g transform="translate(432.85714285714283,346.62478508593983)"><path class="background" aria-hidden="true" d="M6,0L71.14285714285714,0C74.45434728982114,0,77.14285714285714,2.688509853036,77.14285714285714,6L77.14285714285714,53.375214914060166C77.14285714285714,53.375214914060166,77.14285714285714,53.375214914060166,77.14285714285714,53.375214914060166L0,53.375214914060166C0,53.375214914060166,0,53.375214914060166,0,53.375214914060166L0,6C0,2.688509853036,2.688509853036,0,6,0Z"/><g clip-path="url(#clip6)"><g class="mark-group role-scope" role="graphics-object" aria-roledescription="group mark container"><g transform="translate(0,-346.62478508593983)"><path class="background" aria-hidden="true" d="M0,0h77.14285714285714v0h-77.14285714285714Z"/><g><g class="mark-rect role-mark layer_0_marks" role="graphics-object" aria-roledescription="rect mark container"><path aria-label="Libraries: qtoml (0.3.1); Execution Time (seconds, lower=better): 3.6917823; parser: qtoml (0.3.1); Execution Time (s): 3.6918; Slowdown: 30.38" role="graphics-symbol" aria-roledescription="bar" d="M0,346.62478508593983h77.14285714285714v53.375214914060166h-77.14285714285714Z" fill="#d95f02"/></g></g><path class="foreground" aria-hidden="true" d="" display="none"/></g></g></g><path class="foreground" aria-hidden="true" d="" display="none"/></g><g transform="translate(518.5714285714284,36.363636363636374)"><path class="background" aria-hidden="true" d="M6,0L71.14285714285714,0C74.45434728982114,0,77.14285714285714,2.688509853036,77.14285714285714,6L77.14285714285714,363.6363636363636C77.14285714285714,363.6363636363636,77.14285714285714,363.6363636363636,77.14285714285714,363.6363636363636L0,363.6363636363636C0,363.6363636363636,0,363.6363636363636,0,363.6363636363636L0,6C0,2.688509853036,2.688509853036,0,6,0Z"/><g clip-path="url(#clip7)"><g class="mark-group role-scope" role="graphics-object" aria-roledescription="group mark container"><g transform="translate(0,-36.363636363636374)"><path class="background" aria-hidden="true" d="M0,0h77.14285714285714v0h-77.14285714285714Z"/><g><g class="mark-rect role-mark layer_0_marks" role="graphics-object" aria-roledescription="rect mark container"><path aria-label="Libraries: tomlkit (0.14.0); Execution Time (seconds, lower=better): 25.151492; parser: tomlkit (0.14.0); Execution Time (s): 25.1515; Slowdown: 206.96" role="graphics-symbol" aria-roledescription="bar" d="M0,36.363636363636374h77.14285714285714v363.6363636363636h-77.14285714285714Z" fill="#e6ab02"/></g></g><path class="foreground" aria-hidden="true" d="" display="none"/></g></g></g><path class="foreground" aria-hidden="true" d="" display="none"/></g></g><g class="mark-text role-mark layer_1_marks" role="graphics-object" aria-roledescription="text mark container"><text aria-label="Libraries: toml_rs (0.3.0); Execution Time (seconds, lower=better): 0.121530299999; parser: toml_rs (0.3.0); label: 0.1215s (x1.00); Execution Time (s): 0.1215; Slowdown: 1.00" role="graphics-symbol" aria-roledescription="text mark" text-anchor="middle" transform="translate(42.85714285714285,394.2429338043536)" font-family="sans-serif" font-size="9px" font-weight="bold" fill="#66a61e">0.1215s (x1.00)</text><text aria-label="Libraries: rtoml (0.13.0); Execution Time (seconds, lower=better): 0.2927681; parser: rtoml (0.13.0); label: 0.2928s (x2.41); Execution Time (s): 0.2928; Slowdown: 2.41" role="graphics-symbol" aria-roledescription="text mark" text-anchor="middle" transform="translate(128.57142857142856,391.76720429655745)" font-family="sans-serif" font-size="9px" font-weight="bold" fill="#7570b3">0.2928s (x2.41)</text><text aria-label="Libraries: pytomlpp (1.1.0); Execution Time (seconds, lower=better): 0.4065658; parser: pytomlpp (1.1.0); label: 0.4066s (x3.35); Execution Time (s): 0.4066; Slowdown: 3.35" role="graphics-symbol" aria-roledescription="text mark" text-anchor="middle" transform="translate(214.28571428571428,390.12193483031155)" font-family="sans-serif" font-size="9px" font-weight="bold" fill="#1b9e77">0.4066s (x3.35)</text><text aria-label="Libraries: tomllib (built-in); Execution Time (seconds, lower=better): 1.5029397; parser: tomllib (built-in); label: 1.5029s (x12.37); Execution Time (s): 1.5029; Slowdown: 12.37" role="graphics-symbol" aria-roledescription="text mark" text-anchor="middle" transform="translate(299.99999999999994,374.27073132390353)" font-family="sans-serif" font-size="9px" font-weight="bold" fill="#a6761d">1.5029s (x12.37)</text><text aria-label="Libraries: toml (0.10.2); Execution Time (seconds, lower=better): 3.5093827; parser: toml (0.10.2); label: 3.5094s (x28.88); Execution Time (s): 3.5094; Slowdown: 28.88" role="graphics-symbol" aria-roledescription="text mark" text-anchor="middle" transform="translate(385.71428571428567,345.2618901639539)" font-family="sans-serif" font-size="9px" font-weight="bold" fill="#e7298a">3.5094s (x28.88)</text><text aria-label="Libraries: qtoml (0.3.1); Execution Time (seconds, lower=better): 3.6917823; parser: qtoml (0.3.1); label: 3.6918s (x30.38); Execution Time (s): 3.6918; Slowdown: 30.38" role="graphics-symbol" aria-roledescription="text mark" text-anchor="middle" transform="translate(471.4285714285714,342.62478508593983)" font-family="sans-serif" font-size="9px" font-weight="bold" fill="#d95f02">3.6918s (x30.38)</text><text aria-label="Libraries: tomlkit (0.14.0); Execution Time (seconds, lower=better): 25.151492; parser: tomlkit (0.14.0); label: 25.1515s (x206.96); Execution Time (s): 25.1515; Slowdown: 206.96" role="graphics-symbol" aria-roledescription="text mark" text-anchor="middle" transform="translate(557.142857142857,32.363636363636374)" font-family="sans-serif" font-size="9px" font-weight="bold" fill="#e6ab02">25.1515s (x206.96)</text></g><g class="mark-group role-title"><g transform="translate(300,-31)"><path class="background" aria-hidden="true" d="M0,0h0v0h0Z" pointer-events="none"/><g><g class="mark-text role-title-text" role="graphics-symbol" aria-roledescription="title" aria-label="Title text 'TOML parsers benchmark (loads)'" pointer-events="none"><text text-anchor="middle" transform="translate(0,10)" font-family="sans-serif" font-size="13px" font-weight="bold" fill="#000" opacity="1">TOML parsers benchmark (loads)</text></g><g class="mark-text role-title-subtitle" role="graphics-symbol" aria-roledescription="subtitle" aria-label="Subtitle text 'Python: 3.13.8 (Windows 10) | CPU: 11th Gen Intel(R) Core(TM) i5-11300H @ 3.10GHz'" pointer-events="none"><text text-anchor="middle" transform="translate(0,25)" font-family="sans-serif" font-size="12px" fill="#000" opacity="1">Python: 3.13.8 (Windows 10) | CPU: 11th Gen Intel(R) Core(TM) i5-11300H @ 3.10GHz</text></g></g><path class="foreground" aria-hidden="true" d="" pointer-events="none" display="none"/></g></g></g><path class="foreground" aria-hidden="true" d="" display="none"/></g></g></g><defs><clipPath id="clip1"><path d="M0.8785330978232082,0L76.26432404503393,0C76.74919966123781,0,77.14285714285714,0.39365748161932257,77.14285714285714,0.8785330978232082L77.14285714285714,1.7570661956464164C77.14285714285714,1.7570661956464164,77.14285714285714,1.7570661956464164,77.14285714285714,1.7570661956464164L0,1.7570661956464164C0,1.7570661956464164,0,1.7570661956464164,0,1.7570661956464164L0,0.8785330978232082C0,0.39365748161932257,0.39365748161932257,0,0.8785330978232082,0Z"/></clipPath><clipPath id="clip2"><path d="M2.116397851721274,0L75.02645929113586,0C76.19453106330766,0,77.14285714285714,0.9483260795494781,77.14285714285714,2.116397851721274L77.14285714285714,4.232795703442548C77.14285714285714,4.232795703442548,77.14285714285714,4.232795703442548,77.14285714285714,4.232795703442548L0,4.232795703442548C0,4.232795703442548,0,4.232795703442548,0,4.232795703442548L0,2.116397851721274C0,0.9483260795494781,0.9483260795494781,0,2.116397851721274,0Z"/></clipPath><clipPath id="clip3"><path d="M2.9390325848442274,0L74.20382455801291,0C75.82592079906588,0,77.14285714285714,1.3169363437912616,77.14285714285714,2.9390325848442274L77.14285714285714,5.878065169688455C77.14285714285714,5.878065169688455,77.14285714285714,5.878065169688455,77.14285714285714,5.878065169688455L0,5.878065169688455C0,5.878065169688455,0,5.878065169688455,0,5.878065169688455L0,2.9390325848442274C0,1.3169363437912616,1.3169363437912616,0,2.9390325848442274,0Z"/></clipPath><clipPath id="clip4"><path d="M6,0L71.14285714285714,0C74.45434728982114,0,77.14285714285714,2.688509853036,77.14285714285714,6L77.14285714285714,21.729268676096467C77.14285714285714,21.729268676096467,77.14285714285714,21.729268676096467,77.14285714285714,21.729268676096467L0,21.729268676096467C0,21.729268676096467,0,21.729268676096467,0,21.729268676096467L0,6C0,2.688509853036,2.688509853036,0,6,0Z"/></clipPath><clipPath id="clip5"><path d="M6,0L71.14285714285714,0C74.45434728982114,0,77.14285714285714,2.688509853036,77.14285714285714,6L77.14285714285714,50.73810983604608C77.14285714285714,50.73810983604608,77.14285714285714,50.73810983604608,77.14285714285714,50.73810983604608L0,50.73810983604608C0,50.73810983604608,0,50.73810983604608,0,50.73810983604608L0,6C0,2.688509853036,2.688509853036,0,6,0Z"/></clipPath><clipPath id="clip6"><path d="M6,0L71.14285714285714,0C74.45434728982114,0,77.14285714285714,2.688509853036,77.14285714285714,6L77.14285714285714,53.375214914060166C77.14285714285714,53.375214914060166,77.14285714285714,53.375214914060166,77.14285714285714,53.375214914060166L0,53.375214914060166C0,53.375214914060166,0,53.375214914060166,0,53.375214914060166L0,6C0,2.688509853036,2.688509853036,0,6,0Z"/></clipPath><clipPath id="clip7"><path d="M6,0L71.14285714285714,0C74.45434728982114,0,77.14285714285714,2.688509853036,77.14285714285714,6L77.14285714285714,363.6363636363636C77.14285714285714,363.6363636363636,77.14285714285714,363.6363636363636,77.14285714285714,363.6363636363636L0,363.6363636363636C0,363.6363636363636,0,363.6363636363636,0,363.6363636363636L0,6C0,2.688509853036,2.688509853036,0,6,0Z"/></clipPath></defs></svg>