<svg xmlns="http://www.w3.org/2000/svg" xmlns:xlink="http://www.w3.org/1999/xlink" version="1.1" class="marks" width="844" height="687" viewBox="0 0 844 687"><rect width="844" height="687" fill="white"/><g fill="none" stroke-miterlimit="10" transform="translate(39,36)"><g class="mark-group role-frame root" role="graphics-object" aria-roledescription="group mark container"><g transform="translate(0,0)"><path class="background" aria-hidden="true" d="M0.5,0.5h800v600h-800Z" stroke="#ddd"/><g><g class="mark-group role-axis" role="graphics-symbol" aria-roledescription="axis" aria-label="X-axis titled 'Parser' for a discrete scale with 7 values: toml_rs&#xA;0.3.2, rtoml&#xA;0.13.0, pytomlpp&#xA;1.1.0, tomllib&#xA;built-in, toml&#xA;0.10.2, qtoml&#xA;0.3.1, tomlkit&#xA;0.14.0"><g transform="translate(0.5,600.5)"><path class="background" aria-hidden="true" d="M0,0h0v0h0Z" pointer-events="none"/><g><g class="mark-rule role-axis-tick" pointer-events="none"><line transform="translate(57,0)" x2="0" y2="5" stroke="#888" stroke-width="1" opacity="1"/><line transform="translate(171,0)" x2="0" y2="5" stroke="#888" stroke-width="1" opacity="1"/><line transform="translate(285,0)" x2="0" y2="5" stroke="#888" stroke-width="1" opacity="1"/><line transform="translate(400,0)" x2="0" y2="5" stroke="#888" stroke-width="1" opacity="1"/><line transform="translate(514,0)" x2="0" y2="5" stroke="#888" stroke-width="1" opacity="1"/><line transform="translate(628,0)" x2="0" y2="5" stroke="#888" stroke-width="1" opacity="1"/><line transform="translate(742,0)" x2="0" y2="5" stroke="#888" stroke-width="1" opacity="1"/></g><g class="mark-text role-axis-label" pointer-events="none"><text text-anchor="middle" transform="translate(56.642857142857096,15)" font-family="sans-serif" font-size="10px" fill="#000" opacity="1"><tspan>toml_rs</tspan><tspan x="0" dy="14">0.3.2</tspan></text><text text-anchor="middle" transform="translate(170.9285714285714,15)" font-family="sans-serif" font-size="10px" fill="#000" opacity="1"><tspan>rtoml</tspan><tspan x="0" dy="14">0.13.0</tspan></text><text text-anchor="middle" transform="translate(285.21428571428567,15)" font-family="sans-serif" font-size="10px" fill="#000" opacity="1"><tspan>pytomlpp</tspan><tspan x="0" dy="14">1.1.0</tspan></text><text text-anchor="middle" transform="translate(399.5,15)" font-family="sans-serif" font-size="10px" fill="#000" opacity="1"><tspan>tomllib</tspan><tspan x="0" dy="14">built-in</tspan></text><text text-anchor="middle" transform="translate(513.7857142857142,15)" font-family="sans-serif" font-size="10px" fill="#000" opacity="1"><tspan>toml</tspan><tspan x="0" dy="14">0.10.2</tspan></text><text text-anchor="middle" transform="translate(628.0714285714286,15)" font-family="sans-serif" font-size="10px" fill="#000" opacity="1"><tspan>qtoml</tspan><tspan x="0" dy="14">0.3.1</tspan></text><text text-anchor="middle" transform="translate(742.3571428571429,15)" font-family="sans-serif" font-size="10px" fill="#000" opacity="1"><tspan>tomlkit</tspan><tspan x="0" dy="14">0.14.0</tspan></text></g><g class="mark-rule role-axis-domain" pointer-events="none"><line transform="translate(0,0)" x2="800" y2="0" stroke="#888" stroke-width="1" opacity="1"/></g><g class="mark-text role-axis-title" pointer-events="none"><text text-anchor="middle" transform="translate(400,44)" font-family="sans-serif" font-size="11px" font-weight="bold" fill="#000" opacity="1">Parser</text></g></g><path class="foreground" aria-hidden="true" d="" pointer-events="none" display="none"/></g></g><g class="mark-group role-axis" role="graphics-symbol" aria-roledescription="axis" aria-label="Y-axis titled 'Execution Time (seconds, lower=better)' for a linear scale with values from 0 to 27"><g transform="translate(0.5,0.5)"><path class="background" aria-hidden="true" d="M0,0h0v0h0Z" pointer-events="none"/><g><g class="mark-rule role-axis-tick" pointer-events="none"><line transform="translate(0,600)" x2="-5" y2="0" stroke="#888" stroke-width="1" opacity="1"/><line transform="translate(0,555)" x2="-5" y2="0" stroke="#888" stroke-width="1" opacity="1"/><line transform="translate(0,509)" x2="-5" y2="0" stroke="#888" stroke-width="1" opacity="1"/><line transform="translate(0,464)" x2="-5" y2="0" stroke="#888" stroke-width="1" opacity="1"/><line transform="translate(0,419)" x2="-5" y2="0" stroke="#888" stroke-width="1" opacity="1"/><line transform="translate(0,374)" x2="-5" y2="0" stroke="#888" stroke-width="1" opacity="1"/><line transform="translate(0,328)" x2="-5" y2="0" stroke="#888" stroke-width="1" opacity="1"/><line transform="translate(0,283)" x2="-5" y2="0" stroke="#888" stroke-width="1" opacity="1"/><line transform="translate(0,238)" x2="-5" y2="0" stroke="#888" stroke-width="1" opacity="1"/><line transform="translate(0,192)" x2="-5" y2="0" stroke="#888" stroke-width="1" opacity="1"/><line transform="translate(0,147)" x2="-5" y2="0" stroke="#888" stroke-width="1" opacity="1"/><line transform="translate(0,102)" x2="-5" y2="0" stroke="#888" stroke-width="1" opacity="1"/><line transform="translate(0,57)" x2="-5" y2="0" stroke="#888" stroke-width="1" opacity="1"/><line transform="translate(0,11)" x2="-5" y2="0" stroke="#888" stroke-width="1" opacity="1"/></g><g class="mark-text role-axis-label" pointer-events="none"><text text-anchor="end" transform="translate(-7,603)" font-family="sans-serif" font-size="10px" fill="#000" opacity="1">0</text><text text-anchor="end" transform="translate(-7,557.720345851215)" font-family="sans-serif" font-size="10px" fill="#000" opacity="1">2</text><text text-anchor="end" transform="translate(-7,512.4406917024301)" font-family="sans-serif" font-size="10px" fill="#000" opacity="1">4</text><text text-anchor="end" transform="translate(-7,467.161037553645)" font-family="sans-serif" font-size="10px" fill="#000" opacity="1">6</text><text text-anchor="end" transform="translate(-7,421.88138340485995)" font-family="sans-serif" font-size="10px" fill="#000" opacity="1">8</text><text text-anchor="end" transform="translate(-7,376.60172925607503)" font-family="sans-serif" font-size="10px" fill="#000" opacity="1">10</text><text text-anchor="end" transform="translate(-7,331.32207510728995)" font-family="sans-serif" font-size="10px" fill="#000" opacity="1">12</text><text text-anchor="end" transform="translate(-7,286.042420958505)" font-family="sans-serif" font-size="10px" fill="#000" opacity="1">14</text><text text-anchor="end" transform="translate(-7,240.76276680972)" font-family="sans-serif" font-size="10px" fill="#000" opacity="1">16</text><text text-anchor="end" transform="translate(-7,195.48311266093498)" font-family="sans-serif" font-size="10px" fill="#000" opacity="1">18</text><text text-anchor="end" transform="translate(-7,150.20345851214998)" font-family="sans-serif" font-size="10px" fill="#000" opacity="1">20</text><text text-anchor="end" transform="translate(-7,104.92380436336497)" font-family="sans-serif" font-size="10px" fill="#000" opacity="1">22</text><text text-anchor="end" transform="translate(-7,59.64415021457996)" font-family="sans-serif" font-size="10px" fill="#000" opacity="1">24</text><text text-anchor="end" transform="translate(-7,14.364496065794949)" font-family="sans-serif" font-size="10px" fill="#000" opacity="1">26</text></g><g class="mark-rule role-axis-domain" pointer-events="none"><line transform="translate(0,600)" x2="0" y2="-600" stroke="#888" stroke-width="1" opacity="1"/></g><g class="mark-text role-axis-title" pointer-events="none"><text text-anchor="middle" transform="translate(-22.123046875,300) rotate(-90) translate(0,-2)" font-family="sans-serif" font-size="11px" font-weight="bold" fill="#000" opacity="1">Execution Time (seconds, lower=better)</text></g></g><path class="foreground" aria-hidden="true" d="" pointer-events="none" display="none"/></g></g><g class="mark-group role-scope" role="graphics-object" aria-roledescription="group mark container"><g transform="translate(5.714285714285666,596.9559620507254)"><path class="background" aria-hidden="true" d="M1.5220189746373194,0L101.33512388250554,0C102.17514902217283,0,102.85714285714286,0.6819938349700305,102.85714285714286,1.5220189746373194L102.85714285714286,3.0440379492746388C102.85714285714286,3.0440379492746388,102.85714285714286,3.0440379492746388,102.85714285714286,3.0440379492746388L0,3.0440379492746388C0,3.0440379492746388,0,3.0440379492746388,0,3.0440379492746388L0,1.5220189746373194C0,0.6819938349700305,0.6819938349700305,0,1.5220189746373194,0Z"/><g clip-path="url(#clip1)"><g class="mark-group role-scope" role="graphics-object" aria-roledescription="group mark container"><g transform="translate(0,-596.9559620507254)"><path class="background" aria-hidden="true" d="M0,0h102.85714285714286v0h-102.85714285714286Z"/><g><g class="mark-rect role-mark layer_0_marks" role="graphics-object" aria-roledescription="rect mark container"><path aria-label="Parser: toml_rs&#xA;0.3.2; Execution Time (seconds, lower=better): 0.134454999999; parser: toml_rs; Execution Time (s): 0.1345; Slowdown: 1.00" role="graphics-symbol" aria-roledescription="bar" d="M0,596.9559620507254h102.85714285714286v3.0440379492746388h-102.85714285714286Z" fill="#66a61e"/></g></g><path class="foreground" aria-hidden="true" d="" display="none"/></g></g></g><path class="foreground" aria-hidden="true" d="" display="none"/></g><g transform="translate(119.99999999999996,593.7169657585705)"><path class="background" aria-hidden="true" d="M3.1415171207147523,0L99.71562573642811,0C101.44947623505571,0,102.85714285714286,1.4076666220871494,102.85714285714286,3.1415171207147523L102.85714285714286,6.283034241429505C102.85714285714286,6.283034241429505,102.85714285714286,6.283034241429505,102.85714285714286,6.283034241429505L0,6.283034241429505C0,6.283034241429505,0,6.283034241429505,0,6.283034241429505L0,3.1415171207147523C0,1.4076666220871494,1.4076666220871494,0,3.1415171207147523,0Z"/><g clip-path="url(#clip2)"><g class="mark-group role-scope" role="graphics-object" aria-roledescription="group mark container"><g transform="translate(0,-593.7169657585705)"><path class="background" aria-hidden="true" d="M0,0h102.85714285714286v0h-102.85714285714286Z"/><g><g class="mark-rect role-mark layer_0_marks" role="graphics-object" aria-roledescription="rect mark container"><path aria-label="Parser: rtoml&#xA;0.13.0; Execution Time (seconds, lower=better): 0.277521299999; parser: rtoml; Execution Time (s): 0.2775; Slowdown: 2.06" role="graphics-symbol" aria-roledescription="bar" d="M0,593.7169657585705h102.85714285714286v6.283034241429505h-102.85714285714286Z" fill="#7570b3"/></g></g><path class="foreground" aria-hidden="true" d="" display="none"/></g></g></g><path class="foreground" aria-hidden="true" d="" display="none"/></g><g transform="translate(234.28571428571425,591.773587906263)"><path class="background" aria-hidden="true" d="M4.113206046868527,0L98.74393681027433,0C101.01407702638065,0,102.85714285714286,1.843065830762215,102.85714285714286,4.113206046868527L102.85714285714286,8.226412093737054C102.85714285714286,8.226412093737054,102.85714285714286,8.226412093737054,102.85714285714286,8.226412093737054L0,8.226412093737054C0,8.226412093737054,0,8.226412093737054,0,8.226412093737054L0,4.113206046868527C0,1.843065830762215,1.843065830762215,0,4.113206046868527,0Z"/><g clip-path="url(#clip3)"><g class="mark-group role-scope" role="graphics-object" aria-roledescription="group mark container"><g transform="translate(0,-591.773587906263)"><path class="background" aria-hidden="true" d="M0,0h102.85714285714286v0h-102.85714285714286Z"/><g><g class="mark-rect role-mark layer_0_marks" role="graphics-object" aria-roledescription="rect mark container"><path aria-label="Parser: pytomlpp&#xA;1.1.0; Execution Time (seconds, lower=better): 0.363360200001; parser: pytomlpp; Execution Time (s): 0.3634; Slowdown: 2.70" role="graphics-symbol" aria-roledescription="bar" d="M0,591.773587906263h102.85714285714286v8.226412093737054h-102.85714285714286Z" fill="#1b9e77"/></g></g><path class="foreground" aria-hidden="true" d="" display="none"/></g></g></g><path class="foreground" aria-hidden="true" d="" display="none"/></g><g transform="translate(348.57142857142856,565.8054074062289)"><path class="background" aria-hidden="true" d="M6,0L96.85714285714286,0C100.16863300410687,0,102.85714285714286,2.688509853036,102.85714285714286,6L102.85714285714286,34.19459259377106C102.85714285714286,34.19459259377106,102.85714285714286,34.19459259377106,102.85714285714286,34.19459259377106L0,34.19459259377106C0,34.19459259377106,0,34.19459259377106,0,34.19459259377106L0,6C0,2.688509853036,2.688509853036,0,6,0Z"/><g clip-path="url(#clip4)"><g class="mark-group role-scope" role="graphics-object" aria-roledescription="group mark container"><g transform="translate(0,-565.8054074062289)"><path class="background" aria-hidden="true" d="M0,0h102.85714285714286v0h-102.85714285714286Z"/><g><g class="mark-rect role-mark layer_0_marks" role="graphics-object" aria-roledescription="rect mark container"><path aria-label="Parser: tomllib&#xA;built-in; Execution Time (seconds, lower=better): 1.5103734; parser: tomllib; Execution Time (s): 1.5104; Slowdown: 11.23" role="graphics-symbol" aria-roledescription="bar" d="M0,565.8054074062289h102.85714285714286v34.19459259377106h-102.85714285714286Z" fill="#a6761d"/></g></g><path class="foreground" aria-hidden="true" d="" display="none"/></g></g></g><path class="foreground" aria-hidden="true" d="" display="none"/></g><g transform="translate(462.85714285714283,521.2049186378971)"><path class="background" aria-hidden="true" d="M6,0L96.85714285714286,0C100.16863300410687,0,102.85714285714286,2.688509853036,102.85714285714286,6L102.85714285714286,78.7950813621029C102.85714285714286,78.7950813621029,102.85714285714286,78.7950813621029,102.85714285714286,78.7950813621029L0,78.7950813621029C0,78.7950813621029,0,78.7950813621029,0,78.7950813621029L0,6C0,2.688509853036,2.688509853036,0,6,0Z"/><g clip-path="url(#clip5)"><g class="mark-group role-scope" role="graphics-object" aria-roledescription="group mark container"><g transform="translate(0,-521.2049186378971)"><path class="background" aria-hidden="true" d="M0,0h102.85714285714286v0h-102.85714285714286Z"/><g><g class="mark-rect role-mark layer_0_marks" role="graphics-object" aria-roledescription="rect mark container"><path aria-label="Parser: toml&#xA;0.10.2; Execution Time (seconds, lower=better): 3.4803747; parser: toml; Execution Time (s): 3.4804; Slowdown: 25.89" role="graphics-symbol" aria-roledescription="bar" d="M0,521.2049186378971h102.85714285714286v78.7950813621029h-102.85714285714286Z" fill="#e7298a"/></g></g><path class="foreground" aria-hidden="true" d="" display="none"/></g></g></g><path class="foreground" aria-hidden="true" d="" display="none"/></g><g transform="translate(577.1428571428571,514.7354590044013)"><path class="background" aria-hidden="true" d="M6,0L96.85714285714286,0C100.16863300410687,0,102.85714285714286,2.688509853036,102.85714285714286,6L102.85714285714286,85.26454099559874C102.85714285714286,85.26454099559874,102.85714285714286,85.26454099559874,102.85714285714286,85.26454099559874L0,85.26454099559874C0,85.26454099559874,0,85.26454099559874,0,85.26454099559874L0,6C0,2.688509853036,2.688509853036,0,6,0Z"/><g clip-path="url(#clip6)"><g class="mark-group role-scope" role="graphics-object" aria-roledescription="group mark container"><g transform="translate(0,-514.7354590044013)"><path class="background" aria-hidden="true" d="M0,0h102.85714285714286v0h-102.85714285714286Z"/><g><g class="mark-rect role-mark layer_0_marks" role="graphics-object" aria-roledescription="rect mark container"><path aria-label="Parser: qtoml&#xA;0.3.1; Execution Time (seconds, lower=better): 3.7661304; parser: qtoml; Execution Time (s): 3.7661; Slowdown: 28.01" role="graphics-symbol" aria-roledescription="bar" d="M0,514.7354590044013h102.85714285714286v85.26454099559874h-102.85714285714286Z" fill="#d95f02"/></g></g><path class="foreground" aria-hidden="true" d="" display="none"/></g></g></g><path class="foreground" aria-hidden="true" d="" display="none"/></g><g transform="translate(691.4285714285714,23.07692307692313)"><path class="background" aria-hidden="true" d="M6,0L96.85714285714286,0C100.16863300410687,0,102.85714285714286,2.688509853036,102.85714285714286,6L102.85714285714286,576.9230769230769C102.85714285714286,576.9230769230769,102.85714285714286,576.9230769230769,102.85714285714286,576.9230769230769L0,576.9230769230769C0,576.9230769230769,0,576.9230769230769,0,576.9230769230769L0,6C0,2.688509853036,2.688509853036,0,6,0Z"/><g clip-path="url(#clip7)"><g class="mark-group role-scope" role="graphics-object" aria-roledescription="group mark container"><g transform="translate(0,-23.07692307692313)"><path class="background" aria-hidden="true" d="M0,0h102.85714285714286v0h-102.85714285714286Z"/><g><g class="mark-rect role-mark layer_0_marks" role="graphics-object" aria-roledescription="rect mark container"><path aria-label="Parser: tomlkit&#xA;0.14.0; Execution Time (seconds, lower=better): 25.4826627; parser: tomlkit; Execution Time (s): 25.4827; Slowdown: 189.53" role="graphics-symbol" aria-roledescription="bar" d="M0,23.07692307692313h102.85714285714286v576.9230769230769h-102.85714285714286Z" fill="#e6ab02"/></g></g><path class="foreground" aria-hidden="true" d="" display="none"/></g></g></g><path class="foreground" aria-hidden="true" d="" display="none"/></g></g><g class="mark-text role-mark layer_1_marks" role="graphics-object" aria-roledescription="text mark container"><text aria-label="Parser: toml_rs&#xA;0.3.2; Execution Time (seconds, lower=better): 0.134454999999; parser: toml_rs; label: 0.1345s (x1.00); Execution Time (s): 0.1345; Slowdown: 1.00" role="graphics-symbol" aria-roledescription="text mark" text-anchor="middle" transform="translate(57.142857142857096,592.9559620507254)" font-family="sans-serif" font-size="9px" font-weight="bold" fill="#66a61e">0.1345s (x1.00)</text><text aria-label="Parser: rtoml&#xA;0.13.0; Execution Time (seconds, lower=better): 0.277521299999; parser: rtoml; label: 0.2775s (x2.06); Execution Time (s): 0.2775; Slowdown: 2.06" role="graphics-symbol" aria-roledescription="text mark" text-anchor="middle" transform="translate(171.4285714285714,589.7169657585705)" font-family="sans-serif" font-size="9px" font-weight="bold" fill="#7570b3">0.2775s (x2.06)</text><text aria-label="Parser: pytomlpp&#xA;1.1.0; Execution Time (seconds, lower=better): 0.363360200001; parser: pytomlpp; label: 0.3634s (x2.70); Execution Time (s): 0.3634; Slowdown: 2.70" role="graphics-symbol" aria-roledescription="text mark" text-anchor="middle" transform="translate(285.71428571428567,587.773587906263)" font-family="sans-serif" font-size="9px" font-weight="bold" fill="#1b9e77">0.3634s (x2.70)</text><text aria-label="Parser: tomllib&#xA;built-in; Execution Time (seconds, lower=better): 1.5103734; parser: tomllib; label: 1.5104s (x11.23); Execution Time (s): 1.5104; Slowdown: 11.23" role="graphics-symbol" aria-roledescription="text mark" text-anchor="middle" transform="translate(400,561.8054074062289)" font-family="sans-serif" font-size="9px" font-weight="bold" fill="#a6761d">1.5104s (x11.23)</text><text aria-label="Parser: toml&#xA;0.10.2; Execution Time (seconds, lower=better): 3.4803747; parser: toml; label: 3.4804s (x25.89); Execution Time (s): 3.4804; Slowdown: 25.89" role="graphics-symbol" aria-roledescription="text mark" text-anchor="middle" transform="translate(514.2857142857142,517.2049186378971)" font-family="sans-serif" font-size="9px" font-weight="bold" fill="#e7298a">3.4804s (x25.89)</text><text aria-label="Parser: qtoml&#xA;0.3.1; Execution Time (seconds, lower=better): 3.7661304; parser: qtoml; label: 3.7661s (x28.01); Execution Time (s): 3.7661; Slowdown: 28.01" role="graphics-symbol" aria-roledescription="text mark" text-anchor="middle" transform="translate(628.5714285714286,510.73545900440126)" font-family="sans-serif" font-size="9px" font-weight="bold" fill="#d95f02">3.7661s (x28.01)</text><text aria-label="Parser: tomlkit&#xA;0.14.0; Execution Time (seconds, lower=better): 25.4826627; parser: tomlkit; label: 25.4827s (x189.53); Execution Time (s): 25.4827; Slowdown: 189.53" role="graphics-symbol" aria-roledescription="text mark" text-anchor="middle" transform="translate(742.8571428571429,19.07692307692313)" font-family="sans-serif" font-size="9px" font-weight="bold" fill="#e6ab02">25.4827s (x189.53)</text></g><g class="mark-group role-title"><g transform="translate(400,-31)"><path class="background" aria-hidden="true" d="M0,0h0v0h0Z" pointer-events="none"/><g><g class="mark-text role-title-text" role="graphics-symbol" aria-roledescription="title" aria-label="Title text 'TOML parsers benchmark (loads)'" pointer-events="none"><text text-anchor="middle" transform="translate(0,10)" font-family="sans-serif" font-size="13px" font-weight="bold" fill="#000" opacity="1">TOML parsers benchmark (loads)</text></g><g class="mark-text role-title-subtitle" role="graphics-symbol" aria-roledescription="subtitle" aria-label="Subtitle text 'Python: 3.13.8 (Windows 10) | CPU: 11th Gen Intel(R) Core(TM) i5-11300H @ 3.10GHz'" pointer-events="none"><text text-anchor="middle" transform="translate(0,25)" font-family="sans-serif" font-size="12px" fill="#000" opacity="1">Python: 3.13.8 (Windows 10) | CPU: 11th Gen Intel(R) Core(TM) i5-11300H @ 3.10GHz</text></g></g><path class="foreground" aria-hidden="true" d="" pointer-events="none" display="none"/></g></g></g><path class="foreground" aria-hidden="true" d="" display="none"/></g></g></g><defs><clipPath id="clip1"><path d="M1.5220189746373194,0L101.33512388250554,0C102.17514902217283,0,102.85714285714286,0.6819938349700305,102.85714285714286,1.5220189746373194L102.85714285714286,3.0440379492746388C102.85714285714286,3.0440379492746388,102.85714285714286,3.0440379492746388,102.85714285714286,3.0440379492746388L0,3.0440379492746388C0,3.0440379492746388,0,3.0440379492746388,0,3.0440379492746388L0,1.5220189746373194C0,0.6819938349700305,0.6819938349700305,0,1.5220189746373194,0Z"/></clipPath><clipPath id="clip2"><path d="M3.1415171207147523,0L99.71562573642811,0C101.44947623505571,0,102.85714285714286,1.4076666220871494,102.85714285714286,3.1415171207147523L102.85714285714286,6.283034241429505C102.85714285714286,6.283034241429505,102.85714285714286,6.283034241429505,102.85714285714286,6.283034241429505L0,6.283034241429505C0,6.283034241429505,0,6.283034241429505,0,6.283034241429505L0,3.1415171207147523C0,1.4076666220871494,1.4076666220871494,0,3.1415171207147523,0Z"/></clipPath><clipPath id="clip3"><path d="M4.113206046868527,0L98.74393681027433,0C101.01407702638065,0,102.85714285714286,1.843065830762215,102.85714285714286,4.113206046868527L102.85714285714286,8.226412093737054C102.85714285714286,8.226412093737054,102.85714285714286,8.226412093737054,102.85714285714286,8.226412093737054L0,8.226412093737054C0,8.226412093737054,0,8.226412093737054,0,8.226412093737054L0,4.113206046868527C0,1.843065830762215,1.843065830762215,0,4.113206046868527,0Z"/></clipPath><clipPath id="clip4"><path d="M6,0L96.85714285714286,0C100.16863300410687,0,102.85714285714286,2.688509853036,102.85714285714286,6L102.85714285714286,34.19459259377106C102.85714285714286,34.19459259377106,102.85714285714286,34.19459259377106,102.85714285714286,34.19459259377106L0,34.19459259377106C0,34.19459259377106,0,34.19459259377106,0,34.19459259377106L0,6C0,2.688509853036,2.688509853036,0,6,0Z"/></clipPath><clipPath id="clip5"><path d="M6,0L96.85714285714286,0C100.16863300410687,0,102.85714285714286,2.688509853036,102.85714285714286,6L102.85714285714286,78.7950813621029C102.85714285714286,78.7950813621029,102.85714285714286,78.7950813621029,102.85714285714286,78.7950813621029L0,78.7950813621029C0,78.7950813621029,0,78.7950813621029,0,78.7950813621029L0,6C0,2.688509853036,2.688509853036,0,6,0Z"/></clipPath><clipPath id="clip6"><path d="M6,0L96.85714285714286,0C100.16863300410687,0,102.85714285714286,2.688509853036,102.85714285714286,6L102.85714285714286,85.26454099559874C102.85714285714286,85.26454099559874,102.85714285714286,85.26454099559874,102.85714285714286,85.26454099559874L0,85.26454099559874C0,85.26454099559874,0,85.26454099559874,0,85.26454099559874L0,6C0,2.688509853036,2.688509853036,0,6,0Z"/></clipPath><clipPath id="clip7"><path d="M6,0L96.85714285714286,0C100.16863300410687,0,102.85714285714286,2.688509853036,102.85714285714286,6L102.85714285714286,576.9230769230769C102.85714285714286,576.9230769230769,102.85714285714286,576.9230769230769,102.85714285714286,576.9230769230769L0,576.9230769230769C0,576.9230769230769,0,576.9230769230769,0,576.9230769230769L0,6C0,2.688509853036,2.688509853036,0,6,0Z"/></clipPath></defs></svg>