<svg xmlns="http://www.w3.org/2000/svg" xmlns:xlink="http://www.w3.org/1999/xlink" version="1.1" class="marks" width="846" height="687" viewBox="0 0 846 687"><rect width="846" height="687" fill="white"/><g fill="none" stroke-miterlimit="10" transform="translate(41,36)"><g class="mark-group role-frame root" role="graphics-object" aria-roledescription="group mark container"><g transform="translate(0,0)"><path class="background" aria-hidden="true" d="M0.5,0.5h800v600h-800Z" stroke="#ddd"/><g><g class="mark-group role-axis" role="graphics-symbol" aria-roledescription="axis" aria-label="X-axis titled 'Parser' for a discrete scale with 7 values: toml_rs&#xA;0.3.2, rtoml&#xA;0.13.0, pytomlpp&#xA;1.1.0, tomllib&#xA;built-in, toml&#xA;0.10.2, qtoml&#xA;0.3.1, tomlkit&#xA;0.14.0"><g transform="translate(0.5,600.5)"><path class="background" aria-hidden="true" d="M0,0h0v0h0Z" pointer-events="none"/><g><g class="mark-rule role-axis-tick" pointer-events="none"><line transform="translate(57,0)" x2="0" y2="5" stroke="#888" stroke-width="1" opacity="1"/><line transform="translate(171,0)" x2="0" y2="5" stroke="#888" stroke-width="1" opacity="1"/><line transform="translate(285,0)" x2="0" y2="5" stroke="#888" stroke-width="1" opacity="1"/><line transform="translate(400,0)" x2="0" y2="5" stroke="#888" stroke-width="1" opacity="1"/><line transform="translate(514,0)" x2="0" y2="5" stroke="#888" stroke-width="1" opacity="1"/><line transform="translate(628,0)" x2="0" y2="5" stroke="#888" stroke-width="1" opacity="1"/><line transform="translate(742,0)" x2="0" y2="5" stroke="#888" stroke-width="1" opacity="1"/></g><g class="mark-text role-axis-label" pointer-events="none"><text text-anchor="middle" transform="translate(56.642857142857096,15)" font-family="sans-serif" font-size="10px" fill="#000" opacity="1"><tspan>toml_rs</tspan><tspan x="0" dy="14">0.3.2</tspan></text><text text-anchor="middle" transform="translate(170.9285714285714,15)" font-family="sans-serif" font-size="10px" fill="#000" opacity="1"><tspan>rtoml</tspan><tspan x="0" dy="14">0.13.0</tspan></text><text text-anchor="middle" transform="translate(285.21428571428567,15)" font-family="sans-serif" font-size="10px" fill="#000" opacity="1"><tspan>pytomlpp</tspan><tspan x="0" dy="14">1.1.0</tspan></text><text text-anchor="middle" transform="translate(399.5,15)" font-family="sans-serif" font-size="10px" fill="#000" opacity="1"><tspan>tomllib</tspan><tspan x="0" dy="14">built-in</tspan></text><text text-anchor="middle" transform="translate(513.7857142857142,15)" font-family="sans-serif" font-size="10px" fill="#000" opacity="1"><tspan>toml</tspan><tspan x="0" dy="14">0.10.2</tspan></text><text text-anchor="middle" transform="translate(628.0714285714286,15)" font-family="sans-serif" font-size="10px" fill="#000" opacity="1"><tspan>qtoml</tspan><tspan x="0" dy="14">0.3.1</tspan></text><text text-anchor="middle" transform="translate(742.3571428571429,15)" font-family="sans-serif" font-size="10px" fill="#000" opacity="1"><tspan>tomlkit</tspan><tspan x="0" dy="14">0.14.0</tspan></text></g><g class="mark-rule role-axis-domain" pointer-events="none"><line transform="translate(0,0)" x2="800" y2="0" stroke="#888" stroke-width="1" opacity="1"/></g><g class="mark-text role-axis-title" pointer-events="none"><text text-anchor="middle" transform="translate(400,44)" font-family="sans-serif" font-size="11px" font-weight="bold" fill="#000" opacity="1">Parser</text></g></g><path class="foreground" aria-hidden="true" d="" pointer-events="none" display="none"/></g></g><g class="mark-group role-axis" role="graphics-symbol" aria-roledescription="axis" aria-label="Y-axis titled 'Execution Time (seconds, lower=better)' for a linear scale with values from 0 to 7"><g transform="translate(0.5,0.5)"><path class="background" aria-hidden="true" d="M0,0h0v0h0Z" pointer-events="none"/><g><g class="mark-rule role-axis-tick" pointer-events="none"><line transform="translate(0,600)" x2="-5" y2="0" stroke="#888" stroke-width="1" opacity="1"/><line transform="translate(0,556)" x2="-5" y2="0" stroke="#888" stroke-width="1" opacity="1"/><line transform="translate(0,511)" x2="-5" y2="0" stroke="#888" stroke-width="1" opacity="1"/><line transform="translate(0,467)" x2="-5" y2="0" stroke="#888" stroke-width="1" opacity="1"/><line transform="translate(0,422)" x2="-5" y2="0" stroke="#888" stroke-width="1" opacity="1"/><line transform="translate(0,378)" x2="-5" y2="0" stroke="#888" stroke-width="1" opacity="1"/><line transform="translate(0,333)" x2="-5" y2="0" stroke="#888" stroke-width="1" opacity="1"/><line transform="translate(0,289)" x2="-5" y2="0" stroke="#888" stroke-width="1" opacity="1"/><line transform="translate(0,244)" x2="-5" y2="0" stroke="#888" stroke-width="1" opacity="1"/><line transform="translate(0,200)" x2="-5" y2="0" stroke="#888" stroke-width="1" opacity="1"/><line transform="translate(0,155)" x2="-5" y2="0" stroke="#888" stroke-width="1" opacity="1"/><line transform="translate(0,111)" x2="-5" y2="0" stroke="#888" stroke-width="1" opacity="1"/><line transform="translate(0,66)" x2="-5" y2="0" stroke="#888" stroke-width="1" opacity="1"/><line transform="translate(0,22)" x2="-5" y2="0" stroke="#888" stroke-width="1" opacity="1"/></g><g class="mark-text role-axis-label" pointer-events="none"><text text-anchor="end" transform="translate(-7,603)" font-family="sans-serif" font-size="10px" fill="#000" opacity="1">0.0</text><text text-anchor="end" transform="translate(-7,558.5080636366747)" font-family="sans-serif" font-size="10px" fill="#000" opacity="1">0.5</text><text text-anchor="end" transform="translate(-7,514.0161272733495)" font-family="sans-serif" font-size="10px" fill="#000" opacity="1">1.0</text><text text-anchor="end" transform="translate(-7,469.52419091002434)" font-family="sans-serif" font-size="10px" fill="#000" opacity="1">1.5</text><text text-anchor="end" transform="translate(-7,425.0322545466991)" font-family="sans-serif" font-size="10px" fill="#000" opacity="1">2.0</text><text text-anchor="end" transform="translate(-7,380.5403181833738)" font-family="sans-serif" font-size="10px" fill="#000" opacity="1">2.5</text><text text-anchor="end" transform="translate(-7,336.04838182004863)" font-family="sans-serif" font-size="10px" fill="#000" opacity="1">3.0</text><text text-anchor="end" transform="translate(-7,291.5564454567234)" font-family="sans-serif" font-size="10px" fill="#000" opacity="1">3.5</text><text text-anchor="end" transform="translate(-7,247.06450909339816)" font-family="sans-serif" font-size="10px" fill="#000" opacity="1">4.0</text><text text-anchor="end" transform="translate(-7,202.57257273007292)" font-family="sans-serif" font-size="10px" fill="#000" opacity="1">4.5</text><text text-anchor="end" transform="translate(-7,158.08063636674768)" font-family="sans-serif" font-size="10px" fill="#000" opacity="1">5.0</text><text text-anchor="end" transform="translate(-7,113.58870000342249)" font-family="sans-serif" font-size="10px" fill="#000" opacity="1">5.5</text><text text-anchor="end" transform="translate(-7,69.09676364009725)" font-family="sans-serif" font-size="10px" fill="#000" opacity="1">6.0</text><text text-anchor="end" transform="translate(-7,24.604827276772)" font-family="sans-serif" font-size="10px" fill="#000" opacity="1">6.5</text></g><g class="mark-rule role-axis-domain" pointer-events="none"><line transform="translate(0,600)" x2="0" y2="-600" stroke="#888" stroke-width="1" opacity="1"/></g><g class="mark-text role-axis-title" pointer-events="none"><text text-anchor="middle" transform="translate(-24.9013671875,300) rotate(-90) translate(0,-2)" font-family="sans-serif" font-size="11px" font-weight="bold" fill="#000" opacity="1">Execution Time (seconds, lower=better)</text></g></g><path class="foreground" aria-hidden="true" d="" pointer-events="none" display="none"/></g></g><g class="mark-group role-scope" role="graphics-object" aria-roledescription="group mark container"><g transform="translate(5.714285714285666,598.0148231898492)"><path class="background" aria-hidden="true" d="M0.9925884050754235,0L101.86455445206744,0C102.4123789059671,0,102.85714285714286,0.44476395117576073,102.85714285714286,0.9925884050754235L102.85714285714286,1.985176810150847C102.85714285714286,1.985176810150847,102.85714285714286,1.985176810150847,102.85714285714286,1.985176810150847L0,1.985176810150847C0,1.985176810150847,0,1.985176810150847,0,1.985176810150847L0,0.9925884050754235C0,0.44476395117576073,0.44476395117576073,0,0.9925884050754235,0Z"/><g clip-path="url(#clip1)"><g class="mark-group role-scope" role="graphics-object" aria-roledescription="group mark container"><g transform="translate(0,-598.0148231898492)"><path class="background" aria-hidden="true" d="M0,0h102.85714285714286v0h-102.85714285714286Z"/><g><g class="mark-rect role-mark layer_0_marks" role="graphics-object" aria-roledescription="rect mark container"><path aria-label="Parser: toml_rs&#xA;0.3.2; Execution Time (seconds, lower=better): 0.0223093999994; parser: toml_rs; Execution Time (s): 0.0223; Slowdown: 1.00" role="graphics-symbol" aria-roledescription="bar" d="M0,598.0148231898492h102.85714285714286v1.985176810150847h-102.85714285714286Z" fill="#66a61e"/></g></g><path class="foreground" aria-hidden="true" d="" display="none"/></g></g></g><path class="foreground" aria-hidden="true" d="" display="none"/></g><g transform="translate(119.99999999999996,594.7404213365301)"><path class="background" aria-hidden="true" d="M2.629789331734969,0L100.22735352540789,0C101.67877376884645,0,102.85714285714286,1.1783690882964037,102.85714285714286,2.629789331734969L102.85714285714286,5.259578663469938C102.85714285714286,5.259578663469938,102.85714285714286,5.259578663469938,102.85714285714286,5.259578663469938L0,5.259578663469938C0,5.259578663469938,0,5.259578663469938,0,5.259578663469938L0,2.629789331734969C0,1.1783690882964037,1.1783690882964037,0,2.629789331734969,0Z"/><g clip-path="url(#clip2)"><g class="mark-group role-scope" role="graphics-object" aria-roledescription="group mark container"><g transform="translate(0,-594.7404213365301)"><path class="background" aria-hidden="true" d="M0,0h102.85714285714286v0h-102.85714285714286Z"/><g><g class="mark-rect role-mark layer_0_marks" role="graphics-object" aria-roledescription="rect mark container"><path aria-label="Parser: rtoml&#xA;0.13.0; Execution Time (seconds, lower=better): 0.0591070999981; parser: rtoml; Execution Time (s): 0.0591; Slowdown: 2.65" role="graphics-symbol" aria-roledescription="bar" d="M0,594.7404213365301h102.85714285714286v5.259578663469938h-102.85714285714286Z" fill="#7570b3"/></g></g><path class="foreground" aria-hidden="true" d="" display="none"/></g></g></g><path class="foreground" aria-hidden="true" d="" display="none"/></g><g transform="translate(234.28571428571425,592.4297148247747)"><path class="background" aria-hidden="true" d="M3.785142587612654,0L99.07200026953021,0C101.16107733348572,0,102.85714285714286,1.6960655236571336,102.85714285714286,3.785142587612654L102.85714285714286,7.570285175225308C102.85714285714286,7.570285175225308,102.85714285714286,7.570285175225308,102.85714285714286,7.570285175225308L0,7.570285175225308C0,7.570285175225308,0,7.570285175225308,0,7.570285175225308L0,3.785142587612654C0,1.6960655236571336,1.6960655236571336,0,3.785142587612654,0Z"/><g clip-path="url(#clip3)"><g class="mark-group role-scope" role="graphics-object" aria-roledescription="group mark container"><g transform="translate(0,-592.4297148247747)"><path class="background" aria-hidden="true" d="M0,0h102.85714285714286v0h-102.85714285714286Z"/><g><g class="mark-rect role-mark layer_0_marks" role="graphics-object" aria-roledescription="rect mark container"><path aria-label="Parser: pytomlpp&#xA;1.1.0; Execution Time (seconds, lower=better): 0.0850747999975; parser: pytomlpp; Execution Time (s): 0.0851; Slowdown: 3.81" role="graphics-symbol" aria-roledescription="bar" d="M0,592.4297148247747h102.85714285714286v7.570285175225308h-102.85714285714286Z" fill="#1b9e77"/></g></g><path class="foreground" aria-hidden="true" d="" display="none"/></g></g></g><path class="foreground" aria-hidden="true" d="" display="none"/></g><g transform="translate(348.57142857142856,571.6769049254282)"><path class="background" aria-hidden="true" d="M6,0L96.85714285714286,0C100.16863300410687,0,102.85714285714286,2.688509853036,102.85714285714286,6L102.85714285714286,28.323095074571825C102.85714285714286,28.323095074571825,102.85714285714286,28.323095074571825,102.85714285714286,28.323095074571825L0,28.323095074571825C0,28.323095074571825,0,28.323095074571825,0,28.323095074571825L0,6C0,2.688509853036,2.688509853036,0,6,0Z"/><g clip-path="url(#clip4)"><g class="mark-group role-scope" role="graphics-object" aria-roledescription="group mark container"><g transform="translate(0,-571.6769049254282)"><path class="background" aria-hidden="true" d="M0,0h102.85714285714286v0h-102.85714285714286Z"/><g><g class="mark-rect role-mark layer_0_marks" role="graphics-object" aria-roledescription="rect mark container"><path aria-label="Parser: tomllib&#xA;built-in; Execution Time (seconds, lower=better): 0.318294700002; parser: tomllib; Execution Time (s): 0.3183; Slowdown: 14.27" role="graphics-symbol" aria-roledescription="bar" d="M0,571.6769049254282h102.85714285714286v28.323095074571825h-102.85714285714286Z" fill="#a6761d"/></g></g><path class="foreground" aria-hidden="true" d="" display="none"/></g></g></g><path class="foreground" aria-hidden="true" d="" display="none"/></g><g transform="translate(462.85714285714283,535.1021484669502)"><path class="background" aria-hidden="true" d="M6,0L96.85714285714286,0C100.16863300410687,0,102.85714285714286,2.688509853036,102.85714285714286,6L102.85714285714286,64.89785153304979C102.85714285714286,64.89785153304979,102.85714285714286,64.89785153304979,102.85714285714286,64.89785153304979L0,64.89785153304979C0,64.89785153304979,0,64.89785153304979,0,64.89785153304979L0,6C0,2.688509853036,2.688509853036,0,6,0Z"/><g clip-path="url(#clip5)"><g class="mark-group role-scope" role="graphics-object" aria-roledescription="group mark container"><g transform="translate(0,-535.1021484669502)"><path class="background" aria-hidden="true" d="M0,0h102.85714285714286v0h-102.85714285714286Z"/><g><g class="mark-rect role-mark layer_0_marks" role="graphics-object" aria-roledescription="rect mark container"><path aria-label="Parser: toml&#xA;0.10.2; Execution Time (seconds, lower=better): 0.729321500003; parser: toml; Execution Time (s): 0.7293; Slowdown: 32.69" role="graphics-symbol" aria-roledescription="bar" d="M0,535.1021484669502h102.85714285714286v64.89785153304979h-102.85714285714286Z" fill="#e7298a"/></g></g><path class="foreground" aria-hidden="true" d="" display="none"/></g></g></g><path class="foreground" aria-hidden="true" d="" display="none"/></g><g transform="translate(577.1428571428571,523.6438019568102)"><path class="background" aria-hidden="true" d="M6,0L96.85714285714286,0C100.16863300410687,0,102.85714285714286,2.688509853036,102.85714285714286,6L102.85714285714286,76.3561980431898C102.85714285714286,76.3561980431898,102.85714285714286,76.3561980431898,102.85714285714286,76.3561980431898L0,76.3561980431898C0,76.3561980431898,0,76.3561980431898,0,76.3561980431898L0,6C0,2.688509853036,2.688509853036,0,6,0Z"/><g clip-path="url(#clip6)"><g class="mark-group role-scope" role="graphics-object" aria-roledescription="group mark container"><g transform="translate(0,-523.6438019568102)"><path class="background" aria-hidden="true" d="M0,0h102.85714285714286v0h-102.85714285714286Z"/><g><g class="mark-rect role-mark layer_0_marks" role="graphics-object" aria-roledescription="rect mark container"><path aria-label="Parser: qtoml&#xA;0.3.1; Execution Time (seconds, lower=better): 0.8580903; parser: qtoml; Execution Time (s): 0.8581; Slowdown: 38.46" role="graphics-symbol" aria-roledescription="bar" d="M0,523.6438019568102h102.85714285714286v76.3561980431898h-102.85714285714286Z" fill="#d95f02"/></g></g><path class="foreground" aria-hidden="true" d="" display="none"/></g></g></g><path class="foreground" aria-hidden="true" d="" display="none"/></g><g transform="translate(691.4285714285714,23.076923076923062)"><path class="background" aria-hidden="true" d="M6,0L96.85714285714286,0C100.16863300410687,0,102.85714285714286,2.688509853036,102.85714285714286,6L102.85714285714286,576.9230769230769C102.85714285714286,576.9230769230769,102.85714285714286,576.9230769230769,102.85714285714286,576.9230769230769L0,576.9230769230769C0,576.9230769230769,0,576.9230769230769,0,576.9230769230769L0,6C0,2.688509853036,2.688509853036,0,6,0Z"/><g clip-path="url(#clip7)"><g class="mark-group role-scope" role="graphics-object" aria-roledescription="group mark container"><g transform="translate(0,-23.076923076923062)"><path class="background" aria-hidden="true" d="M0,0h102.85714285714286v0h-102.85714285714286Z"/><g><g class="mark-rect role-mark layer_0_marks" role="graphics-object" aria-roledescription="rect mark container"><path aria-label="Parser: tomlkit&#xA;0.14.0; Execution Time (seconds, lower=better): 6.4834566; parser: tomlkit; Execution Time (s): 6.4835; Slowdown: 290.62" role="graphics-symbol" aria-roledescription="bar" d="M0,23.076923076923062h102.85714285714286v576.9230769230769h-102.85714285714286Z" fill="#e6ab02"/></g></g><path class="foreground" aria-hidden="true" d="" display="none"/></g></g></g><path class="foreground" aria-hidden="true" d="" display="none"/></g></g><g class="mark-text role-mark layer_1_marks" role="graphics-object" aria-roledescription="text mark container"><text aria-label="Parser: toml_rs&#xA;0.3.2; Execution Time (seconds, lower=better): 0.0223093999994; parser: toml_rs; label: 0.0223s (x1.00); Execution Time (s): 0.0223; Slowdown: 1.00" role="graphics-symbol" aria-roledescription="text mark" text-anchor="middle" transform="translate(57.142857142857096,594.0148231898492)" font-family="sans-serif" font-size="9px" font-weight="bold" fill="#66a61e">0.0223s (x1.00)</text><text aria-label="Parser: rtoml&#xA;0.13.0; Execution Time (seconds, lower=better): 0.0591070999981; parser: rtoml; label: 0.0591s (x2.65); Execution Time (s): 0.0591; Slowdown: 2.65" role="graphics-symbol" aria-roledescription="text mark" text-anchor="middle" transform="translate(171.4285714285714,590.7404213365301)" font-family="sans-serif" font-size="9px" font-weight="bold" fill="#7570b3">0.0591s (x2.65)</text><text aria-label="Parser: pytomlpp&#xA;1.1.0; Execution Time (seconds, lower=better): 0.0850747999975; parser: pytomlpp; label: 0.0851s (x3.81); Execution Time (s): 0.0851; Slowdown: 3.81" role="graphics-symbol" aria-roledescription="text mark" text-anchor="middle" transform="translate(285.71428571428567,588.4297148247747)" font-family="sans-serif" font-size="9px" font-weight="bold" fill="#1b9e77">0.0851s (x3.81)</text><text aria-label="Parser: tomllib&#xA;built-in; Execution Time (seconds, lower=better): 0.318294700002; parser: tomllib; label: 0.3183s (x14.27); Execution Time (s): 0.3183; Slowdown: 14.27" role="graphics-symbol" aria-roledescription="text mark" text-anchor="middle" transform="translate(400,567.6769049254282)" font-family="sans-serif" font-size="9px" font-weight="bold" fill="#a6761d">0.3183s (x14.27)</text><text aria-label="Parser: toml&#xA;0.10.2; Execution Time (seconds, lower=better): 0.729321500003; parser: toml; label: 0.7293s (x32.69); Execution Time (s): 0.7293; Slowdown: 32.69" role="graphics-symbol" aria-roledescription="text mark" text-anchor="middle" transform="translate(514.2857142857142,531.1021484669502)" font-family="sans-serif" font-size="9px" font-weight="bold" fill="#e7298a">0.7293s (x32.69)</text><text aria-label="Parser: qtoml&#xA;0.3.1; Execution Time (seconds, lower=better): 0.8580903; parser: qtoml; label: 0.8581s (x38.46); Execution Time (s): 0.8581; Slowdown: 38.46" role="graphics-symbol" aria-roledescription="text mark" text-anchor="middle" transform="translate(628.5714285714286,519.6438019568102)" font-family="sans-serif" font-size="9px" font-weight="bold" fill="#d95f02">0.8581s (x38.46)</text><text aria-label="Parser: tomlkit&#xA;0.14.0; Execution Time (seconds, lower=better): 6.4834566; parser: tomlkit; label: 6.4835s (x290.62); Execution Time (s): 6.4835; Slowdown: 290.62" role="graphics-symbol" aria-roledescription="text mark" text-anchor="middle" transform="translate(742.8571428571429,19.076923076923062)" font-family="sans-serif" font-size="9px" font-weight="bold" fill="#e6ab02">6.4835s (x290.62)</text></g><g class="mark-group role-title"><g transform="translate(400,-31)"><path class="background" aria-hidden="true" d="M0,0h0v0h0Z" pointer-events="none"/><g><g class="mark-text role-title-text" role="graphics-symbol" aria-roledescription="title" aria-label="Title text 'TOML parsers benchmark (loads)'" pointer-events="none"><text text-anchor="middle" transform="translate(0,10)" font-family="sans-serif" font-size="13px" font-weight="bold" fill="#000" opacity="1">TOML parsers benchmark (loads)</text></g><g class="mark-text role-title-subtitle" role="graphics-symbol" aria-roledescription="subtitle" aria-label="Subtitle text 'Python: 3.13.8 (Windows 10) | CPU: 11th Gen Intel(R) Core(TM) i5-11300H @ 3.10GHz'" pointer-events="none"><text text-anchor="middle" transform="translate(0,25)" font-family="sans-serif" font-size="12px" fill="#000" opacity="1">Python: 3.13.8 (Windows 10) | CPU: 11th Gen Intel(R) Core(TM) i5-11300H @ 3.10GHz</text></g></g><path class="foreground" aria-hidden="true" d="" pointer-events="none" display="none"/></g></g></g><path class="foreground" aria-hidden="true" d="" display="none"/></g></g></g><defs><clipPath id="clip1"><path d="M0.9925884050754235,0L101.86455445206744,0C102.4123789059671,0,102.85714285714286,0.44476395117576073,102.85714285714286,0.9925884050754235L102.85714285714286,1.985176810150847C102.85714285714286,1.985176810150847,102.85714285714286,1.985176810150847,102.85714285714286,1.985176810150847L0,1.985176810150847C0,1.985176810150847,0,1.985176810150847,0,1.985176810150847L0,0.9925884050754235C0,0.44476395117576073,0.44476395117576073,0,0.9925884050754235,0Z"/></clipPath><clipPath id="clip2"><path d="M2.629789331734969,0L100.22735352540789,0C101.67877376884645,0,102.85714285714286,1.1783690882964037,102.85714285714286,2.629789331734969L102.85714285714286,5.259578663469938C102.85714285714286,5.259578663469938,102.85714285714286,5.259578663469938,102.85714285714286,5.259578663469938L0,5.259578663469938C0,5.259578663469938,0,5.259578663469938,0,5.259578663469938L0,2.629789331734969C0,1.1783690882964037,1.1783690882964037,0,2.629789331734969,0Z"/></clipPath><clipPath id="clip3"><path d="M3.785142587612654,0L99.07200026953021,0C101.16107733348572,0,102.85714285714286,1.6960655236571336,102.85714285714286,3.785142587612654L102.85714285714286,7.570285175225308C102.85714285714286,7.570285175225308,102.85714285714286,7.570285175225308,102.85714285714286,7.570285175225308L0,7.570285175225308C0,7.570285175225308,0,7.570285175225308,0,7.570285175225308L0,3.785142587612654C0,1.6960655236571336,1.6960655236571336,0,3.785142587612654,0Z"/></clipPath><clipPath id="clip4"><path d="M6,0L96.85714285714286,0C100.16863300410687,0,102.85714285714286,2.688509853036,102.85714285714286,6L102.85714285714286,28.323095074571825C102.85714285714286,28.323095074571825,102.85714285714286,28.323095074571825,102.85714285714286,28.323095074571825L0,28.323095074571825C0,28.323095074571825,0,28.323095074571825,0,28.323095074571825L0,6C0,2.688509853036,2.688509853036,0,6,0Z"/></clipPath><clipPath id="clip5"><path d="M6,0L96.85714285714286,0C100.16863300410687,0,102.85714285714286,2.688509853036,102.85714285714286,6L102.85714285714286,64.89785153304979C102.85714285714286,64.89785153304979,102.85714285714286,64.89785153304979,102.85714285714286,64.89785153304979L0,64.89785153304979C0,64.89785153304979,0,64.89785153304979,0,64.89785153304979L0,6C0,2.688509853036,2.688509853036,0,6,0Z"/></clipPath><clipPath id="clip6"><path d="M6,0L96.85714285714286,0C100.16863300410687,0,102.85714285714286,2.688509853036,102.85714285714286,6L102.85714285714286,76.3561980431898C102.85714285714286,76.3561980431898,102.85714285714286,76.3561980431898,102.85714285714286,76.3561980431898L0,76.3561980431898C0,76.3561980431898,0,76.3561980431898,0,76.3561980431898L0,6C0,2.688509853036,2.688509853036,0,6,0Z"/></clipPath><clipPath id="clip7"><path d="M6,0L96.85714285714286,0C100.16863300410687,0,102.85714285714286,2.688509853036,102.85714285714286,6L102.85714285714286,576.9230769230769C102.85714285714286,576.9230769230769,102.85714285714286,576.9230769230769,102.85714285714286,576.9230769230769L0,576.9230769230769C0,576.9230769230769,0,576.9230769230769,0,576.9230769230769L0,6C0,2.688509853036,2.688509853036,0,6,0Z"/></clipPath></defs></svg>