<svg xmlns="http://www.w3.org/2000/svg" xmlns:xlink="http://www.w3.org/1999/xlink" version="1.1" class="marks" width="846" height="690" viewBox="0 0 846 690"><rect width="846" height="690" fill="white"/><g fill="none" stroke-miterlimit="10" transform="translate(41,39)"><g class="mark-group role-frame root" role="graphics-object" aria-roledescription="group mark container"><g transform="translate(0,0)"><path class="background" aria-hidden="true" d="M0.5,0.5h800v600h-800Z" stroke="#ddd"/><g><g class="mark-group role-axis" role="graphics-symbol" aria-roledescription="axis" aria-label="X-axis titled 'Parser' for a discrete scale with 7 values: toml_rs&#xA;0.3.12, rtoml&#xA;0.13.0, pytomlpp&#xA;1.1.0, tomllib&#xA;built-in, toml&#xA;0.10.2, qtoml&#xA;0.2.4, tomlkit&#xA;0.14.0"><g transform="translate(0.5,600.5)"><path class="background" aria-hidden="true" d="M0,0h0v0h0Z" pointer-events="none"/><g><g class="mark-rule role-axis-tick" pointer-events="none"><line transform="translate(57,0)" x2="0" y2="5" stroke="#888" stroke-width="1" opacity="1"/><line transform="translate(171,0)" x2="0" y2="5" stroke="#888" stroke-width="1" opacity="1"/><line transform="translate(285,0)" x2="0" y2="5" stroke="#888" stroke-width="1" opacity="1"/><line transform="translate(400,0)" x2="0" y2="5" stroke="#888" stroke-width="1" opacity="1"/><line transform="translate(514,0)" x2="0" y2="5" stroke="#888" stroke-width="1" opacity="1"/><line transform="translate(628,0)" x2="0" y2="5" stroke="#888" stroke-width="1" opacity="1"/><line transform="translate(742,0)" x2="0" y2="5" stroke="#888" stroke-width="1" opacity="1"/></g><g class="mark-text role-axis-label" pointer-events="none"><text text-anchor="middle" transform="translate(56.642857142857096,15)" font-family="sans-serif" font-size="10px" fill="#000" opacity="1"><tspan>toml_rs</tspan><tspan x="0" dy="14">0.3.12</tspan></text><text text-anchor="middle" transform="translate(170.9285714285714,15)" font-family="sans-serif" font-size="10px" fill="#000" opacity="1"><tspan>rtoml</tspan><tspan x="0" dy="14">0.13.0</tspan></text><text text-anchor="middle" transform="translate(285.21428571428567,15)" font-family="sans-serif" font-size="10px" fill="#000" opacity="1"><tspan>pytomlpp</tspan><tspan x="0" dy="14">1.1.0</tspan></text><text text-anchor="middle" transform="translate(399.5,15)" font-family="sans-serif" font-size="10px" fill="#000" opacity="1"><tspan>tomllib</tspan><tspan x="0" dy="14">built-in</tspan></text><text text-anchor="middle" transform="translate(513.7857142857142,15)" font-family="sans-serif" font-size="10px" fill="#000" opacity="1"><tspan>toml</tspan><tspan x="0" dy="14">0.10.2</tspan></text><text text-anchor="middle" transform="translate(628.0714285714286,15)" font-family="sans-serif" font-size="10px" fill="#000" opacity="1"><tspan>qtoml</tspan><tspan x="0" dy="14">0.2.4</tspan></text><text text-anchor="middle" transform="translate(742.3571428571429,15)" font-family="sans-serif" font-size="10px" fill="#000" opacity="1"><tspan>tomlkit</tspan><tspan x="0" dy="14">0.14.0</tspan></text></g><g class="mark-rule role-axis-domain" pointer-events="none"><line transform="translate(0,0)" x2="800" y2="0" stroke="#888" stroke-width="1" opacity="1"/></g><g class="mark-text role-axis-title" pointer-events="none"><text text-anchor="middle" transform="translate(400,44)" font-family="sans-serif" font-size="11px" font-weight="bold" fill="#000" opacity="1">Parser</text></g></g><path class="foreground" aria-hidden="true" d="" pointer-events="none" display="none"/></g></g><g class="mark-group role-axis" role="graphics-symbol" aria-roledescription="axis" aria-label="Y-axis titled 'Execution Time (seconds, lower=better)' for a linear scale with values from 0 to 5"><g transform="translate(0.5,0.5)"><path class="background" aria-hidden="true" d="M0,0h0v0h0Z" pointer-events="none"/><g><g class="mark-rule role-axis-tick" pointer-events="none"><line transform="translate(0,600)" x2="-5" y2="0" stroke="#888" stroke-width="1" opacity="1"/><line transform="translate(0,540)" x2="-5" y2="0" stroke="#888" stroke-width="1" opacity="1"/><line transform="translate(0,481)" x2="-5" y2="0" stroke="#888" stroke-width="1" opacity="1"/><line transform="translate(0,421)" x2="-5" y2="0" stroke="#888" stroke-width="1" opacity="1"/><line transform="translate(0,361)" x2="-5" y2="0" stroke="#888" stroke-width="1" opacity="1"/><line transform="translate(0,301)" x2="-5" y2="0" stroke="#888" stroke-width="1" opacity="1"/><line transform="translate(0,242)" x2="-5" y2="0" stroke="#888" stroke-width="1" opacity="1"/><line transform="translate(0,182)" x2="-5" y2="0" stroke="#888" stroke-width="1" opacity="1"/><line transform="translate(0,122)" x2="-5" y2="0" stroke="#888" stroke-width="1" opacity="1"/><line transform="translate(0,62)" x2="-5" y2="0" stroke="#888" stroke-width="1" opacity="1"/><line transform="translate(0,3)" x2="-5" y2="0" stroke="#888" stroke-width="1" opacity="1"/></g><g class="mark-text role-axis-label" pointer-events="none"><text text-anchor="end" transform="translate(-7,603)" font-family="sans-serif" font-size="10px" fill="#000" opacity="1">0.0</text><text text-anchor="end" transform="translate(-7,543.2663510028398)" font-family="sans-serif" font-size="10px" fill="#000" opacity="1">0.5</text><text text-anchor="end" transform="translate(-7,483.5327020056796)" font-family="sans-serif" font-size="10px" fill="#000" opacity="1">1.0</text><text text-anchor="end" transform="translate(-7,423.7990530085193)" font-family="sans-serif" font-size="10px" fill="#000" opacity="1">1.5</text><text text-anchor="end" transform="translate(-7,364.06540401135913)" font-family="sans-serif" font-size="10px" fill="#000" opacity="1">2.0</text><text text-anchor="end" transform="translate(-7,304.33175501419896)" font-family="sans-serif" font-size="10px" fill="#000" opacity="1">2.5</text><text text-anchor="end" transform="translate(-7,244.5981060170387)" font-family="sans-serif" font-size="10px" fill="#000" opacity="1">3.0</text><text text-anchor="end" transform="translate(-7,184.86445701987853)" font-family="sans-serif" font-size="10px" fill="#000" opacity="1">3.5</text><text text-anchor="end" transform="translate(-7,125.13080802271827)" font-family="sans-serif" font-size="10px" fill="#000" opacity="1">4.0</text><text text-anchor="end" transform="translate(-7,65.3971590255581)" font-family="sans-serif" font-size="10px" fill="#000" opacity="1">4.5</text><text text-anchor="end" transform="translate(-7,5.663510028397842)" font-family="sans-serif" font-size="10px" fill="#000" opacity="1">5.0</text></g><g class="mark-rule role-axis-domain" pointer-events="none"><line transform="translate(0,600)" x2="0" y2="-600" stroke="#888" stroke-width="1" opacity="1"/></g><g class="mark-text role-axis-title" pointer-events="none"><text text-anchor="middle" transform="translate(-24.9013671875,300) rotate(-90) translate(0,-2)" font-family="sans-serif" font-size="11px" font-weight="bold" fill="#000" opacity="1">Execution Time (seconds, lower=better)</text></g></g><path class="foreground" aria-hidden="true" d="" pointer-events="none" display="none"/></g></g><g class="mark-group role-scope" role="graphics-object" aria-roledescription="group mark container"><g transform="translate(5.714285714285666,597.649910994086)"><path class="background" aria-hidden="true" d="M1.1750445029570074,0L101.68209835418585,0C102.33062306981691,0,102.85714285714286,0.5265197873259506,102.85714285714286,1.1750445029570074L102.85714285714286,2.3500890059140147C102.85714285714286,2.3500890059140147,102.85714285714286,2.3500890059140147,102.85714285714286,2.3500890059140147L0,2.3500890059140147C0,2.3500890059140147,0,2.3500890059140147,0,2.3500890059140147L0,1.1750445029570074C0,0.5265197873259506,0.5265197873259506,0,1.1750445029570074,0Z"/><g clip-path="url(#clip1)"><g class="mark-group role-scope" role="graphics-object" aria-roledescription="group mark container"><g transform="translate(0,-597.649910994086)"><path class="background" aria-hidden="true" d="M0,0h102.85714285714286v0h-102.85714285714286Z"/><g><g class="mark-rect role-mark layer_0_marks" role="graphics-object" aria-roledescription="rect mark container"><path aria-label="Parser: toml_rs&#xA;0.3.12; Execution Time (seconds, lower=better): 0.0196714000012; parser: toml_rs; Execution Time (s): 0.0197; Slowdown: 1.00" role="graphics-symbol" aria-roledescription="bar" d="M0,597.649910994086h102.85714285714286v2.3500890059140147h-102.85714285714286Z" fill="#66a61e"/></g></g><path class="foreground" aria-hidden="true" d="" display="none"/></g></g></g><path class="foreground" aria-hidden="true" d="" display="none"/></g><g transform="translate(119.99999999999996,592.6349605455964)"><path class="background" aria-hidden="true" d="M3.682519727201793,0L99.17462312994107,0C101.20706109537929,0,102.85714285714286,1.6500817617635772,102.85714285714286,3.682519727201793L102.85714285714286,7.365039454403586C102.85714285714286,7.365039454403586,102.85714285714286,7.365039454403586,102.85714285714286,7.365039454403586L0,7.365039454403586C0,7.365039454403586,0,7.365039454403586,0,7.365039454403586L0,3.682519727201793C0,1.6500817617635772,1.6500817617635772,0,3.682519727201793,0Z"/><g clip-path="url(#clip2)"><g class="mark-group role-scope" role="graphics-object" aria-roledescription="group mark container"><g transform="translate(0,-592.6349605455964)"><path class="background" aria-hidden="true" d="M0,0h102.85714285714286v0h-102.85714285714286Z"/><g><g class="mark-rect role-mark layer_0_marks" role="graphics-object" aria-roledescription="rect mark container"><path aria-label="Parser: rtoml&#xA;0.13.0; Execution Time (seconds, lower=better): 0.0616490000029; parser: rtoml; Execution Time (s): 0.0616; Slowdown: 3.13" role="graphics-symbol" aria-roledescription="bar" d="M0,592.6349605455964h102.85714285714286v7.365039454403586h-102.85714285714286Z" fill="#7570b3"/></g></g><path class="foreground" aria-hidden="true" d="" display="none"/></g></g></g><path class="foreground" aria-hidden="true" d="" display="none"/></g><g transform="translate(234.28571428571425,589.5786406079799)"><path class="background" aria-hidden="true" d="M5.210679696010061,0L97.6464631611328,0C100.52231557318657,0,102.85714285714286,2.3348272839562796,102.85714285714286,5.210679696010061L102.85714285714286,10.421359392020122C102.85714285714286,10.421359392020122,102.85714285714286,10.421359392020122,102.85714285714286,10.421359392020122L0,10.421359392020122C0,10.421359392020122,0,10.421359392020122,0,10.421359392020122L0,5.210679696010061C0,2.3348272839562796,2.3348272839562796,0,5.210679696010061,0Z"/><g clip-path="url(#clip3)"><g class="mark-group role-scope" role="graphics-object" aria-roledescription="group mark container"><g transform="translate(0,-589.5786406079799)"><path class="background" aria-hidden="true" d="M0,0h102.85714285714286v0h-102.85714285714286Z"/><g><g class="mark-rect role-mark layer_0_marks" role="graphics-object" aria-roledescription="rect mark container"><path aria-label="Parser: pytomlpp&#xA;1.1.0; Execution Time (seconds, lower=better): 0.0872319000009; parser: pytomlpp; Execution Time (s): 0.0872; Slowdown: 4.43" role="graphics-symbol" aria-roledescription="bar" d="M0,589.5786406079799h102.85714285714286v10.421359392020122h-102.85714285714286Z" fill="#1b9e77"/></g></g><path class="foreground" aria-hidden="true" d="" display="none"/></g></g></g><path class="foreground" aria-hidden="true" d="" display="none"/></g><g transform="translate(348.57142857142856,563.5464177067138)"><path class="background" aria-hidden="true" d="M6,0L96.85714285714286,0C100.16863300410687,0,102.85714285714286,2.688509853036,102.85714285714286,6L102.85714285714286,36.45358229328622C102.85714285714286,36.45358229328622,102.85714285714286,36.45358229328622,102.85714285714286,36.45358229328622L0,36.45358229328622C0,36.45358229328622,0,36.45358229328622,0,36.45358229328622L0,6C0,2.688509853036,2.688509853036,0,6,0Z"/><g clip-path="url(#clip4)"><g class="mark-group role-scope" role="graphics-object" aria-roledescription="group mark container"><g transform="translate(0,-563.5464177067138)"><path class="background" aria-hidden="true" d="M0,0h102.85714285714286v0h-102.85714285714286Z"/><g><g class="mark-rect role-mark layer_0_marks" role="graphics-object" aria-roledescription="rect mark container"><path aria-label="Parser: tomllib&#xA;built-in; Execution Time (seconds, lower=better): 0.305134400001; parser: tomllib; Execution Time (s): 0.3051; Slowdown: 15.51" role="graphics-symbol" aria-roledescription="bar" d="M0,563.5464177067138h102.85714285714286v36.45358229328622h-102.85714285714286Z" fill="#a6761d"/></g></g><path class="foreground" aria-hidden="true" d="" display="none"/></g></g></g><path class="foreground" aria-hidden="true" d="" display="none"/></g><g transform="translate(462.85714285714283,526.0488106965958)"><path class="background" aria-hidden="true" d="M6,0L96.85714285714286,0C100.16863300410687,0,102.85714285714286,2.688509853036,102.85714285714286,6L102.85714285714286,73.95118930340425C102.85714285714286,73.95118930340425,102.85714285714286,73.95118930340425,102.85714285714286,73.95118930340425L0,73.95118930340425C0,73.95118930340425,0,73.95118930340425,0,73.95118930340425L0,6C0,2.688509853036,2.688509853036,0,6,0Z"/><g clip-path="url(#clip5)"><g class="mark-group role-scope" role="graphics-object" aria-roledescription="group mark container"><g transform="translate(0,-526.0488106965958)"><path class="background" aria-hidden="true" d="M0,0h102.85714285714286v0h-102.85714285714286Z"/><g><g class="mark-rect role-mark layer_0_marks" role="graphics-object" aria-roledescription="rect mark container"><path aria-label="Parser: toml&#xA;0.10.2; Execution Time (seconds, lower=better): 0.6190078; parser: toml; Execution Time (s): 0.6190; Slowdown: 31.47" role="graphics-symbol" aria-roledescription="bar" d="M0,526.0488106965958h102.85714285714286v73.95118930340425h-102.85714285714286Z" fill="#e7298a"/></g></g><path class="foreground" aria-hidden="true" d="" display="none"/></g></g></g><path class="foreground" aria-hidden="true" d="" display="none"/></g><g transform="translate(577.1428571428571,504.99247243718844)"><path class="background" aria-hidden="true" d="M6,0L96.85714285714286,0C100.16863300410687,0,102.85714285714286,2.688509853036,102.85714285714286,6L102.85714285714286,95.00752756281156C102.85714285714286,95.00752756281156,102.85714285714286,95.00752756281156,102.85714285714286,95.00752756281156L0,95.00752756281156C0,95.00752756281156,0,95.00752756281156,0,95.00752756281156L0,6C0,2.688509853036,2.688509853036,0,6,0Z"/><g clip-path="url(#clip6)"><g class="mark-group role-scope" role="graphics-object" aria-roledescription="group mark container"><g transform="translate(0,-504.99247243718844)"><path class="background" aria-hidden="true" d="M0,0h102.85714285714286v0h-102.85714285714286Z"/><g><g class="mark-rect role-mark layer_0_marks" role="graphics-object" aria-roledescription="rect mark container"><path aria-label="Parser: qtoml&#xA;0.2.4; Execution Time (seconds, lower=better): 0.7952597; parser: qtoml; Execution Time (s): 0.7953; Slowdown: 40.43" role="graphics-symbol" aria-roledescription="bar" d="M0,504.99247243718844h102.85714285714286v95.00752756281156h-102.85714285714286Z" fill="#d95f02"/></g></g><path class="foreground" aria-hidden="true" d="" display="none"/></g></g></g><path class="foreground" aria-hidden="true" d="" display="none"/></g><g transform="translate(691.4285714285714,23.07692307692313)"><path class="background" aria-hidden="true" d="M6,0L96.85714285714286,0C100.16863300410687,0,102.85714285714286,2.688509853036,102.85714285714286,6L102.85714285714286,576.9230769230769C102.85714285714286,576.9230769230769,102.85714285714286,576.9230769230769,102.85714285714286,576.9230769230769L0,576.9230769230769C0,576.9230769230769,0,576.9230769230769,0,576.9230769230769L0,6C0,2.688509853036,2.688509853036,0,6,0Z"/><g clip-path="url(#clip7)"><g class="mark-group role-scope" role="graphics-object" aria-roledescription="group mark container"><g transform="translate(0,-23.07692307692313)"><path class="background" aria-hidden="true" d="M0,0h102.85714285714286v0h-102.85714285714286Z"/><g><g class="mark-rect role-mark layer_0_marks" role="graphics-object" aria-roledescription="rect mark container"><path aria-label="Parser: tomlkit&#xA;0.14.0; Execution Time (seconds, lower=better): 4.8291297; parser: tomlkit; Execution Time (s): 4.8291; Slowdown: 245.49" role="graphics-symbol" aria-roledescription="bar" d="M0,23.07692307692313h102.85714285714286v576.9230769230769h-102.85714285714286Z" fill="#e6ab02"/></g></g><path class="foreground" aria-hidden="true" d="" display="none"/></g></g></g><path class="foreground" aria-hidden="true" d="" display="none"/></g></g><g class="mark-text role-mark layer_1_marks" role="graphics-object" aria-roledescription="text mark container"><text aria-label="Parser: toml_rs&#xA;0.3.12; Execution Time (seconds, lower=better): 0.0196714000012; parser: toml_rs; label: 0.0197s (x1.00); Execution Time (s): 0.0197; Slowdown: 1.00" role="graphics-symbol" aria-roledescription="text mark" text-anchor="middle" transform="translate(57.142857142857096,593.649910994086)" font-family="sans-serif" font-size="9px" font-weight="bold" fill="#66a61e">0.0197s (x1.00)</text><text aria-label="Parser: rtoml&#xA;0.13.0; Execution Time (seconds, lower=better): 0.0616490000029; parser: rtoml; label: 0.0616s (x3.13); Execution Time (s): 0.0616; Slowdown: 3.13" role="graphics-symbol" aria-roledescription="text mark" text-anchor="middle" transform="translate(171.4285714285714,588.6349605455964)" font-family="sans-serif" font-size="9px" font-weight="bold" fill="#7570b3">0.0616s (x3.13)</text><text aria-label="Parser: pytomlpp&#xA;1.1.0; Execution Time (seconds, lower=better): 0.0872319000009; parser: pytomlpp; label: 0.0872s (x4.43); Execution Time (s): 0.0872; Slowdown: 4.43" role="graphics-symbol" aria-roledescription="text mark" text-anchor="middle" transform="translate(285.71428571428567,585.5786406079799)" font-family="sans-serif" font-size="9px" font-weight="bold" fill="#1b9e77">0.0872s (x4.43)</text><text aria-label="Parser: tomllib&#xA;built-in; Execution Time (seconds, lower=better): 0.305134400001; parser: tomllib; label: 0.3051s (x15.51); Execution Time (s): 0.3051; Slowdown: 15.51" role="graphics-symbol" aria-roledescription="text mark" text-anchor="middle" transform="translate(400,559.5464177067138)" font-family="sans-serif" font-size="9px" font-weight="bold" fill="#a6761d">0.3051s (x15.51)</text><text aria-label="Parser: toml&#xA;0.10.2; Execution Time (seconds, lower=better): 0.6190078; parser: toml; label: 0.6190s (x31.47); Execution Time (s): 0.6190; Slowdown: 31.47" role="graphics-symbol" aria-roledescription="text mark" text-anchor="middle" transform="translate(514.2857142857142,522.0488106965958)" font-family="sans-serif" font-size="9px" font-weight="bold" fill="#e7298a">0.6190s (x31.47)</text><text aria-label="Parser: qtoml&#xA;0.2.4; Execution Time (seconds, lower=better): 0.7952597; parser: qtoml; label: 0.7953s (x40.43); Execution Time (s): 0.7953; Slowdown: 40.43" role="graphics-symbol" aria-roledescription="text mark" text-anchor="middle" transform="translate(628.5714285714286,500.99247243718844)" font-family="sans-serif" font-size="9px" font-weight="bold" fill="#d95f02">0.7953s (x40.43)</text><text aria-label="Parser: tomlkit&#xA;0.14.0; Execution Time (seconds, lower=better): 4.8291297; parser: tomlkit; label: 4.8291s (x245.49); Execution Time (s): 4.8291; Slowdown: 245.49" role="graphics-symbol" aria-roledescription="text mark" text-anchor="middle" transform="translate(742.8571428571429,19.07692307692313)" font-family="sans-serif" font-size="9px" font-weight="bold" fill="#e6ab02">4.8291s (x245.49)</text></g><g class="mark-group role-title"><g transform="translate(400,-33.33648997160216)"><path class="background" aria-hidden="true" d="M0,0h0v0h0Z" pointer-events="none"/><g><g class="mark-text role-title-text" role="graphics-symbol" aria-roledescription="title" aria-label="Title text 'TOML parsers benchmark (loads)'" pointer-events="none"><text text-anchor="middle" transform="translate(0,10)" font-family="sans-serif" font-size="13px" font-weight="bold" fill="#000" opacity="1">TOML parsers benchmark (loads)</text></g><g class="mark-text role-title-subtitle" role="graphics-symbol" aria-roledescription="subtitle" aria-label="Subtitle text 'Python: 3.14.4 (Windows 10) | CPU: 11th Gen Intel(R) Core(TM) i5-11300H @ 3.10GHz'" pointer-events="none"><text text-anchor="middle" transform="translate(0,25)" font-family="sans-serif" font-size="12px" fill="#000" opacity="1">Python: 3.14.4 (Windows 10) | CPU: 11th Gen Intel(R) Core(TM) i5-11300H @ 3.10GHz</text></g></g><path class="foreground" aria-hidden="true" d="" pointer-events="none" display="none"/></g></g></g><path class="foreground" aria-hidden="true" d="" display="none"/></g></g></g><defs><clipPath id="clip1"><path d="M1.1750445029570074,0L101.68209835418585,0C102.33062306981691,0,102.85714285714286,0.5265197873259506,102.85714285714286,1.1750445029570074L102.85714285714286,2.3500890059140147C102.85714285714286,2.3500890059140147,102.85714285714286,2.3500890059140147,102.85714285714286,2.3500890059140147L0,2.3500890059140147C0,2.3500890059140147,0,2.3500890059140147,0,2.3500890059140147L0,1.1750445029570074C0,0.5265197873259506,0.5265197873259506,0,1.1750445029570074,0Z"/></clipPath><clipPath id="clip2"><path d="M3.682519727201793,0L99.17462312994107,0C101.20706109537929,0,102.85714285714286,1.6500817617635772,102.85714285714286,3.682519727201793L102.85714285714286,7.365039454403586C102.85714285714286,7.365039454403586,102.85714285714286,7.365039454403586,102.85714285714286,7.365039454403586L0,7.365039454403586C0,7.365039454403586,0,7.365039454403586,0,7.365039454403586L0,3.682519727201793C0,1.6500817617635772,1.6500817617635772,0,3.682519727201793,0Z"/></clipPath><clipPath id="clip3"><path d="M5.210679696010061,0L97.6464631611328,0C100.52231557318657,0,102.85714285714286,2.3348272839562796,102.85714285714286,5.210679696010061L102.85714285714286,10.421359392020122C102.85714285714286,10.421359392020122,102.85714285714286,10.421359392020122,102.85714285714286,10.421359392020122L0,10.421359392020122C0,10.421359392020122,0,10.421359392020122,0,10.421359392020122L0,5.210679696010061C0,2.3348272839562796,2.3348272839562796,0,5.210679696010061,0Z"/></clipPath><clipPath id="clip4"><path d="M6,0L96.85714285714286,0C100.16863300410687,0,102.85714285714286,2.688509853036,102.85714285714286,6L102.85714285714286,36.45358229328622C102.85714285714286,36.45358229328622,102.85714285714286,36.45358229328622,102.85714285714286,36.45358229328622L0,36.45358229328622C0,36.45358229328622,0,36.45358229328622,0,36.45358229328622L0,6C0,2.688509853036,2.688509853036,0,6,0Z"/></clipPath><clipPath id="clip5"><path d="M6,0L96.85714285714286,0C100.16863300410687,0,102.85714285714286,2.688509853036,102.85714285714286,6L102.85714285714286,73.95118930340425C102.85714285714286,73.95118930340425,102.85714285714286,73.95118930340425,102.85714285714286,73.95118930340425L0,73.95118930340425C0,73.95118930340425,0,73.95118930340425,0,73.95118930340425L0,6C0,2.688509853036,2.688509853036,0,6,0Z"/></clipPath><clipPath id="clip6"><path d="M6,0L96.85714285714286,0C100.16863300410687,0,102.85714285714286,2.688509853036,102.85714285714286,6L102.85714285714286,95.00752756281156C102.85714285714286,95.00752756281156,102.85714285714286,95.00752756281156,102.85714285714286,95.00752756281156L0,95.00752756281156C0,95.00752756281156,0,95.00752756281156,0,95.00752756281156L0,6C0,2.688509853036,2.688509853036,0,6,0Z"/></clipPath><clipPath id="clip7"><path d="M6,0L96.85714285714286,0C100.16863300410687,0,102.85714285714286,2.688509853036,102.85714285714286,6L102.85714285714286,576.9230769230769C102.85714285714286,576.9230769230769,102.85714285714286,576.9230769230769,102.85714285714286,576.9230769230769L0,576.9230769230769C0,576.9230769230769,0,576.9230769230769,0,576.9230769230769L0,6C0,2.688509853036,2.688509853036,0,6,0Z"/></clipPath></defs></svg>