<svg xmlns="http://www.w3.org/2000/svg" xmlns:xlink="http://www.w3.org/1999/xlink" version="1.1" class="marks" width="852" height="687" viewBox="0 0 852 687"><rect width="852" height="687" fill="white"/><g fill="none" stroke-miterlimit="10" transform="translate(47,36)"><g class="mark-group role-frame root" role="graphics-object" aria-roledescription="group mark container"><g transform="translate(0,0)"><path class="background" aria-hidden="true" d="M0.5,0.5h800v600h-800Z" stroke="#ddd"/><g><g class="mark-group role-axis" role="graphics-symbol" aria-roledescription="axis" aria-label="X-axis titled 'Parser' for a discrete scale with 7 values: toml_rs&#xA;0.3.2, rtoml&#xA;0.13.0, pytomlpp&#xA;1.1.0, toml&#xA;0.10.2, qtoml&#xA;0.3.1, tomllib&#xA;built-in, tomlkit&#xA;0.14.0"><g transform="translate(0.5,600.5)"><path class="background" aria-hidden="true" d="M0,0h0v0h0Z" pointer-events="none"/><g><g class="mark-rule role-axis-tick" pointer-events="none"><line transform="translate(57,0)" x2="0" y2="5" stroke="#888" stroke-width="1" opacity="1"/><line transform="translate(171,0)" x2="0" y2="5" stroke="#888" stroke-width="1" opacity="1"/><line transform="translate(285,0)" x2="0" y2="5" stroke="#888" stroke-width="1" opacity="1"/><line transform="translate(400,0)" x2="0" y2="5" stroke="#888" stroke-width="1" opacity="1"/><line transform="translate(514,0)" x2="0" y2="5" stroke="#888" stroke-width="1" opacity="1"/><line transform="translate(628,0)" x2="0" y2="5" stroke="#888" stroke-width="1" opacity="1"/><line transform="translate(742,0)" x2="0" y2="5" stroke="#888" stroke-width="1" opacity="1"/></g><g class="mark-text role-axis-label" pointer-events="none"><text text-anchor="middle" transform="translate(56.642857142857096,15)" font-family="sans-serif" font-size="10px" fill="#000" opacity="1"><tspan>toml_rs</tspan><tspan x="0" dy="14">0.3.2</tspan></text><text text-anchor="middle" transform="translate(170.9285714285714,15)" font-family="sans-serif" font-size="10px" fill="#000" opacity="1"><tspan>rtoml</tspan><tspan x="0" dy="14">0.13.0</tspan></text><text text-anchor="middle" transform="translate(285.21428571428567,15)" font-family="sans-serif" font-size="10px" fill="#000" opacity="1"><tspan>pytomlpp</tspan><tspan x="0" dy="14">1.1.0</tspan></text><text text-anchor="middle" transform="translate(399.5,15)" font-family="sans-serif" font-size="10px" fill="#000" opacity="1"><tspan>toml</tspan><tspan x="0" dy="14">0.10.2</tspan></text><text text-anchor="middle" transform="translate(513.7857142857142,15)" font-family="sans-serif" font-size="10px" fill="#000" opacity="1"><tspan>qtoml</tspan><tspan x="0" dy="14">0.3.1</tspan></text><text text-anchor="middle" transform="translate(628.0714285714286,15)" font-family="sans-serif" font-size="10px" fill="#000" opacity="1"><tspan>tomllib</tspan><tspan x="0" dy="14">built-in</tspan></text><text text-anchor="middle" transform="translate(742.3571428571429,15)" font-family="sans-serif" font-size="10px" fill="#000" opacity="1"><tspan>tomlkit</tspan><tspan x="0" dy="14">0.14.0</tspan></text></g><g class="mark-rule role-axis-domain" pointer-events="none"><line transform="translate(0,0)" x2="800" y2="0" stroke="#888" stroke-width="1" opacity="1"/></g><g class="mark-text role-axis-title" pointer-events="none"><text text-anchor="middle" transform="translate(400,44)" font-family="sans-serif" font-size="11px" font-weight="bold" fill="#000" opacity="1">Parser</text></g></g><path class="foreground" aria-hidden="true" d="" pointer-events="none" display="none"/></g></g><g class="mark-group role-axis" role="graphics-symbol" aria-roledescription="axis" aria-label="Y-axis titled 'Execution Time (seconds, lower=better)' for a linear scale with values from 0.0 to 0.7"><g transform="translate(0.5,0.5)"><path class="background" aria-hidden="true" d="M0,0h0v0h0Z" pointer-events="none"/><g><g class="mark-rule role-axis-tick" pointer-events="none"><line transform="translate(0,600)" x2="-5" y2="0" stroke="#888" stroke-width="1" opacity="1"/><line transform="translate(0,560)" x2="-5" y2="0" stroke="#888" stroke-width="1" opacity="1"/><line transform="translate(0,519)" x2="-5" y2="0" stroke="#888" stroke-width="1" opacity="1"/><line transform="translate(0,479)" x2="-5" y2="0" stroke="#888" stroke-width="1" opacity="1"/><line transform="translate(0,438)" x2="-5" y2="0" stroke="#888" stroke-width="1" opacity="1"/><line transform="translate(0,398)" x2="-5" y2="0" stroke="#888" stroke-width="1" opacity="1"/><line transform="translate(0,357)" x2="-5" y2="0" stroke="#888" stroke-width="1" opacity="1"/><line transform="translate(0,317)" x2="-5" y2="0" stroke="#888" stroke-width="1" opacity="1"/><line transform="translate(0,276)" x2="-5" y2="0" stroke="#888" stroke-width="1" opacity="1"/><line transform="translate(0,236)" x2="-5" y2="0" stroke="#888" stroke-width="1" opacity="1"/><line transform="translate(0,196)" x2="-5" y2="0" stroke="#888" stroke-width="1" opacity="1"/><line transform="translate(0,155)" x2="-5" y2="0" stroke="#888" stroke-width="1" opacity="1"/><line transform="translate(0,115)" x2="-5" y2="0" stroke="#888" stroke-width="1" opacity="1"/><line transform="translate(0,74)" x2="-5" y2="0" stroke="#888" stroke-width="1" opacity="1"/><line transform="translate(0,34)" x2="-5" y2="0" stroke="#888" stroke-width="1" opacity="1"/></g><g class="mark-text role-axis-label" pointer-events="none"><text text-anchor="end" transform="translate(-7,603)" font-family="sans-serif" font-size="10px" fill="#000" opacity="1">0.00</text><text text-anchor="end" transform="translate(-7,562.5560841281587)" font-family="sans-serif" font-size="10px" fill="#000" opacity="1">0.05</text><text text-anchor="end" transform="translate(-7,522.1121682563173)" font-family="sans-serif" font-size="10px" fill="#000" opacity="1">0.10</text><text text-anchor="end" transform="translate(-7,481.66825238447603)" font-family="sans-serif" font-size="10px" fill="#000" opacity="1">0.15</text><text text-anchor="end" transform="translate(-7,441.2243365126347)" font-family="sans-serif" font-size="10px" fill="#000" opacity="1">0.20</text><text text-anchor="end" transform="translate(-7,400.7804206407934)" font-family="sans-serif" font-size="10px" fill="#000" opacity="1">0.25</text><text text-anchor="end" transform="translate(-7,360.336504768952)" font-family="sans-serif" font-size="10px" fill="#000" opacity="1">0.30</text><text text-anchor="end" transform="translate(-7,319.8925888971108)" font-family="sans-serif" font-size="10px" fill="#000" opacity="1">0.35</text><text text-anchor="end" transform="translate(-7,279.4486730252694)" font-family="sans-serif" font-size="10px" fill="#000" opacity="1">0.40</text><text text-anchor="end" transform="translate(-7,239.00475715342805)" font-family="sans-serif" font-size="10px" fill="#000" opacity="1">0.45</text><text text-anchor="end" transform="translate(-7,198.56084128158676)" font-family="sans-serif" font-size="10px" fill="#000" opacity="1">0.50</text><text text-anchor="end" transform="translate(-7,158.11692540974536)" font-family="sans-serif" font-size="10px" fill="#000" opacity="1">0.55</text><text text-anchor="end" transform="translate(-7,117.67300953790411)" font-family="sans-serif" font-size="10px" fill="#000" opacity="1">0.60</text><text text-anchor="end" transform="translate(-7,77.22909366606278)" font-family="sans-serif" font-size="10px" fill="#000" opacity="1">0.65</text><text text-anchor="end" transform="translate(-7,36.785177794221454)" font-family="sans-serif" font-size="10px" fill="#000" opacity="1">0.70</text></g><g class="mark-rule role-axis-domain" pointer-events="none"><line transform="translate(0,600)" x2="0" y2="-600" stroke="#888" stroke-width="1" opacity="1"/></g><g class="mark-text role-axis-title" pointer-events="none"><text text-anchor="middle" transform="translate(-30.462890625,300) rotate(-90) translate(0,-2)" font-family="sans-serif" font-size="11px" font-weight="bold" fill="#000" opacity="1">Execution Time (seconds, lower=better)</text></g></g><path class="foreground" aria-hidden="true" d="" pointer-events="none" display="none"/></g></g><g class="mark-group role-scope" role="graphics-object" aria-roledescription="group mark container"><g transform="translate(5.714285714285666,596.2341052185664)"><path class="background" aria-hidden="true" d="M1.8829473907168222,0L100.97419546642604,0C102.01342242169443,0,102.85714285714286,0.8437204354484339,102.85714285714286,1.8829473907168222L102.85714285714286,3.7658947814336443C102.85714285714286,3.7658947814336443,102.85714285714286,3.7658947814336443,102.85714285714286,3.7658947814336443L0,3.7658947814336443C0,3.7658947814336443,0,3.7658947814336443,0,3.7658947814336443L0,1.8829473907168222C0,0.8437204354484339,0.8437204354484339,0,1.8829473907168222,0Z"/><g clip-path="url(#clip1)"><g class="mark-group role-scope" role="graphics-object" aria-roledescription="group mark container"><g transform="translate(0,-596.2341052185664)"><path class="background" aria-hidden="true" d="M0,0h102.85714285714286v0h-102.85714285714286Z"/><g><g class="mark-rect role-mark layer_0_marks" role="graphics-object" aria-roledescription="rect mark container"><path aria-label="Parser: toml_rs&#xA;0.3.2; Execution Time (seconds, lower=better): 0.00465569999869; parser: toml_rs; Execution Time (s): 0.0047; Slowdown: 1.00" role="graphics-symbol" aria-roledescription="bar" d="M0,596.2341052185664h102.85714285714286v3.7658947814336443h-102.85714285714286Z" fill="#66a61e"/></g></g><path class="foreground" aria-hidden="true" d="" display="none"/></g></g></g><path class="foreground" aria-hidden="true" d="" display="none"/></g><g transform="translate(119.99999999999996,591.5260289700642)"><path class="background" aria-hidden="true" d="M4.236985514967898,0L98.62015734217496,0C100.9586133064492,0,102.85714285714286,1.8985295506936677,102.85714285714286,4.236985514967898L102.85714285714286,8.473971029935797C102.85714285714286,8.473971029935797,102.85714285714286,8.473971029935797,102.85714285714286,8.473971029935797L0,8.473971029935797C0,8.473971029935797,0,8.473971029935797,0,8.473971029935797L0,4.236985514967898C0,1.8985295506936677,1.8985295506936677,0,4.236985514967898,0Z"/><g clip-path="url(#clip2)"><g class="mark-group role-scope" role="graphics-object" aria-roledescription="group mark container"><g transform="translate(0,-591.5260289700642)"><path class="background" aria-hidden="true" d="M0,0h102.85714285714286v0h-102.85714285714286Z"/><g><g class="mark-rect role-mark layer_0_marks" role="graphics-object" aria-roledescription="rect mark container"><path aria-label="Parser: rtoml&#xA;0.13.0; Execution Time (seconds, lower=better): 0.010476200001; parser: rtoml; Execution Time (s): 0.0105; Slowdown: 2.25" role="graphics-symbol" aria-roledescription="bar" d="M0,591.5260289700642h102.85714285714286v8.473971029935797h-102.85714285714286Z" fill="#7570b3"/></g></g><path class="foreground" aria-hidden="true" d="" display="none"/></g></g></g><path class="foreground" aria-hidden="true" d="" display="none"/></g><g transform="translate(234.28571428571425,590.2786577146801)"><path class="background" aria-hidden="true" d="M4.860671142659953,0L97.99647171448291,0C100.67914914724136,0,102.85714285714286,2.1779937099015063,102.85714285714286,4.860671142659953L102.85714285714286,9.721342285319906C102.85714285714286,9.721342285319906,102.85714285714286,9.721342285319906,102.85714285714286,9.721342285319906L0,9.721342285319906C0,9.721342285319906,0,9.721342285319906,0,9.721342285319906L0,4.860671142659953C0,2.1779937099015063,2.1779937099015063,0,4.860671142659953,0Z"/><g clip-path="url(#clip3)"><g class="mark-group role-scope" role="graphics-object" aria-roledescription="group mark container"><g transform="translate(0,-590.2786577146801)"><path class="background" aria-hidden="true" d="M0,0h102.85714285714286v0h-102.85714285714286Z"/><g><g class="mark-rect role-mark layer_0_marks" role="graphics-object" aria-roledescription="rect mark container"><path aria-label="Parser: pytomlpp&#xA;1.1.0; Execution Time (seconds, lower=better): 0.0120183000035; parser: pytomlpp; Execution Time (s): 0.0120; Slowdown: 2.58" role="graphics-symbol" aria-roledescription="bar" d="M0,590.2786577146801h102.85714285714286v9.721342285319906h-102.85714285714286Z" fill="#1b9e77"/></g></g><path class="foreground" aria-hidden="true" d="" display="none"/></g></g></g><path class="foreground" aria-hidden="true" d="" display="none"/></g><g transform="translate(348.57142857142856,521.4057427232327)"><path class="background" aria-hidden="true" d="M6,0L96.85714285714286,0C100.16863300410687,0,102.85714285714286,2.688509853036,102.85714285714286,6L102.85714285714286,78.59425727676728C102.85714285714286,78.59425727676728,102.85714285714286,78.59425727676728,102.85714285714286,78.59425727676728L0,78.59425727676728C0,78.59425727676728,0,78.59425727676728,0,78.59425727676728L0,6C0,2.688509853036,2.688509853036,0,6,0Z"/><g clip-path="url(#clip4)"><g class="mark-group role-scope" role="graphics-object" aria-roledescription="group mark container"><g transform="translate(0,-521.4057427232327)"><path class="background" aria-hidden="true" d="M0,0h102.85714285714286v0h-102.85714285714286Z"/><g><g class="mark-rect role-mark layer_0_marks" role="graphics-object" aria-roledescription="rect mark container"><path aria-label="Parser: toml&#xA;0.10.2; Execution Time (seconds, lower=better): 0.0971645000027; parser: toml; Execution Time (s): 0.0972; Slowdown: 20.87" role="graphics-symbol" aria-roledescription="bar" d="M0,521.4057427232327h102.85714285714286v78.59425727676728h-102.85714285714286Z" fill="#e7298a"/></g></g><path class="foreground" aria-hidden="true" d="" display="none"/></g></g></g><path class="foreground" aria-hidden="true" d="" display="none"/></g><g transform="translate(462.85714285714283,514.6853390021885)"><path class="background" aria-hidden="true" d="M6,0L96.85714285714286,0C100.16863300410687,0,102.85714285714286,2.688509853036,102.85714285714286,6L102.85714285714286,85.31466099781153C102.85714285714286,85.31466099781153,102.85714285714286,85.31466099781153,102.85714285714286,85.31466099781153L0,85.31466099781153C0,85.31466099781153,0,85.31466099781153,0,85.31466099781153L0,6C0,2.688509853036,2.688509853036,0,6,0Z"/><g clip-path="url(#clip5)"><g class="mark-group role-scope" role="graphics-object" aria-roledescription="group mark container"><g transform="translate(0,-514.6853390021885)"><path class="background" aria-hidden="true" d="M0,0h102.85714285714286v0h-102.85714285714286Z"/><g><g class="mark-rect role-mark layer_0_marks" role="graphics-object" aria-roledescription="rect mark container"><path aria-label="Parser: qtoml&#xA;0.3.1; Execution Time (seconds, lower=better): 0.105472799998; parser: qtoml; Execution Time (s): 0.1055; Slowdown: 22.65" role="graphics-symbol" aria-roledescription="bar" d="M0,514.6853390021885h102.85714285714286v85.31466099781153h-102.85714285714286Z" fill="#d95f02"/></g></g><path class="foreground" aria-hidden="true" d="" display="none"/></g></g></g><path class="foreground" aria-hidden="true" d="" display="none"/></g><g transform="translate(577.1428571428571,511.0451439091095)"><path class="background" aria-hidden="true" d="M6,0L96.85714285714286,0C100.16863300410687,0,102.85714285714286,2.688509853036,102.85714285714286,6L102.85714285714286,88.95485609089047C102.85714285714286,88.95485609089047,102.85714285714286,88.95485609089047,102.85714285714286,88.95485609089047L0,88.95485609089047C0,88.95485609089047,0,88.95485609089047,0,88.95485609089047L0,6C0,2.688509853036,2.688509853036,0,6,0Z"/><g clip-path="url(#clip6)"><g class="mark-group role-scope" role="graphics-object" aria-roledescription="group mark container"><g transform="translate(0,-511.0451439091095)"><path class="background" aria-hidden="true" d="M0,0h102.85714285714286v0h-102.85714285714286Z"/><g><g class="mark-rect role-mark layer_0_marks" role="graphics-object" aria-roledescription="rect mark container"><path aria-label="Parser: tomllib&#xA;built-in; Execution Time (seconds, lower=better): 0.109973099999; parser: tomllib; Execution Time (s): 0.1100; Slowdown: 23.62" role="graphics-symbol" aria-roledescription="bar" d="M0,511.0451439091095h102.85714285714286v88.95485609089047h-102.85714285714286Z" fill="#a6761d"/></g></g><path class="foreground" aria-hidden="true" d="" display="none"/></g></g></g><path class="foreground" aria-hidden="true" d="" display="none"/></g><g transform="translate(691.4285714285714,23.07692307692313)"><path class="background" aria-hidden="true" d="M6,0L96.85714285714286,0C100.16863300410687,0,102.85714285714286,2.688509853036,102.85714285714286,6L102.85714285714286,576.9230769230769C102.85714285714286,576.9230769230769,102.85714285714286,576.9230769230769,102.85714285714286,576.9230769230769L0,576.9230769230769C0,576.9230769230769,0,576.9230769230769,0,576.9230769230769L0,6C0,2.688509853036,2.688509853036,0,6,0Z"/><g clip-path="url(#clip7)"><g class="mark-group role-scope" role="graphics-object" aria-roledescription="group mark container"><g transform="translate(0,-23.07692307692313)"><path class="background" aria-hidden="true" d="M0,0h102.85714285714286v0h-102.85714285714286Z"/><g><g class="mark-rect role-mark layer_0_marks" role="graphics-object" aria-roledescription="rect mark container"><path aria-label="Parser: tomlkit&#xA;0.14.0; Execution Time (seconds, lower=better): 0.7132384; parser: tomlkit; Execution Time (s): 0.7132; Slowdown: 153.20" role="graphics-symbol" aria-roledescription="bar" d="M0,23.07692307692313h102.85714285714286v576.9230769230769h-102.85714285714286Z" fill="#e6ab02"/></g></g><path class="foreground" aria-hidden="true" d="" display="none"/></g></g></g><path class="foreground" aria-hidden="true" d="" display="none"/></g></g><g class="mark-text role-mark layer_1_marks" role="graphics-object" aria-roledescription="text mark container"><text aria-label="Parser: toml_rs&#xA;0.3.2; Execution Time (seconds, lower=better): 0.00465569999869; parser: toml_rs; label: 0.0047s (x1.00); Execution Time (s): 0.0047; Slowdown: 1.00" role="graphics-symbol" aria-roledescription="text mark" text-anchor="middle" transform="translate(57.142857142857096,592.2341052185664)" font-family="sans-serif" font-size="9px" font-weight="bold" fill="#66a61e">0.0047s (x1.00)</text><text aria-label="Parser: rtoml&#xA;0.13.0; Execution Time (seconds, lower=better): 0.010476200001; parser: rtoml; label: 0.0105s (x2.25); Execution Time (s): 0.0105; Slowdown: 2.25" role="graphics-symbol" aria-roledescription="text mark" text-anchor="middle" transform="translate(171.4285714285714,587.5260289700642)" font-family="sans-serif" font-size="9px" font-weight="bold" fill="#7570b3">0.0105s (x2.25)</text><text aria-label="Parser: pytomlpp&#xA;1.1.0; Execution Time (seconds, lower=better): 0.0120183000035; parser: pytomlpp; label: 0.0120s (x2.58); Execution Time (s): 0.0120; Slowdown: 2.58" role="graphics-symbol" aria-roledescription="text mark" text-anchor="middle" transform="translate(285.71428571428567,586.2786577146801)" font-family="sans-serif" font-size="9px" font-weight="bold" fill="#1b9e77">0.0120s (x2.58)</text><text aria-label="Parser: toml&#xA;0.10.2; Execution Time (seconds, lower=better): 0.0971645000027; parser: toml; label: 0.0972s (x20.87); Execution Time (s): 0.0972; Slowdown: 20.87" role="graphics-symbol" aria-roledescription="text mark" text-anchor="middle" transform="translate(400,517.4057427232327)" font-family="sans-serif" font-size="9px" font-weight="bold" fill="#e7298a">0.0972s (x20.87)</text><text aria-label="Parser: qtoml&#xA;0.3.1; Execution Time (seconds, lower=better): 0.105472799998; parser: qtoml; label: 0.1055s (x22.65); Execution Time (s): 0.1055; Slowdown: 22.65" role="graphics-symbol" aria-roledescription="text mark" text-anchor="middle" transform="translate(514.2857142857142,510.68533900218847)" font-family="sans-serif" font-size="9px" font-weight="bold" fill="#d95f02">0.1055s (x22.65)</text><text aria-label="Parser: tomllib&#xA;built-in; Execution Time (seconds, lower=better): 0.109973099999; parser: tomllib; label: 0.1100s (x23.62); Execution Time (s): 0.1100; Slowdown: 23.62" role="graphics-symbol" aria-roledescription="text mark" text-anchor="middle" transform="translate(628.5714285714286,507.0451439091095)" font-family="sans-serif" font-size="9px" font-weight="bold" fill="#a6761d">0.1100s (x23.62)</text><text aria-label="Parser: tomlkit&#xA;0.14.0; Execution Time (seconds, lower=better): 0.7132384; parser: tomlkit; label: 0.7132s (x153.20); Execution Time (s): 0.7132; Slowdown: 153.20" role="graphics-symbol" aria-roledescription="text mark" text-anchor="middle" transform="translate(742.8571428571429,19.07692307692313)" font-family="sans-serif" font-size="9px" font-weight="bold" fill="#e6ab02">0.7132s (x153.20)</text></g><g class="mark-group role-title"><g transform="translate(400,-31)"><path class="background" aria-hidden="true" d="M0,0h0v0h0Z" pointer-events="none"/><g><g class="mark-text role-title-text" role="graphics-symbol" aria-roledescription="title" aria-label="Title text 'TOML parsers benchmark (loads)'" pointer-events="none"><text text-anchor="middle" transform="translate(0,10)" font-family="sans-serif" font-size="13px" font-weight="bold" fill="#000" opacity="1">TOML parsers benchmark (loads)</text></g><g class="mark-text role-title-subtitle" role="graphics-symbol" aria-roledescription="subtitle" aria-label="Subtitle text 'Python: 3.13.8 (Windows 10) | CPU: 11th Gen Intel(R) Core(TM) i5-11300H @ 3.10GHz'" pointer-events="none"><text text-anchor="middle" transform="translate(0,25)" font-family="sans-serif" font-size="12px" fill="#000" opacity="1">Python: 3.13.8 (Windows 10) | CPU: 11th Gen Intel(R) Core(TM) i5-11300H @ 3.10GHz</text></g></g><path class="foreground" aria-hidden="true" d="" pointer-events="none" display="none"/></g></g></g><path class="foreground" aria-hidden="true" d="" display="none"/></g></g></g><defs><clipPath id="clip1"><path d="M1.8829473907168222,0L100.97419546642604,0C102.01342242169443,0,102.85714285714286,0.8437204354484339,102.85714285714286,1.8829473907168222L102.85714285714286,3.7658947814336443C102.85714285714286,3.7658947814336443,102.85714285714286,3.7658947814336443,102.85714285714286,3.7658947814336443L0,3.7658947814336443C0,3.7658947814336443,0,3.7658947814336443,0,3.7658947814336443L0,1.8829473907168222C0,0.8437204354484339,0.8437204354484339,0,1.8829473907168222,0Z"/></clipPath><clipPath id="clip2"><path d="M4.236985514967898,0L98.62015734217496,0C100.9586133064492,0,102.85714285714286,1.8985295506936677,102.85714285714286,4.236985514967898L102.85714285714286,8.473971029935797C102.85714285714286,8.473971029935797,102.85714285714286,8.473971029935797,102.85714285714286,8.473971029935797L0,8.473971029935797C0,8.473971029935797,0,8.473971029935797,0,8.473971029935797L0,4.236985514967898C0,1.8985295506936677,1.8985295506936677,0,4.236985514967898,0Z"/></clipPath><clipPath id="clip3"><path d="M4.860671142659953,0L97.99647171448291,0C100.67914914724136,0,102.85714285714286,2.1779937099015063,102.85714285714286,4.860671142659953L102.85714285714286,9.721342285319906C102.85714285714286,9.721342285319906,102.85714285714286,9.721342285319906,102.85714285714286,9.721342285319906L0,9.721342285319906C0,9.721342285319906,0,9.721342285319906,0,9.721342285319906L0,4.860671142659953C0,2.1779937099015063,2.1779937099015063,0,4.860671142659953,0Z"/></clipPath><clipPath id="clip4"><path d="M6,0L96.85714285714286,0C100.16863300410687,0,102.85714285714286,2.688509853036,102.85714285714286,6L102.85714285714286,78.59425727676728C102.85714285714286,78.59425727676728,102.85714285714286,78.59425727676728,102.85714285714286,78.59425727676728L0,78.59425727676728C0,78.59425727676728,0,78.59425727676728,0,78.59425727676728L0,6C0,2.688509853036,2.688509853036,0,6,0Z"/></clipPath><clipPath id="clip5"><path d="M6,0L96.85714285714286,0C100.16863300410687,0,102.85714285714286,2.688509853036,102.85714285714286,6L102.85714285714286,85.31466099781153C102.85714285714286,85.31466099781153,102.85714285714286,85.31466099781153,102.85714285714286,85.31466099781153L0,85.31466099781153C0,85.31466099781153,0,85.31466099781153,0,85.31466099781153L0,6C0,2.688509853036,2.688509853036,0,6,0Z"/></clipPath><clipPath id="clip6"><path d="M6,0L96.85714285714286,0C100.16863300410687,0,102.85714285714286,2.688509853036,102.85714285714286,6L102.85714285714286,88.95485609089047C102.85714285714286,88.95485609089047,102.85714285714286,88.95485609089047,102.85714285714286,88.95485609089047L0,88.95485609089047C0,88.95485609089047,0,88.95485609089047,0,88.95485609089047L0,6C0,2.688509853036,2.688509853036,0,6,0Z"/></clipPath><clipPath id="clip7"><path d="M6,0L96.85714285714286,0C100.16863300410687,0,102.85714285714286,2.688509853036,102.85714285714286,6L102.85714285714286,576.9230769230769C102.85714285714286,576.9230769230769,102.85714285714286,576.9230769230769,102.85714285714286,576.9230769230769L0,576.9230769230769C0,576.9230769230769,0,576.9230769230769,0,576.9230769230769L0,6C0,2.688509853036,2.688509853036,0,6,0Z"/></clipPath></defs></svg>